<mxfile host="app.diagrams.net" modified="2023-09-23T11:48:07.699Z" agent="Mozilla/5.0 (X11; Linux x86_64) AppleWebKit/537.36 (KHTML, like Gecko) Chrome/116.0.0.0 Safari/537.36" etag="LuBJA9UpwdXOByVzUizH" version="21.8.1" type="github">
  <diagram name="Page-1" id="8Klyf1KC6nm8MBiqseZu">
    <mxGraphModel dx="1364" dy="771" grid="1" gridSize="10" guides="1" tooltips="1" connect="1" arrows="1" fold="1" page="1" pageScale="1" pageWidth="827" pageHeight="1169" math="0" shadow="0">
      <root>
        <mxCell id="0" />
        <mxCell id="1" parent="0" />
        <mxCell id="wet8AxgzRINd1NlbaGdf-1" value="" style="shape=image;verticalLabelPosition=bottom;labelBackgroundColor=default;verticalAlign=top;aspect=fixed;imageAspect=0;image=data:image/png,iVBORw0KGgoAAAANSUhEUgAABFUAAAJUCAYAAADU7xlUAAAABHNCSVQICAgIfAhkiAAAABl0RVh0U29mdHdhcmUAZ25vbWUtc2NyZWVuc2hvdO8Dvz4AAABKaVRYdENyZWF0aW9uIFRpbWUAAAAAANGB0YPQsdC+0YLQsCwgMjMuINGB0LXQv9GC0LXQvNCx0LDRgCAyMDIzLiAxMzo0ODowNCBDRVNUcfpnEAAAIABJREFUeJzs3XmcZVdd7/3PWnufc6pOjV09d6fndHe605lJiBBAGaMiqAxO+IAo+qj4UhTlevWi8nidwIfrgMNV8AIXUS6DgAYJgRDGTKTTnbHT8zxXd81n2Hut+8faZ6jq6qbrVFVSlXzfeZ1UddWps+e91/qt31rLeO89IiIiIiIiIiIyJfaZXgERERERERERkflIQRURERERERERkRYoqCIiIiIiIiIi0gIFVUREREREREREWqCgioiIiIiIiIhICxRUERERERERERFpgYIqIiIiIiIiIiItUFBFRERERERERKQFCqqIiIiIiIiIiLRAQRURERERERERkRYoqCIiIiIiIiIi0gIFVUREREREREREWqCgioiIiIiIiIhICxRUERERERERERFpgYIqIiIiIiIiIiItUFBFRERERERERKQFCqqIiIiIiIiIiLRAQRURERERERERkRYoqCIiIiIiIiIi0gIFVUREREREREREWqCgioiIiIiIiIhICxRUERERERERERFpgYIqIiIiIiIiIiItUFBFRERERERERKQFCqqIiIiIiIiIiLRAQRURERERERERkRYoqCIiIiIiIiIi0gIFVUREREREREREWqCgioiIiIiIiIhICxRUERERERERERFpgYIqIiIiIiIiIiItUFBFRERERERERKQFCqqIiIiIiIiIiLRAQRURERERERERkRYoqCIiIiIiIiIi0gIFVUREREREREREWqCgioiIiIiIiIhICxRUERERERERERFpgYIqIiIiIiIiIiItUFBFRERERERERKQFCqqIiIiIiIiIiLRAQRURERERERERkRYoqCIiIiIiIiIi0gIFVUREREREREREWqCgioiIiIiIiIhICxRUERERERERERFpgYIqIiIiIiIiIiItUFBFRERERERERKQFCqqIiIiIiIiIiLRAQRURERERERERkRYoqCIiIiIiIiIi0gIFVUREREREREREWqCgioiIiIiIiIhICxRUERERERERERFpgYIqIiIiIiIiIiItUFBFRERERERERKQFCqqIiIiIiIiIiLRAQRURERERERERkRYoqCIiIiIiIiIi0gIFVUREREREREREWqCgioiIiIiIiIhICxRUERERERERERFpgYIqIiIiIiIiIiItUFBFRERERERERKQFCqqIiIiIiIiIiLRAQRURERERERERkRYoqCIiIiIiIiIi0gIFVUREREREREREWqCgioiIiIiIiIhICxRUERERERERERFpgYIqIiIiIiIiIiItUFBFRERERERERKQFCqqIiIiIiIiIiLRAQRURERERERERkRYoqCIiIiIiIiIi0gIFVUREREREREREWqCgioiIiIiIiIhICxRUERERERERERFpgYIqIiIiIiIiIiItUFBFRERERERERKQFCqqIiIiIiIiIiLRAQRURERERERERkRYoqCIiIiIiIiIi0gIFVUREREREREREWqCgioiIiIiIiIhICxRUERERERERERFpgYIqIiIiIiIiIiItUFBFRERERERERKQFCqqIiIiIiIiIiLRAQRURERERERERkRYoqCIiIiIiIiIi0gIFVUREREREREREWqCgioiIiIiIiIhICxRUERERERERERFpgYIqIiIiIiIiIiItUFBFRERERERERKQFCqqIiIiIiIiIiLRAQRURERERERERkRYoqCIiIiIiIiIi0gIFVUREREREREREWqCgioiIiIiIiIhICxRUERERERERERFpgYIqIiIiIiIiIiItUFBFRERERERERKQFCqqIiIiIiIiIiLRAQRURERERERERkRYoqCIiIiIiIiIi0gIFVUREREREREREWqCgioiIiIiIiIhICxRUERERERERERFpgYIqIiIiIiIiIiItUFBFRERERERERKQFCqqIiIiIiIiIiLRAQRURERERERERkRYoqCIiIiIiIiIi0gIFVUREREREREREWqCgioiIiIiIiIhICxRUERERERERERFpgYIqIiIiz3k+vHz29RJvkeeeSQ+7H3+++KY36jSROs+F9w4/4ZvJ3iMzq2kfX7Cbte9Fps1473UZiYiICBDK1qb2DbV/NP1cntM8YCacGyLj1G4WE2sYZsLv6zV8c+F7ZGZdqrZ3wXERkalSporIfPdsDIt+t22a6W1+Nu7D6VLL1dPnUvv56TgGE461ucgyx5W1dW4Ez4HrZGLTm6n9r7nSPGkWwkX+Pe0VmuHPm2vm+/Y1V8wN428cE4NxPntD8/tn85p6pvft0122udjnXuzfCqiItCx+pldARC6fd2AmPPS8Dy09xj7LnoYu++LDN9ZOiAFPoUXFpR5jwEzYed43VRBmWy1THo+ZsECPb6zb03UYPTgX9u3E/XKxn01nWZCdq8+AS21LmqZENrqw8P90yM5h7/yk16/3k/98Rjga25t6KFWg6sILwBkwFqwJzS+5CIoxRGGfmSjCPhdaNT241E16HOrX8bO8ecoT7l3WEM6VSgrlNJxDaZZp4FKIDEQWYgv5KLxm8vyod1248B46J8zQKnkfts85d+Fzb+Ly5lJluPl+UPveEc6XSgpVwHlIXPhdlG1AbCCfnTO5KPztbF1TkwV4Jv7bNN17Z/oel23ypM/CWjluhpdZf744YCyBsg/39zRtFCojE/Z9IYZ80x8/y+9tIjNJQRWR+cLDk99+gDOHjxPbqOnHnmJXB9e/6vueNQ/AWpni4PbHOLbvQFaADoUQ5zyFBV3c9PKXXFbBww2V+MYX7yLvzQWVa+c9xb4ernvpbTO+DReuCOx9aAcn9h4kiqILfl0l5Xtufzm5zuLTU0Aeq3DfF78M1fSiQZUbX/ESct0d018fBw99+R4qgyPPSNn/UrEcZ+H5r3opUWfb07dCmaGTZ/jO3d+gLc7Vf1ZbVWdg+fo1rL9h28xXTB0wVuXU7r1s/852jj2yC7fnKN2nBimOVikmnrjqcJFltBAzWLCM9LTjNi1nyeb1XH3j9ay9aiMs7IWIuVGhmw0eDj+yi0OP75r0mnXe07tsCVtvu+VZc++9gAfrYPTAcR5/eCdPfOchqvuPEu89TWfF01l1xKUqcRwzHHvG8pahYg6/fgXtm9ew6dqtXH3NNgqrl4V9NLFSO5Vzp5py351348bK2Z811+BrpvKBMxfkNZHl+a9+ZQgMTPezjMENj3HvXV/FJm7S9zgDN7z0RbQv6J5b158DqnDy8Sd56MHvcOypPXCin9yxcxT7S3RVHF0JxBhGTcpQ7Bloj6isXYpf2EVhxWLWXbWJF7z4RZjFvReeM9OVBeaO7z/I3vt3YCM77uONtaRpyvqbrmH5hrUzvuzk3DDfvutuYmMvCAyOpRWuu+1W+q5YNu3l1DmoHD7Fzu3b2fXgw1R2H6Z9/1m6Rj2d1ZQoSajGloH2mLGlPYwu6sIt72bLDddy3U030r1hLeSYW+eYyByloIrIPOABk0D+H+6k69P30uvzIW3WQGo9bkkb3P8i6I3De6f7ABxX1nSMjJTYs2c33qfj3mZMxFVXbSLfVgBs6DbQ6rJr2Qy1TOAUTr/7Iyz56m5MZEPhHsDC6ZtXwQtfAh2X+rjQ2mefOs3g2/+arWNtWDe+5jNqE6rXr4JaUGW2Wv08UIFzf/yvLP7SE8R+/Hp4m/KUGSR35xa4eWNIEpjp1ZhY73jiGPzCX7JkrI1asbI23KQBEpew+w+H2PorP9byk8JntSYzCiPv/gjLHz9DPK4ZbHKXu92tVolMljXkgYEeT/TVF8CVbU97wbHr8RO4n3k/S+JeDDHeeBzhGhiIHYW33A5Xb4PCNBbiHWDBQFKBw7v3cvzL3yb3ia/T9fhptlQjtuYMtt1ioghPRJRlcJkq+BJUvYOTJfxjB0nGnsLn/pOHFhWo/tAtLP7J72P91VuJCrlGwKZWEWq1rjsXeGAUjv6XD7Lk60+RmyR6lJDy6LKYrV/9MG5lcf7FVZpb5sf/E+Ph5LETHHzwUdw/fZGOew+zaMTzkoLB5lIwFhtFWGKsz2PL4LB448B4qgcO4790kGTsbo52F9j/wtWsePMPsvzma+hd2NdY/lTOi4ESY7/1T6w5PJLdsyI8kwUdLudIzFwfE28ctAO33gbLuxrnfovnvPcJ6Vce5txb3sc2102aVb8NtQwKyxlX4uRfWta++fvHb+4sX2cej/Hjxz/xeFwCB5/cz7E7voH//LdZtesMmytVtuVi4lwObwyYcI8Dl5VRbDhnBg3maD9wlmqyh8R9ne8s+jhD33stnW+8jU03XEdPT1dTF6Fp7FwDVGHkzu30vuMfKObzWbZveOjaLKgy+ns/Bu9YmwWNp1kwaMraOfIXn6bwV59icSXCGFvfHO8dBxd5+u54AVzR/EeXzxECoAD9J/s59J2dnPnoHSz/1gF6Bsu8qL2Ajz0RBovB2hjjYqgY3CikpwdwDGBSg/+HHRwrfJQnNy9h9FXXser1r2TDVVc2dsNcypASmSMUVBGZB2pdVNbfej1Pfv5eOtvbcBhMVqQslR3VJ3eTu3VL44+mE+AYl8JrOfuBz7HnvR9mUZIb97azZpStH38vvPIGzAzVKOrV+9SQDp6nr7edFE/iXXiWm5jV125pVDQv8nCv/9NGdBc76Y3bSRkfFIpxpG3FmU/xnYyFgonp6+gkyl/Qh4vuSgJZqvesV85SKO85yPKoSFdnDpOLccbgvcd7F7KvE8+uB3ZA+Y0hPbsF9bKXh7Z8np6uzukH/GaAwWCMxWOoFKqh4PyMiCjm2ujuKOIiWw9CgYXY0V7IhXWbTgWt9qdHBrjvv/w5/V/4FiuKvfQSUWwvEBctGE+KD93BTAg41XoHGTxxZIg8+LyhkG/H4ciV4fynv8Xx//UF9jxvI69477uIt62qr2e9a918VLunVMEe7aenu5vIuOz4BAZwFegZHYX9R7ArNzZFhOeJ2gXqPcY0dakZKrPzLz7G4b/9HJ2RZ5HP0ZdrJ9dt8MaTGoslxWd7JDW186UWqAjnjLExbbk8qYeV3z7Eubvey/4VRW76vZ9n0Q+/nChqxOAud30L+ZjOjiJRLiJUypNJNupyDsJMBlUgzWfdnmofPQ3GxIzuPcb6QjfFuIgzjX1Uy9DxJkdp+y74qe9vCrrO/oOsHlAxtb5YlrFDZ3nod/+CoTvvZ03bAtqcoVjIY9qao8GNZ0v4iFqzR9hZ+Th0J2yLDSk52svQced2Tn3223xtWQcv+ON3sPBlN4esiemyEBtDV1sbxWI7NhqfDpOmCaU4qx7VCl/TOajeQ+Kp7j5O/wc/x6q2LuI2gzfgjSHGkKQJL3rXm2DDkpZvnhagCnv+9uM8+pf/zLJSnjVtRYomR9QVEdnGdqTOgfNZYMcQAXGWMemNx/QUyeNpOzLIuX+6m71/8wVO/8T3cetv/gwsX9B076BpP4k8tymoIjJfGKisWcJItUpfuye1aWir8xYzmnD4kSdYf/MWzCxUEAe/9iA35nrozY9vMh8znYw8eZDeV9ww/fJp80PaGOgfo3ymnxSLj6L6r8YqJVbWUskvZ5kGnDUkeJwZ36rpah/wdBQIav2oDVT8+IqAxeDt01Mhc4BN4ZE7v84VLkeSCy2jPive1od2sYahR/bB2SEodmc/bHGhBpwxOHxo1Z3Kn2bBnpllMFl1LnEps3LRTIGLHGlUOxstxnuMzY6IY+pBn6a6lalY9n3gYzzywU+z+rxjY3EJuBRvLakFZzw+TcB74igmdeDrEdJatdmQeoc1niRNMNYSp4YlaczKwhKOPXqKL//4O7niJ1/F1e94CxRtGDchmne5Gw0eOH6WztNDeJsnMW5cVoQBbD5iSdVQ2XeE/As24b0LWXXzRb1ClKVteUP/Hd/gwT//MB27z3Kt6aBQ3+qEatSoVKfUWvU9GIPzEEVkAZpwr7PGkGQV6d7UsLjQzeD5hEff9dd0fubrXPvffp72zSunsL4OhyM1Kal34Z5lmmt2UA9KNv/ENP+u9t4Lgyq128xUA7+16xY3Q/epFPbct5MVcTtpFDI70nHb5ImtZfjx/U3PzJlZ9HflAePCN2XY+6FPsvuvPsGyoZQrc30U0ogqHldLmfC17JYwbIc1ltQZLCGIbK3FWYNL03og13tPLnEsxrDEdnHubML2X/oT2l55I7f98TvxCwrT31zjSdIqadROOiEwl4YQM+OToKaxRGMgNTz45x9iRdUS5X32LAzXVuI9o8u7Wfq6l0O+KaAylePqoLJzH1995/spPnmYm2wH7eRIK6H848KOrQexalfCuFO2Nr6K8fVroC01rKjmWGpzHPo/3+I/H3iC2373F+l4xY2hIe3pPPdE5rh59PQXee7yhAetWbOMqLOYVUxDacoYT85ahvccgqTpCTlDD7rk/BhjB0+Qs55yVBn3iiI4uONR6mWS6S6znuMM7D9OruJwJlToagZ8lcKqJeOXdanl+lo3lMkKvE9jUMXUCuv+gpfHZ613s78iFmAkYWjXgcYArc2VDW8w3oP1dJ4bhTPn6uvfikbGdlZBv3DzL/kygDXffVhKk73HGHMZL8AYDIY4ip/BtArT1Fbrs381WvxNq+lftcM54vjGr7+Xve/7GDecN1xh28A4XBYgMLYWNIGcifClBDPm8KMpftSFV8nhKi5Upp0nshZrTX0dq9azjBzXDhpOfeCTfPINv0z1wPHGus/XAncKAw/soLsCjeBSgwdSEhbGBY7v3BXO1fkUUJko8Zz+16/w1V/9U9Y9dZ4tFImNrw+a6k3tDmHCPSSBZKQKY9m5MuZIR0q4UhVfdVifddk0Fix466nalKK3bKsU6fzSo/zHT7+LwXt2cEGyycVEOfBZ1wVD08s0vbjgFcIs4Xeh31/2mniz8Q6Dn/B5l/cKt/YZev6WYfTQCWJjwz43F66r9Z7iqQEYHJvGglpgAGPh7Cjb3/N37Pr//he3DESstkUwhmqtbFK7fxuDNaFrcFpJScsJruyojFZwpRRfTkO5JTse3tcq9AaHJbUpnQ5uqBbJ/ftDfP5Nv4E5dG6ajTjZsfa1Z28IXIVmlvCVC4J101scDz8FX9pOIZ/H4fCk9W0eLo2x4WdfDwtyTc/jyzyBPFB2DN6znX9/y29z5ZNnucq3k/eQRtm21c71WrtN048sjbHII2ND1yBj69eIJzSwGOvZ4Aps3D/MPW//I459+AswUib1jWMt8lynTBWR+cJCfsNKelYvJT16NutTbkIrUM5w8qHHYKwKhTBmxYw0IHgY3nucgWNnWFVcwGQte/279sKoh8J0l1Z7MoeKiX9sD7lqLdgQyjjWGIaKFtatpD5jzkUf5o31sc9UnfmiLhHgYZYaf5obaR/fS+nwcYh76wXfkIzdWG6KZ4UtMPjEU3Rfv2b8Wl3uytWWF8GJ6gijAyemvmHGUMCwqmcReWw9ANH8QSM+4cj5M9n0JPYyFxHSnod8xGaSZ6jFLQueAMbbLAm70fTsp7q/a5+aghlL+PTP/zZXf3k/HbkeYpsFJ71r9OVPUsoWDg33k1+8kM03baNn8Qpoaw9pB+UyjA1zpv8Me3Y+hu8/xxXdC8j7EIwLFb5qyFowhqtNN0MPn+Yzv/jfeOO//WOYRWI+Fraza2XHl+7mykumAniiKOLwjsdYUyGMqzEfpZbd/3IHe3/1/+d5bX20RRGjlTFy+VDJC63ZltQ5TowMMNwZsW7LZlat2wBxAdqKUKlAZZihc/3s2fUk/QcOs7qrjwVRER+FimrtFmSsZWG+yEuOpPzLG3+Nt37u74lv3nRZzXzHKiP4kUEwrh5wGHeKeTPJwNSeNEnoau9gVbEXm2XSTDw3h33CsfP9JITgYfj8775OHoi6OlheG3tjuveRxw/iz5zDEWfXmWHiPOcWyJ8b5sTd32DZG17x9N67Ko77//vfM/rRr/D8XB8Vm0CaQPYcsYYQVANG0ypHRwegq52Vm9fQt2QJxUI7cVsblZFRSuUSx08c49TBQ7SPlVnc3kUhyoOxOB8yCo0J4xddaTrofvQsd/zS7/IDn/wrKNjWsjoI4exwx/XZ+d3iB12O4ZTP/M6f8cJShCt4XK2rnTekxtNz1TrsW14RamTNZZqLjR3T/OOqg73H+cIv/B4vGuzExp6KTbIAvauH7a03pGnCQLXM2aRMtaNAXMhjLbgkJS1XcGNllsZt9LZ1Yb3BGUeaXbQWh7Oe7tRwy1gbO9/xfk6fO8X1v/bmmd1XIvOYgioi80C9nT5n6V65gqHDZyhGEc6FTA5jIT0xBEMV6M3PTLkgq0sUTvTTxvhnfWO9IuKzJdh3HG5aMc3FNlXpDez75sN0VC0+pj44X+o9lb48rFiYBQIuM1Xb1LJVLtzEqXVGacG4xbqJPwCyLW+qCUxrwN9LrYYJq1Dad4zuiiWN02w5LiuzN5qcrDG0O8OxHU/Q/YaXZRVk0/iwy1q/7E15eM1H/gzOjIG/nMdOU9OXNXC8nx2//Acst0WcCQVFlx144wx9N17N+nf9HJgqWcn0clYuKBhY3nf5759RPhR8fe1fadNV4EOa/VTPA+8w3vLg7/0NV9+1l+5cvn7xGkJFJSGlVCqxYEEvS1/9Klb/6G2waQEs6gJrsqFBfP2kWZTCoiOjsO8UfOFejn3i84wMDdHd3oW32VgjHryFDnLctn2Qu37593n5+38XuuLx0zfPBx44X2L4kacwuVoXE5i4Ed4YUlLc6X44fg6/thtjn9muZFPm4anP30XlN/+R6zoXYrNrPJ/PhWcLUPWexDnWv+gWVv3E98N1y2FFd5iCdYIu4IazJdh7Gh44gPv7f2PXwZ309SwIAQ8IFXAgzVl+1Czhrt/8I27/yJ/CmsXZze8iU770tvGGT/0tnBtt/Oxyuu7V7q17D/HoO97Lko5iPeumaTew8Nbr2fBrb4MonWL2mg8Btb6uy/2DSTkfngPl+x4hP1zCR+3U8tYmY1I48fAulv3oK0LLwSwLz1vHmU/dzegnv8l1+V7KthLCE96FZ6mxVBPP8Ogwq9asYsmrX8raV94Ma7tgWSe0xfXnR96HV/dohc0nz8OTJ+FLD3Lyzq/Tf+IUC7q6sM5keWKOhAqLEo9/4DAP/91Huf7tb8bFLaTcZ0FCl3W1HF+IaG59mJ7aoL5Dn7+H5TuPQ66D0FwBxofMqRPlIW5++y+H52s9rZOJ31x8O/ad5J9/+Od58XAxdCvyHlvvL+qJfESpmmLxrLj5Opb90EvZeNUVsLoXcnEYByhJoZzA+TF44jg8uIuBr3yVo0eP0NnZReoSctZiPfjIAwlXd/XR/95/44mVy9ny+lfiLXjnsZNMPS/yXKGgish8YmDRzds4ed/DtDs3birc7lIKg8NgOmtvnfay8DD80C4WFDsnL2YYQ364xNB9D9F144oZGYTUA66ScO7AQRbVKs4mrIx3jkVrV0PX0zS47LNMLbP4+MNPsMxcekqZMI6J4fgDj3DVWAo5O/X9XXt/DGxYBuunvMrBrhxD1rHCe2xWwbU+5HGkGM4tKtL7vCumPr1vrf52uePzzHUevDckdz7I6U/cyepcdzZuSpbpRRZfieDKN9wO7/opWNETKpA5M6F2Yhr7MgJWF2HVWnjJWla89ZXwP/6FM5/8GmnRNA1qm8VP8jmW3P0oY994iPbvv+Xp3AMzwwD7D2P7h4mjnmzspQtPkNR4LBCfH2X0a/dSXH/7072m02OA02X2//HHuCZuJ5+6MJtclgVojYFqwsJt6+l418/AbZsbA4VeajyFhW3QtwpuWoX9yRey5YNfYN/7P0qHNWF6kixekXpHEltWHxzm4T/5ENd/4LchusSF6IHNS8afp5cbFU9g1I8y4hLSLMBYb6zIsiDPLO2g96blrc22FWrKTd9P/SNM2Ckc/uaDLPIRtU52F9sl3lpO3bcTBsuwsMBs38SMh+Gjp3jwj/6OLb5A2YZpxa2xIQAcGZJqgu8ssOkXfxL+39dCXzZVfdMYvrVyQujqY0KgZe0SWLMEXnkNS9/+Iyz9n5/h5D9/Ee8sPgJfy0iyhgWFdk784x3w6tuxG5ZOqbfM06F+FLyHM2Pc9/cf47p8Fz57hMY+hFYqqWPRxnVw+61TbgvAAxV49B/+lRcMF0JmVfZMDGW3kAmTJAlLr9tI7r++BW5d36j1jR/5OFvpHrh2Gfz4DfQcew09H/4CJ/7nZ0hI66e2a/qz7lyBvX/wD2zadCXR9evHlUdFnovmcQdgkeeQ5jL9LdsY8VWstbXnJh5YMObwB440nnozUb7ycOo7T9JmYibJqcZ7Rx85BvYcnJl+tVlh2w0OM3ziFLlam32t8GUMK553bSjY1+p8z4bK8NOg3thehaM7nqT9sjJGID3RDweOhzSE6RxjC0TZx3yXVwh0eIiywYVNmvVDDy1xtayjWt0lNdmJE03xFXNh4XIe8x5MYvjGn3+IzdVCfT8Z57FJSuwNJ3yJVX/06/DeX4LVPRAnkPfUZvmetIE+9Kpq7LdNffBnv8Sid76Bs+fOhmBN1l3Ce4/zjr5yxJf+8ANwtjr72WAzzQP7T7J8JMxsUzvjJr5qndH60ogzO3cz706iFPZ/9DOsPzBEDnCRBWOx1mKcY3h4mMLt30PHv/wJvHhzaE234L7bNVOL4MVAr4W3/yDrP/sXHIkq2NSADZlm1gPOs8DlOP/Vh2H32XplcFIRF2ZkXMZ17rNzN4k81kYYE+FNLQPCg/WkPiWt33taeMWEkVinWsFvuqcawJ0f4uijT9AR56n1+vGEwOjEVxxFlPcfh9MDT89z0MOZD3yGFecSir42/lMUQj/GYJMqZ3tjrvj4++A3fwwWtTWOQ7ZfmnsxmdqAN7Ft3I9zHtb1wLt/hqXvfhtJaRTrQjafdz4LEBt6+xM++yt/AAPpJCv6DPJNsTXvOfA3/0LnrpPZL8KAsQawLmGgHdb92W+XJVbBAAAgAElEQVRDdzylcybJuq6Nfv7bHPzYF+mI25oyd0OBMHKe04PnWPZbbyL3iffAC9eHYGHteNSetc3ZMYZwDGLgiiL85utYdu//ptzXTdmlpM7VO9emBiJjWD0EX/yd98FQOu9ufyIzTUEVkfmg+cG3tBuXCzMNNE3aQE+U4+zBwzNSuPJA6oGyp3DoLG2Yi7ZCdJiIE0/shvIMVJ2y7JjcqQEq54aJs1R6YwzOhUyVJZuvfAanwJ3fPMDZCu7keXLRd5+b0hpD90jCyEOPNZoXzRROsIlBmCzT+ru9QgEvfJPlKo3/3EvUu6bi2RaPMwZ47CjRgdN0RQV80+C9uVyOU77C9b/xNviRW6GDcCyNHZf+PuluDdGSxr8jQj+Pt7+Orb/xNs6WRrBpuP6tCTkAOWIWHjrP0Bfuqc0UPn+kcPChx+iL2y95jhjCLiyamCOP7ILBytO1hjPj1AiPfPzz9BpDalISQheO1DmGjWPpK19Iz39/B/RQD2Rf3kXTdBZZQteYbYu56a9/n6O2TOSyrhG1TETvWVrybH/P+y8jy8OM+3J5wo3INd3CTNPPG/+fhol/3srHeYjODFI9c57IUx98+6Jv957VlRgOnax31Zs1DgZ27OLQR7/AQlOoN+YYY8PQri7leNFw7V/+HmxbRugz3PS6lHH7yoTgVBH4qZex/K0/wNmxISIMkbVZw4uhaNspPnQA9hydja1tXdPpaY8OsutTd3JFoRMXhe7LkAXJ8HRdvxGuXjHlw2bDIDM88pHPsYWu+gQFhpA5hDGcjBOuec+vwNt+ELr9pFNRX9Ao1XSsvIW0DVgCGz72p0Srl1L1jWnlTWjzoIOYzkcPM3rXN6e2ESLPQvOtqCPy3FXLre8rYjvb65WcWjnXeDjxxN4w12XtF9MQ4Rl5cjfm6FmirPW5pjG0hic2hrETZ2Fs2sXShtMjdEahWbQ2WKfxkOQsrF89IWVVLktWCOaBx8kNjOGcG/fLJDZExQL4psGBgYU+z9kn9jel2U/zxJqsyX/iq3nNfK360xhbwGdjM1yqUftyPNsa1nziOfWJ/6RnLJvO2DR2ZyWtUrzlKnjrD4RKbi1P3ITmygv3xcSLy4z/lSUEZn7uBykvW0A5qWZxsMaAx2ttkcc/exdULvKRc1UJDm5/nLZ8I9sHH26tuY4ilQkzXuSJGTt2BoYrc38bfdPXHbsp7DtFYmlMTZzN+nHaVul455thCY2SYlNGxSU/e+L3AO0WXn4NV73phxirVrHOhKwzE7qPdaWW/m/sYHDcveYippgJUhsvymVPk0YDvRn/xonLmMprumqn2ROH6cu1h0zUpmd8krNE+VzWmNIICS02ec48+hR4JtzTZ44PUQAOf/4eFpY8MWGA1drgw8bElL3jure/CV54VSOgMpmJP7/Y9WKAgse+/XWkS3pJnAMXZmcKty7PlnwPe++4G9KZm816ZnhIPHv+/KMsGUiIsdl4M+F5ZrzhdN6z5m0/Dp1T/3QLcK5KefchuonDSG0mzPTjPZS9o3jzFnjrD+A7YdJszEmetROzpqwHnwO29nHFH7+TE66Ey2YDs4RgqDeGdbSz8+P/ASUufQ8QeZZTUEVkPjHAgnY6ly2hmiSkadpodfOe0zt3hwcb02t5M6GERv/ju0mHS1nXm9rnNlYFkwKetpKHI+emN6ZKc6X6YD/tNgodPrLxVCww2B7Bwp7xY2A822rGs8bjnefEvTtpKzmMqc8tg08c6ZJuFr/2dkYr5WxmjPD7DvKcemJfa93KJlY4ZriCcpE4zHNWeaTEk/9+D4tNHu8cvjZ9snGcGj3H2je/JmSY1Ey2r80kv5zsOEJIIb+inRve/auctS6cM1lly5uUXOpJdh2FIyONv51rB2tcJSALlpweIz12ltSl9UFqLZZzlRILX/dqzsU+G0M4/Bc5S8eYgScPPSOb0BIHh7/5HdZFXXhsGDgzC0CUXcL6770Zrll60TFjJzXZOdKsHYo//VqORSlR1t/MYzDGkiNHX9pO+q0nL31Rf7dlXGLdLL4RpvfNzfK1XBXT+vk5cV1aeS45OP3tRyn6GNf8BPeQrOhlyYtvZahchiy04ABjLbvu+w44sLOQElY/FBUYvOM+eood2Z4KvzF4fOpJVy6EN75y/AxYk937J7rUz2MDaxay7Rd+muF6hmQt66hK3nn23vkNOF2a9nZOywXnjOfk9ic4+JF/Z3laAFe7tjzWWayNWHz7C+C2ba0tzgPf3E77WJXUQho3r4LhnElZ/5bXQfckwcMpPH/rxT5r4La1PP9n38hAeYyshJhNPu3IOUN5x354YO9l7BuRZy8FVUTmiVrLPIWYFRvWkriUOCtExQ5i5/H9A3Dq/PQfZB5I4Oz2Jyi05UNhszYNK6EFIzXUH6zRWJmRr357xh6gRx5+hLyJmoqVBu8NI4s7oT0/Mwt5jvHO4UtVDn7tPhZF+Wz64cBElrGrroDbrudIZYTYWJw12XSKnvLRkzCaTjszRGaRg+qJs4wdO0WMqafnRz5cr8OLu2DL+hk/fsYbeNVNJOuW4RNL6kOqnAecdxTOj9D/b/85/o/mUiRskqw3960Hic4MEBlbHyTU4xnoysH33cToNatJ07ReRU+Np815zn7zoUbq4FzZvolq25vC8UeepCvO1yvjqQmvgYJl8etfjc+bySu807F2ISte/3LKlRLWZwNOGwM4FuRynPriQyElaEaXO4cPSHNlNnWcuXcnHUTj1raSJoxsWQ0/8goGOwvZdMUmDDqdppSeOghnStmAyjOnNledBdIdu1h0bIh4kkVUqmV63/AyWHTp7nItMcDt38PpXIqzNsy4ld3bUiDefwJ3346507bigarh+F98nNUdvdkdorFXrPOcrI6y4s2vy7pgMuXWAe9hdM9B8qkDa7A+vGKXZZBsWA4vvB4I1/O0mTCGD7/w44wt78U6X19t40OXo55SyrG7vn55gTSRZykFVUTmifrzyUDvLddz2qZ4a0kNJBacNUQjZdh3MEsznebSSjC0cx9xPs5a+MAYQ5pN4xz5xvOyM4FzDz8xM+VWD9Xdh2kjzD4RphqOqCaOvnWroK2VqRkEE+HODjB49AT5yOKMI8kOYIpnzQtvhrXLSBZ2kyShYuy8x/mUaGgMHnx0mueUzLb28yMUMJDdFyC7JNOUdFkfLFs482VcA7TD1a96CWPlMsbFoX5oII0jenzEiQd24LNzaka7TMw0E7pQnHlsN73OkkaNdl4PFFYugq2rWbptI2kaav7ehPSOTmc4/eBjeOfn7vZB6CaS1UjTgWGibEyMiBCAy2GoFPNw87Wzs/wCrP75n4A4IkyODvgEn7V4F546BEOlORsDmTUOSsfOUtl7gnxT90aMweFZ8fzr4Or1VDsK4HyYath7jDVEg6Ow8/EZn1W5NgYvCez4j7vJlepHrImnrS1m4WtfClMbb/XyLe+ge80KqIbp4uuzjVnDClvg3ON75sblll1Xp+5+gOhL2+n0Ec54nHX47Gwv+YSO13wPXLs2/E0LWZoGGD58nDhpdMUBS5LV6AqrszFtmLnh56zxsCzPihfdxEhSboxPFH7JwjTi9P07wtTMNXM4likyGxRUEZmPrt1CpS0G54h8PbGErnLKwO794T3TKWUYoJwQHeknjsJAlt57vPdEcYxty2NSF/rcGmg3MYcf2EF1YGRa6dMeoJqQnOqnYCKg0UUldY4F12YzUMiUGQ/5Q6cplJLQF9q7+gMg9Z72m2+AtQtYeP2WejeuiNBSXax6jn7pW/XPkTnIgz1+lrZJHuseKHR3TX3azssVQ9u1mziUjIZWdJ/1GnGOdizHH3+K9MzA3JwFqKng71OHLSfse2A7C+ICPknruys2lo41K2CBYf2rXwFxCB7VrqVC6jjz6C4Gj52c8/3SjPcwVMINjYAJg5DXshKM82FAzbg5KjeDLLCij6GFnbim/qIeh/UplVP9nNj++Jzdd7MiO1fOPfQ4frSMJczs5wj35iiK6Lv5WlgY07V2JT5NQ5YPYe6dJRU4s71pMPGZXC+A4ZTT395BweYuuH0kBszKhbBm0cwuu1lHzIKVy6imKQZbnwzbAJ3ecv5g06yHz7SBMg+852/ojdqyDKysa1kts7dYYO17fqO1abuhPkbQ+T0H6zMwkYVWHJayT1m0ae3Ml5OMgxiWXnMVg2mVyJt6z0CLIWcsQ4eOwcmmTOm5HFwWmQUKqojMR6sXEy/sxmaPNetDf+pek2f0+Onpf74Djp2hdyjJBj8zGG8ZdSnLbruJjudvpVpJs6U7Ygyl0+epHD/b+jKzwsLIviOMHT9Lzpumgek8aeQprF+umX9a5T1jO/fSk6t1/QmztFgsQx0R9BahHRZt20BaqYbKsTFgDZ0u5vT2p2ZmhieZNWPHz9BeaAst2ECtVOuw2GLb7D7xb9hMtHoh3rl65C0yETER0WhCPJzMeEv6jMgK/t6E8SkYSRg6coKcsUS2nuROOU1YfeO2MIvGVetJ46jeam+MJW9j8mMJyb7jIRVkLlYowqaEbiL9g1QHh/EmhFNqhybFExfboZDVjWajnt4G3c+/impSrf88zHrscZUK5QPH504l+ekQej9R3rmfNhtnxyKM15PiiZf1wbrl0A59m9ZQxWGsqYcWeslx9sn9jUHqZ3K9PNA/xOiuQ+Rs4+EbJpkxVC2wbopj70xVZFh41TpGYw/eY7PBXgFiDOcPHofqd/mM2Zb1hT53xz2s3H+eXJzDmzDjlM/6z5SSlMU/+r3QbVu/F2fBGZO60OhBbWyTMNJNFEWUSmMzH5Q0UcicuvpKhvMGqs2juISiQlRJ4fxY+OFcvNeLzDIFVUTmo+6IziuWhFTzLP3TAu025tRTB0LaynR4GHp0F13VkN7uAWsiRnMWbr+NsW2rKKVu3EjxnVEBDpyc3sM08QztO4Y/P0rka0XGUFqJOwp0b9s49yoq84bj5Dd30O5NVvwyoT+087hVC6GnCBZWfs+NuCjCZBkH3nnafczpJ/bhTpxRYWkuK5cbdZssg602IOfQwODsVlQXd9B71WqMa0xd67PW9PbUwumh+lvn2ilUTyoxwIGT5EsJxhqcqc2EZRhwFTquvSpk+7RBbtWyMCOJb57mNUd1535qN6k5tZ2+8cUbD5WUKA33Vt+UfuatoZxU6jM2zfgpY4DI03H9RsbGSvhsVrlwlhracjnGnjow8wGCuc7ByEO76Gxvqx8P4w2JBbNuaQjm5WDFtk0MplUqaQJZk0NMzNk9h2YnsOCBswN0DieTpimWXUrn1nXhupglznvaNq9lJOdD0JZaDqsntjGlE/2NGcaeCSYbPPZgP/e870MsS/Mhs7cWrPQWb2IqXe20/+Lr6l1zmq/JqfARLNu8gZIN91qXzfxjMcTecnL/odm5fgywainVrrYLfmyAyHkoVScdp0rkuUBBFZH5KAcdVyzLprfLGrq8J8IwcuQ4VKZZGE5h1zcfIBdHjeqBT6nkLdywlcXPu4Yxn+BMfYJDiliqO/ZMb8HW4E72kzeWxIdpYT1hkLS2RQtg1TLdtVrhgbEqQ9ufpIOonv3j8VSThK6Na6E9Cvv2qg2UOkLucOQhjyX20JaAPTGgoNYc1lHsIC1X6oeodqnEHszACJTSWWjBzL7mYOX127AuDG1p6qnpnkLqYNfBC/5kLjGEAOLZe+6nvRIGTzVN3SkGch4WLgj7LwauW0XJhWmkXVaBKkY5So/sHRdsnjOaMmciLBQKxPGFNWGLCS3OQ2P1RIUZFSL09Fx9FTZXGyS3MZtNZAyVPUeh8hypkdUieg7Yd3x8Dx4DVTztV2+AXAjesWENZ5JSGG8sG5rWOQfnRuDkyGRLmN66AeUDh1mWaw/P5NqqGfDeUfEpxSuWNSrxs9LtzcOCbqoGrDFZICH7jffElQRGptuSNI11I8Sb9n34s6w/mRDn4vq9w2S/GzEpm3729bCud5Ibw9R2mDdQWLOC0agxmDA4rHdYPJUz52clqGIA8jniziI+ujBl2DoPgyNZhEnkuUfVE5H5yMCKrZsYqVbCTDzU0j99GKx2sDy9Av1wyrntT2YNU2k2LauHhV2wpguuXElnTyfG23oabnuujTOPTjKl3hS2iRRGH9lNrq2AaZqdJjXgly7QHatVHk4/+hTp6fPkvM+m2g3TVad4+l50I0RZWaiznZG+DkhDgT21YXrcJYUi/d/aCf651oQ8jyxewIhxpGTZ+D6r/FjD2PkBOH1mdrpzEBa4YMuVlPFh1ANvcEmV0ugIbTYHI77RnWCOlbnrDavecuqbO1lADtM0jpT3nvIVC2HF4noXmp4taxmrlEM2jjF4DwVvqezYA7MQu5pJBqC7k1xHO25CBSjxDl9N4OGdtaSSGV62B+swG5eTa4tDUAoop46hsTE8lu5KboamLZkHsmvCPbqHrnNj9S4dxoeW/7GxUTqed3XjvSsX41csJE59Nvipw1pLYSxh9I6vNE68mThu2bqNHD3JApsjMo0HcAgaGJI0hc72cMOZpZPeWgvd3fjIYowh9o1uL9454sRB+Rnq/+MBl8LuIzz1qTtYEeVIsy52hjDzWg7DUM7AG19c/5Pp3ofzWzfjI5t1mwvZyolJwr3q0EnYfWx6C5iMB3IxbR1FcpMc63wcw8mT9e6UcyuqLDL7VEURmZc8ufWrOV4eqbfa1KZOjUZLcO93uHCU/ik4cpzKybPENs5KAI7UO9qWLQxpyEv76Nm4loptylRxhviRg6GFsZXCVWjgZnjPIXK5XBjfAMA5SmlK1zWbwc7tysqc5aC0Yw+mnNS7/ZjQPZ18W4Hua7c2UpiLEd1bNlBOqlnB0GGMI+fg3Pbd4DSozZy1ZimjWReg5tZcYwwrRxyVR57EpzN7BdV7BFhg0ULKYyXswBiRh57nbWP1b7+Nq/71ffBzL8v+gDlZ2DYeKmcHOf3IU3TaXPhhNm6ESx2Lrr4SuqIQXI6g7YarqdZaqY3FGMh5yB87D4dPzdkBnU0WFKI3j13SB1nQqMZay6KSZ/uH/w9pMtOT9BIWbgws6CCKY9xAFTvi6F19BVf+wutZ/cHfZe3H/wC6ZnzBc1fieerr9+OGx+qTKYfp6w1Va0hXL2lcM8u7WXLNZqqukW0Ino6K5+j9O8N7asd4urI0iPLoGJG145JQvfNYa0i8IykWGtf1LFzfYRyePFUb7mneZAFjgKxhgEppZhd6mZz3pA4e+v2/Y9XpKpUJQUoDnEzL3PhL/w+s7gXb6J453uVfaSYBbtpC0tmOrSa4NA33omoV0pT2MyMMfPW+6W3YxcSWai6iMiEl2RMyVUZP92fdIUWee2axF6SIzBprYPEC0p4CxoM1oZnIY8iVPP0799D3wy9o7bM9+L3H6Oov44shK8FgGPMJy7dtCncNC/HWNYw8sZceG2eVN0d6bggOH4eNKxqfd7lP12ywvsrJ81ibTSnpQ+mwQkrxqisgavq4WclNf5ZyMPbQPnraOrIiuMl2tyFetgDWLIZcVuGKoWvrWgY/ey9t7TEQ4T3kjGfg8T0wUobugkpNc40FlvaSW9COc2FQ2DB+RghOLjVt7PjUl7j5tS9pDCrZfP1M93h6YOtKNvz9b8Gm9bCoD3raw/gB2XgQc1aWPVPZfRgGSpi2Agku1P8Jd9Ztr3lZdv/JBsjcsIyOrq5QwTFhbFoLRBXH7i9/nY3rXje3BtWuHWtDqJVa6Fm1nHT7YeI4DvcEH1r+u4nYd9/jcOAUZsOyxmfM1D3XGGiPWfO+X4WFi2DFUuhuhy4b9lmemb2/GANuYr/UppQpU2taf4Zqg2XHiXt3sjEXNtxkAyJVSViwbgX5Tasa/Uhyhp4t6+CuRzBEOAOpg05y7L7/EdaeHSK3sKuxidD6NmW7JC2VQxdC0+hs4rPITeodSdyYLGo2eMBksxDWT8FaIwAmDKo+OAYsmL2VuAhrLDy8h8F7H2drXKS2Z2x2KkVE2M1L4K231xuFDIw7JlNtALMR0GNZum0jg//2LYyNiVb3UbzhOhZv28jSm7fCtjUztYlAtt4GKFUYPT+AmXgzyI5FceEislGMZ3T5IvOBMlVE5qs1y+lafwU+deEBZwzeQAc5+ne3MFCZB5+VmUYOnWR5XMThsrKc4bxJWbBlQz3Nt+u6TZR8Us96cGmKr1bZ97X7IW0qnF5uIdwDAyWK50pNgRODsZaxtArLui8cKE/P7YuYsJ8cjD5+iNg0zd6AoWIM0frl0GYbf2dgyQtvpK1QIPWe1IfgS+SB0/0MPnVAway5anEPV976PEZcVtOnVsT3RA7K2/fAV3aGCklzJXM611GtZdoCC9vhx14Ez1sJa9uhDygytwMqNOrTbtehMOB2lgMAQJJiowhuuLoxJbUFlvSwcOuVlH06rsJuMfR/5/Fs0NA5dKFkx6m+RpFnwwtu4Vy1ik89xoc5RKwN4zJckevk2P/+4qRjZE3rtlv7Y2vgNbfAi9fDxg5YZqGDMNXsTM4kc9HPmdgP7Rl6mHgPp88zsHMPNp8PM7lkqQxlHH1b1od9Ujt2Max42QtJLYQIVHjuR97gz4/hTpzLNm36557zIbhTGc0GFDb+gjPaeyCe5apEti21DI/6kTPZeEapg7Hy7K7DpOsFfqTC/e/+AMuqNkyqV2+28DgHp9MSW970WuimHqSdNuMhD6t/7afY8FfvYv2XPsSa//hHFv/df4VffwO89GpY3jkTSxrHA4yVYKyCvSBo4nHWwMI+BVTkOUtBFZF5yHsPXTm6N64lTZLQ/z9rRWrHcvyx3aSDo1Mv01sggT0PPkxHlIO4UQkfaY9h3cpG3u21mzk3Oox3IfCSs5aCjRh+bF+j38GUNgo4cITuoUrWj9/jvcN5hytEsH55aA6W7843ffVABfInz5HLheTErNc+o65K1/VX1Z8ExphQTt96Ja4tDmP1GBozC1Th5IOPPbemO50vDPh8xBWvfgXDcYwnwhlbj3l471lR8vznH/4POFcKx7qeQz9DQgf/+vrMB77pm5HtuylGEca7ejtsnIthUS/0dYzfphiK126knAWZa++P4ojBHbthYJS5uBNqreQ+MnD9Fk7GjpyJqc2yZgykxtGL5cAHP0P/t3aMv95nLFuFEGybGECZe7tsdhkDZwfpODuMiSze1EZHg1JsWfC8a8e/3wJrljEUp41EFGOw1tJhY9I9R7IA2vR3ZO3zy2OlbDabyVnzNPbLnbBZIUt3skykWVR7rjrY87mvkH7rCfpsntQ4XFYOc1lGWLp5BbzxZTNb28oyzXj+Ovi5l8ALF8H6GHqAdmalD0L9UTE6BpULp1ryZMMg9fXO/MJF5gkFVUTmIQ8QQdeGVWGQxNRhs0JPDkty+hz0D0/xA7OvCQwfOEouiknxJKFGRseqZbBpXciIwcHiImlnG84YnAsjq+RtxPBTh6CUNPJcL7ds5+DMY7vJJ74eVMGFNp+4uxO/vA+sblmXpTlLKIVzd95D1/mx0LKW/c4CI6US+Ws2Xlip6bR0b1mH8xC5kMqMh4LJke7c/9yb7nS+8MCrX0BlYScuIRswNhw/awydKSw9PsR9v/N+KIUp0f3EBvvpmoUxFWZTfXVTGLp/FwVjwfvQFQbP+aTC6OaVjYpK072y7dYbGa5WsjFsDElkSCPoPleBodL4988V2fE2AJuWsfV1L8NVw0xuzljSbPrXyMGVpo0d7/4rODNSGw09fMSMHd+5tnOeASkMPfIkV8ad1GdwcQ68ZzQHvOiW+ltrgS+6C0TrlpD6tJ6Q4vEsiAuM3rtzxhJwjAnpMdWx0riZsCbyvnYjmR0hAJw1BZgJI+Ka8b+fTb7+v+xrGU7/9adZ2t1NlueFy2YN8xicd2z7jbeFbL0Z7c52kZ8138tnY3d44MgxTCmMtzbxkCfOQVsOXdfyXKUaisg8ZE1oqVh2262ULThr8P7/svfmcXpkVf3/+9yqZ+u9O93pTiedtbNPMluYIQjD5k8ERHABWWQTfqigbCoi8FUWRURFUFFHROErKLIIyL4IDMw+w2SSTDLJZE9n6SS9b89Wdc/3j1vP0tmmk+lOujv1fr0q3ennqXqq6rl177nnnvM5IYKr0uP5CbyBKZZXrBqERYDjAwTDI2jCc4aCcUJwNSs6odYZNCICC5tYvn4N+bCIeoYQZ9wkek7DeJVo3FSNLQsHf7oTjHGrPWJRIxREWbR6OVKTuqwAmGuR8h0XwMKh+7fhFQM8Y8qvWRRbk4LlHec6VQykt6xjIpfDo1LC0vcTjO2OnSqzFStAAzzpxc9hvDjuUttxk2AFVISOgof56r08+JFPQSCzVlD1ihIq9PbTcHSABirRPV5UFrpx3cpK+kX1s9K9hFEbVPQFrIK1tI5agj0HqwQUZg+TqnKkoPMNLyOvIV4UceiSf6JOILCs2T3GV17xZjjZX95v+i5plt2cq4HCkR17qJVKeIE1Bovi1dZAU83kQkiqkDZ465ZSKAaTfAkJhVPbd09bJKEpT9RnR2iitZYwCAiCkCAICYOQMHQb4cwPSpNaa6g8/M//zopHB6mxBiHEaIgoFK0FCyObFsMtG6Z/plW22S4jzfqJIDC8fQ/teVBjzvFjmXQS6qbbgxQTM3eInSoxMXMRjYRMFreRVUVUUeOjGGxoaRKP4u4jUxtoy0a2EoZKeO8jcGoUKyFGnF6AUWXZTddFq7Xi5tQpoePGDYzZAMIiIgGWkNaxEIazpROd+viaVU4/9CjqRdehYFTIeULHU24E4g5rqpTKXKsqDOfo+dFPkVSasKpBhBrS0tUKK9vO/Y4E0uuWULTF6HggqviENB/pc3oRWo6AjhemZgle6Z83voSx7jakUESxrnR2tHoqwCKTQf/hWzz04X9132V19LwyecXzmkDo+eGD5PJZQsV5l9UJSObDkLot3ZWqHe7tbluQxG+sIfNm5oEAACAASURBVIxunmBJik9KDLvuuA+Cs7RrZgGTrsED1nTg/cptTGRDJABfXSW5UopgMuFx3WM5vvumD8BYcO4Br8n2cplU36fS72OWMw88Aogrc4/Bx+Ah1HS0QEvK6ZlYQKP8OrU0bF5FoVggkjpBUJLWEh7ohd6B6XPolbyyGOSiI/DMTaTVAg2N1Ha0QJ2PX58k1VRDsqkG05jCW1ADtakZ+/xJlC7z6BBHPvJ5vBo/crYaVAQRgxEfNGT9+98Mzf70Gy5yzi+VPmmmvoaovR7fc4C6RAZFCSXEAgEQIiQ7FsCiekoxVXGXEHOtEc9RYmLmKgKkfYqtddjAIhpNmgQy4jG499BlaKoIfY8eoMUkQRUV8MVjXJTMpnVlvQQnUqbUbr2JfG0KE0VAqEC6qJz40V2X/tnDY9j+YcSYaOrnDJScKGxa694Tj9JTR6PIozODeD19GN9zxnm0Dp0TS8uGlZCW8zpVWL+E0cipUvqTAOlCSOHuB6PUEa28GDM7EKAGbnz373I0P4axXtnJVnpDAmG5yTD+L9/m4T+7HUYDl1l3LUYgqUIRBrY9ipEoKssIGjmhTDJBunvx+a2l1hpW3XoD41G1JQ9FreKrZeTRA5ClUhp+tpKCzve8gczKLsKo7y0968Z4WJSGgqVtWw/f//XfgxPDM5Azdo0Q3dhJkYSHT2JPDoF4lMIErVUmgiKtq5ZBjcGXSh9tAXxh4W23kE6lEBONlSi+gj9R5MzDe8rlkKfzayp90pXGCLAwyZYv/SMd3/sXOr77Cdq/dTsLv3U77d/5Z7b8z+1w/dIrd0JF2PMv/8XGYobQ6DkRGwVRap91M9ywfN7UWFVRGIe+XYdI4qE2iCKHBSOGnA3oWLsKan0scy4LNCZmWpjlo31MTMx5KeUQ16VJr1qMDasXKgSvGDJx4OiUD1eyu0yuwLHtu2gUP0oLMKgKAwmgpWFSuq4agafcQJBOYNQg6gTjbKCcfHhPFM1wCcPq4DD+wFgp8Lw8aQ9TCVi+5NyTjbkw1StZR3ppyapLp1Jn7qgKWV9Y8OynutSHiPJvBuhaSGbhAoKzQr8V2PbN/4XQOdfiQWQWkgCetZkb3/YacrkCGlZn4UXKDBqwNp+g75Nf5953/iWcHL4mLQJVgWzA4LZHSSQTqA3LopxFUZpXLYOVi8/vePShecMqRjRAVJxjWxRjhNE9h+Bgz1W4okvEBxamaP/g73AqzBFap5VgSxVXRMBTujRJ+8Mn+PIvv4ncvY9ECtZX99TnKlL6RyH70C4yo3msuIhTQcEIY0lD69Ytk53Xpf18ge5l+I31qFUXyhFFdqZtgv7755eYuAquzHa7D8vSk7elKXRRyr1+Jc5FgQf2cvDz36bRS1QNtSXHlzJQHKPx9S+sVAubB8+JqsL3HsA/NYIxgjGUbT5CZTxpaHv2U4kq0cfRazHXJNegCRUTMw+QyNBICcmlCwmLpbUBR8oKo7sPwFh2SoNbaU8ZmWBw/xEykRicqGAVCgsboL2lcphSaHEdmPo0CfEAVwHAMwn6H9kPg1MscVg66InTLLJ+JPLmOicDaF0amjJTO1ZMhJaNud4de1mcrAe1kdigYIzHhGfgpo3lVIdJUfwCtDTQuWk9E7Yq5F+dns7gw3uqUgFiy2lWUXo2ayDx+y9h6fOfxtDoZH2lMKr8Y03AzdJA4n/u4z9f/EY4OVLZ/xpZZhQBRnOYI6cQA8ZEE1sgb8Dv7ipVrj0XVZLP2Eq+JhnJTrhwHzVCzVgee+TklZB6uHxK15QAnt3NTR97HyfzowCEQRhN5l3IW4jSGSZ48gn45iv/kFPfubuS+zfdVaTmK2enSlk4s2Mvrfgu3RaLinUi4jUJ2LIpehal/Ewa3E8yQqZ7KaqKhyurbBVqTJrw0Z5yWt98+F7kfNehj/P6DGBDRSzc+/F/Z10+SVErD7daiyrkJGTjc2+Dp613eXSXkgI9W1EwuZCffPRTtIWJsradiRbNRBVZ0gbPutn9f65fb0zMZRI7VWJi5igC4EHzTetA1VVowa0segpmZILsydNVb54CA2NIoehKO+Kq8CQKIY2rl0FtstxhKM6Oxof2Dd3kCoWyrWjEo9hzGo4en9JHWutW2QpnBmiSBCoQikarHUqypRFqXQytzhMjceaJblIRDj+0kzo/SbUiqbVKorkRGlJlnRWdvKdbhb9lE2P+5BvueR7hoZNwpLcqxDx2rMwOzjLga4CP/BZrf+l5jE1M4JL0IkFrQAwUvZDFpHhST5EfvvB32H//zmvPT3bgCIuDBIiUL90AgScsePINF15tNgLrutCGmqj/03KF4K5kHb079uCdZ7dZR8mR9oubuOl9b2MiLOL7fjmkwkaz84JRikGRW7NNHHzLR9n+yS9DgUuLSIxx99UCgXLysUPUJTKIRs7O6F7WLmqDjoby86zlfyrHSN+8jpGwEKWquV0Fgf0n3feCa5NzHj3Pdr7XLosLtF099zUxQu5/H2TsvkdowHdpWdWvi3DatyR/5+VRqfA5Hq5Rpf+T23EAu+swzeqswFIamKcQYFn5nKdCLVUrdMS2Wsw1R+xUiYmZy3jQsPUG/HSybNdaAfEMtlBkdH/PucJ4Z1P994cP01A0hBa0tDyrRVY882a3mhlRXhlKwcLVyxkrTGCwGAVLQEsAnOxz5xNezKhQjBgIoGf3AZJeEjUBrpayoSDCgmWLIVkayGeYyKY9nw13OdvZOMP3CsRll07gTJbBRw5SkJLBDVgIbUBmcTM0JaJaJ5XIoOorSN56PTYheCKYkrNOYXGYKH+/iGDjpanZQfX3UHpGF6Tho69n6QuexXi2AKGQcDWdUJRQXSndGjWsOl3g1Cvex7FvPIDmK+K1c3xqcHECOPDj+8hkXUQGRsoyi/25cdi0nLKn5GxUIQONXR0YteUJbIihBp+Tu/bNjTSMqv6c1z+LFR94EyMTWRSLFC0SOVZUhYTnYUTpyhlG3/Uv7PzTfyYYnXDHUWZEy2PeUGpDpVDMcSV/5Di+gCLlhRG1Sv26ZRAFaIpWKZlUeb8z1y1jNDcBGuLGUsXYAk39E3B6qPJ9PBFmw/coF9jOfu2yD3guJoq8dQsGrlEXRsa59z3/wMpsktBUxnIBJBQKxZDVP/c02NwZ3TYDambHPbxkoodYgbxy8COfY2GqhsC4Xi4Ug4pHIHDYZKl99q3ORoxNgZhrmNipEhMzlxGgsw2pT0Vrzw5rLUnxmNix30mzT5HTD+0mjSlHG1vAJn3qnrH1/CHwVslct4bhlAELngiqlk6T5vjDLq/bmIuMsiXjMoDe3ftIJJKT8scHwhwdmysCuTNjnNhJv02XQ2XSvKJqtfGK2FclW/HR/SSGJtyqkhqsQKiWCVtk4aplkDLnsStL/7GwrotsQgiLQRRB5JwzLX6aoz/dXr51Zk4ajdcQjR6pv30LXa98Hv2jwxgprXy7L1QiZ1nKQlfRY+fr/5gDn/gSJnog5rWdXISTjzxGIpF0TtVSzIkqQdKDtvoL3wARSMCi69aSDwJXDh7jdFVUGNt/DCau5MU8QQSnTfGKZ7D6P/6ckUIWPClrJIhGkTiRg3VVpoGRf/4Gd/zG+2GkSEUQK+ZxUWDvYZJ5CyJRaqa7hXkbsGjdKjdJvVDfKsDaJUwQUirprSiBJ3jZPPu+/E2nb3Gx8fea5vG8MaWOLxr0rDD+9XtJnBwk4/llfbLonYjvMdBWS/MfvQk8Fw06Z1GthAWHsP+L32L4e/fRjF9x/OHsTC0UWPLcp8H1K+eo8ygmZvqIh7+YmLmMAClDcvViilGoack48z2P/NFTk997EYqFIqfv30GdChrNlhUIW+qhrfn8+wuwsZt8QwbUuNU2I9TgMXSwZ0rVRNQq5JVi3yCqGmnwCoiQS3l4KzoJqz97BgduM81bySYrIVGVpBkn+pC++3fQWij5pKLqUEYYSwktP7PF/fW87cI5YajxSXe0Rvn66rQpVUkbj5M797jvNzakZjeirgHUg/9/Xs/GD7yZE9lRJBIaFQ2Rqi8xocL1iUaOfew/ePBdH4N85TDzipKHs+cMfT99FOuVplhuMlW0IYtWr4CFTZOFQs/GQNOqpQwVc0gYTbBQrLV4w1nYdajyeXMBBdLAM9ax9jMfZqK5lnyxiK+KsTrJyeap0O030PrAYb7z4reS3XW4dAPmzOVeNSyc/toPSWfDaP5aqbp0xuZIr1/l3neheb8AixbQ1NlBqLacoSYiJBNJen+6Ewrx93D5RHdOcOG/vUPs+evP0CEpyo2cyltGijk2vvT50JEAeZzFpNlOyShQYCTkxN9+jq7aRrdoVtUeRYSxhbUse/vrXJRbTMw1TuxUiYmZ6/iQWLuErA0oWbPGMySMoXCkt2rie4ElZ3GrKrn+EbKHTlAjXvl9VsAsXwQJc4F9BdoayCzrBAwqbtKOwtDBY5ANLzRrL9ssNgzhWC92YOSs1xUaamDNCiaZhtNoqxgEO56H3hHoH4e+ienf+kejbQI/X+SK5bgHMLjnEO0mjajFqMFTwTOGXH0Krut276s+nepQGhGoEVbeuIlcGIDV8sRaVckePg6nRqP3XplLirkcqiYHzcAbnsumv/oj+n0lCBRzlupHNL9jXTZB/nN38D+veDscH55/KR2lycGRXuqHcqixUftWFCFnhPaN3ZDxyo7qCx5n8zom6tNIUFm9Np5HeiLg5PfuPHsONrspeYNTwLPXsexTH2KkvZ7xYgFfTNlhIlF/r0bpCA3du87wrde+m+IDe+Ei3X5MRKD03vcIDeqXYqPc30NLtjENna2P32aaa1i+5XrGw6L7vwCqqCcM7t4Hpwbn1SN7JSnftyhab9snv0DjkQESResWJyblH4EYpVDru0iv+XDTBRgL+f6b/5glR0bwxVQKfkWm5Gg+y5rfeTmsXFCpdBQTcw0zTyqox8RcY5SM9OhnauUi8mGA+Ck3JVAhIYb0yaEpDfBGIbv/OJov4mUyBOoOXBClbu2yi7hfLWQMS2+5nuL2b4GAZxQRDz09DAdPwo1LLrSz+2zPI9j1GDI0Bl4zJXEYRUl3tkJHE55otAo35Ts0JXwxjB7v4/YXvJZiwpsBvUXFqCUUaM4La4c92sTDzrTQglgIDCcfPcBG45xkEuXsF8KAmq5OWNTizlCqbKHq6xfAh6blnRzKZ+n0U4iLgnZnf2oItj8KS2+Z2WuJeYKIc1CWHp4M8NKtbOhs55HXv5umguCJgaqqNwCqwlpbw8CDJ/nqa/6Q53/8vfjdHfPHcI76zlM79rAoWRc5g92ESREmUobGZ2yt9LNw4YiBpQvJL6jF7y0QKUJh1dIqCXrv38Eiq6iROeNoKPe1AmxZwMavf5L+3/5jzty1jaa6BqwongqKEkqIMYbGMMEzeuCbr3s3W//8rSx8zlMrOlxzyak000TtKX/yDCd27+d6r2GSoz0MLbUrlsCSDveHi907D5puXMexH91HHQZUy2m7NUNZOHEas7x5Zq/nWqC/wMhnvkt3phbxBImqXrky2C76tMbzuedLX+NnX/MCaPDmdnNXhVA4cPt/0vDDHdQlaysWS1QBsCjKsmdvhVc9B5LxIx4TA7FTJSZm7lKywyykNyxlfKIA9bUujDiqBpQZCmAgC0syXHDIU9xru09Sox7WgkYrkkO5Cdpv6I5qG5/vEAYMtG1cwTEposbHQwjFkihYsg8+SuYCThWNcmMEyB4fpC7wML57IUTwPY9Ee5MLRcfpPkz3qC2qtATwwt7E47/58j6Bs0/aXpH4wBB6i/gTIYERnGB/gGDwjEfD6mVuci1TuKVPvp58Sx1+wcMSAgFhAC3G58yOx2j7hVsmO2ZiZhnn+XISwLNXcN0X/4ZTb/4IxceO4qVN5DyN6kF5QqBKk4WbHx3gnle+m/UffSutT95UPsyc/d5LUTchnHl0Py34UYqPYPEwqhTSAjetn+xUOe+BBBp8OjetIuh9FI0EuxFIoYydOEnYN4K0N5b3mu33rHx+pb6qCxb807tY8OF/5/BnvkGiPkWokMDDUx+rSiBgjfKUwQSPvv1v6HvjUTb8zsudlXkxp9S1RtT29PggZiyH39hAiKuApyKoGFpuXAcZKQ/NRLERkxBXQtk842Zyf//vkPfccGwtoYR0kWF4zyEat66N7/tl4Aku5zEb8r/v+TCb+gxao2X1bhe14SScwZUXrtt/htP/+AUW/uFLQZ1Wzqz3pJ7dt0Whiqc+/wMe+/iX2EIdVpSSgFooFmtDvMVtpP/sNeXInNl+mTExV4I4/ScmZq4joItbCRMeYqO8dyIhsSBk+N4HL6ptUorOGH9kP4lkEqziWUWsutLKqzojJdILzCx8YM1KTgfZip6sQGtgOHbnhT+7ZLOgMHjkGM2JtIuCMM4QmcjnWbRmVTmkuXxR0xhaq6XIixnb9JztSlT/sQr57/+E9HgOEwkYlnRpJoICSzeum3rvv2Y5prkOVQgERA1J47GABCe37YJAY5t9LiFV2w0dtP/3hzFbN6DjAWHRPawGg1SFbaWMx7KTY9z1ot/n9FfuJLQKosgcLqWtAuShf/cBPM+bNPE0CsnWZmhKXby/KfVHSVh06w2EOvnZFhEYGsfrHcXoheUxZj0hsCgNf/r/s/jNL8EfV8JAKGjZBQconji59O6JFAN/8Xl2vePjZMezrqOfd6I8l0HlVpG7dzftdQ2gtkp/S1AjLLvlBjeu2qpx8jyIAF0LCVIJ1FoCLIFxY0+dn+LQgzsuSag+poIioII+sJfcl36MSbmqYKWvwuhkgXYVocvLsOu/vgZnRkBM6UCzm6rxwJYcyDuP8ND7/p7rwwyhuGdciNLBBYbaalj8b38ByxbO7QJHMTHTTOxUiYmZi1Rb5wZkYQstnR3OwFUtj3C+VQ7e82BFV+U8I58AWChsf4w0LpS1JExav6CF2u5lbiQ9z1JEKb+W5jrGm2qQaIJtFDIqjB3vhVzx/NdQOpci9O4/SMZLOEcQilrLOCFN61dHVYdmZioiKk5TwgqiZgY2iZIJ3OaM55mfVokk6LnrIdJFixqiz3f02jxm7cqpz+4yULdmKQUbImqwYrDGlVkeP3kasrHVPtcodwM+0Aqdn/xjml7zXAoTRQyeE492cwrXH6iSVuHGZAsPveWvOPBXn3WloOami8AF7yhw6AwyMHrOy3kb0rK+263CTuUSPajbvIGCkXI3q+oqCNXiwa4Dc6O08oUwuH64FhJ/+HLa/+bNjGkBwtBF+Eg0G4vajIeywksz8aUf8MDr30fQN8ycbSvTTbToP/DwY2Q8zznao5fEWop1abhhk2ujJQv9fLdOXZYnGY/arkUuZiq0SCRaawLL2P4eyF6Ba5qPqIEA7vyH/2Bzps2VEvbcEoXFOVEoCbfi0pU9hPrRAgPfvqcSATxXUPeYj965g6/+0hvpHjMYq5EwrYcVg4SW416RTR/8A1jZWH7eoRxQFRNzTRM7VWJi5irVIdVNNSy6fgPj1pX1rAz0MLzvMBT1wuO7AuN5Eif6SYtBxE0MigZa166CxswFT0FK/7TUk+nuApWyhJsvQvZUH/SPXfgaBAhgovdMOcpF1DkeBgpZWNB0bi81rXaKQAjZsSzFXHEGtoBCtkghWyQ/kccGFhvOsOWhkO8f4uRDj1BjfEKxLqkh8rVlG2ugvWXq+jEJWHXLjRSDknPMoOKcb3ZgxGmrxMbUnMIZwFEDiBwrNX/8Wpa/8zVMFAKQSqRKSZzQAilVNlPDmdu/wkN/8FHoz8257758ugLjP7iH1EjORZRUXUcOS2v3cvAnv/+idLRxWopRBTMp75K2cPhH982p+dUF8XDpmL/2VNZ/4s8Yqk9SKEaOlUhjQrEoFh/otAnqfrKXO1/7Xoo7jkSin3OswUwnpTYwUaCw+wg1kd5VeShXGK1JQG26/N6L3i0BUtB13XpGc9ko5cQ6J7pArucU7DsyY5cznwmLIXzxx2Tv3ElGPEQ8bBBiVPDbW8jVpyG0ZSeqRCbWgqKw6x/+EzswHqV0XeULmQKqQBH6v3k/d77xA1xfqKWBxGRb0iqnksqWP/t9eOZmJ2Qd2WaxQyUmxhFrqsTEzHXEDYrp7sWMfT+krjokxTNMHDwBfcNQ23TBFa/RbbtIjgV4CT8KAVVyPmTWL72467Wkc1Lj0b5lE+EDPfh+NBCrksgV4cwYdJ1Vkrl6AB4r4k0U0SjdqPS2sKkG2hecc63TiVXF1qZZ9dZXQX3d9B68THSxRcvJ//sF5Hgf02qBnK01Y4HjA4wdOUGybiE2ipAxKoQoCzaugq5Wd7+nVPbRkupeynCQoy2KZVJxIjs1eYW7HoLVz5m+64mZec7X/BqAt72Q5W1tPPjuD9HuZ0gYQcVVw1ERRBQfy+pikuOfv5Ovn+rlF/7uT6ApU9FdglntQCifWgg99z5Mi/WjmuMuuF8Uhr2A1det5qzCSBc+mgANaehaAD1DLrIvejBr1WN090FXmjp99knMMUrfbwL4+fVsXHY7B9/wDvI9p0lGUTqmSmlCEBaZDIt+eorP/fpbeem/fpjEjasrY8pcvQ+XSzQ0jzx2CHvkFMmaVDmhRAFrQ+o3LIeayc6Wi94oA03dXeynSJ1JldswQM1ontyOvaRvXhYriZ6DVm1n/x0yvcPs+OodrDEZQglBDD5wdHyQm9/5Htr6+jj8vr8j6SUmZVTWWkPD0UEOfu1HdL/y+eDN8luvIFkld/dOfviWD3LbRAYRUGOwajFGCEOh3w+4/uMfgGeum1Q+OXaoxMRUiJ0qMTHzABFIP/k6gn/z0JByqonaEHti0JX0XdZ0/p1DOPHgbmqzIfg+NlpeGbd5ks++uSqh+wJmgQIeLHzSRvr/8dvllW0xQqJgsffvxtzUNfn91f955CBePsTzfKxYVA1GBW9ZC3RUxB1nwiopSkhxaSP6ez9XcTDMlIGQg9N3fI/2Y/0z+CG43OiDp2kySXwVrPNwYVUhDGnetAK3CDW1G6rGIMsX0V8rtLkYc8QawFATGHZ84w42v/o5s8NqrMxlYy7G2fcnCuOWJPDarWxZ9XF2vu4dNOQCUkZBPExU5UKjuJVF4rPgJ4f4wqvexos/8WFob5hb930sy+C+o6z0UlSEQAVRy2ijD2ucwLa7pGjJ+Tz3DXAiRg1JOp60jnDf3W5SbJy4dlp9Bo+coW/3flpv7J5b96iEnPUTnPW4qYaVn/kww2/9IH0/3UWdn0LDEPF8l4ISpUp4vvCzA2m+/tr38JQ/fwvtP78V68m1FyotQAiDO/ZjigGQjJ4nwQqMBwVq1i1yaWecp6nIWb+X+rqt11FsSWMmKEdJKUq7Jjh+33ZWvfrnJjs9z3vwa4lqh0pUMzlCAM8TRr96B/XFkJQIGqmKBCG0Pv82+NnrYDTL8Ef/hdaRPNYYPJHykZoSGfr+43vw0ucjj+uYvUqoS+2RQNjx9/+Xo7d/mWfm6ggNBBIAISZ6isdTwuaPvheeva7cNidxTbelmJgK19yYFhMzb1m3kjCdQKjk+XpG6Kyph+Ex1LoQznMoWoZ3PUoiCVZcPrYnkDMKHa7s7gUHzdLyjAepW2/Ea6qU3hOr1Kph/z0Puj+U42Qrx1OgsHsf6Xw4OdjCWpqWd0Fq5i0Sz/PKhqg78RncZoKzI4As9N27g4a6hqiH17KxJ77H0qdvnVyRYyrHb2/FtjWiYegimbBYLHUYsnuOUBgdj1er5jLiHLNOO8PCbUvY9NkPU7+8CzMueOqhZWGmCkk1PP3BUb784rdQePSo8z3MhXagQN842d4+jLgILo2mt2otbd3LobX5nElo9VRs0mWKgAc1168mVbT4OIdKSZOGbIHCgWPz6hnRUp+2qobGT/wJK57/dPLFPOL5RAko0TjkUoIEy20Dhl1v/yuOf/1HlPW45tE9eVyi6x2/bzvpTAKjISW9K19BPI/WW66fQoRURKnv71qEaW5wJe9xguJWIO0n6DvcA/ni+feLuSD1BUtGXRtWAU8V6lIse+8boBFoy7D8db+A5gvlBRnXhQrpABbu7OHQV78HM53ueylUd14iDA+O8tM3/znFj/43t+TShMaiBIgajCbQomEs6bHmn/4InrfBRajEbScm5oLETpWYmPlCfZJCwnODP05HUglZQJL+HY+6eX11dEJpkWYwy5kHDqDJVDT5Dgk1INXSAM210WxrCiNpU5LRBSmXV6+KtZZMqOT3HUWLwaRJCQDWhSkP7D9MQl3Vn9JrocCSrTdfoVi686xAzzGUqsmsQnHbfjKBK30oKL6Cj1BMJ2FdVCJ7itcsAjQkWXTLDYRBgFhF1U2bPIXi4Ai5x45eW5Oj+Ub1g6kuyoItXbT8xwcYuqGTYi5wgs7n2TFIwM0nQr7z2/8HegcrK+iznT1HqTWG0FPCKM3JE8AYmjevg3TVM3WRIL0yBlqffDPU12A8g1HXv6laajM1jN61jSgnZl4wSWtmYQLzsbey9LdeTP/oBKKuypkARqOUTnHRGGuyCe7/zQ8y8v1tc6OdTCMKUFDGd/eQSKQI8dHouVIgU19HasvmS2sjAtRAy6a1FMKw7L+36ioB2lMDMFK45u71EyUUXMoj4CmM5bI0/sZzoLPFRe8mLY1vfCmpDpdKqzhHVihK6AkZSbDto5+GgezscTRXtav+A6d48AVvx3z1PhZ5tS6l1xisKuKBFkPGVy1k1Z2fhmducI6+SePEVTj/mJhZTuxUiYmZL9Qa2tesIlssAKXFCCFtPE4+djAqrVg1Epasr9EJGoazYLQc4V7UkOYVXdBSQ/lgFxtERcFA3cZuCkHgIj+MkPISjB49zulH90/6SAUwgs0VOHb/w9TiEdhI9C2a2DRs3TL1FbtrmPK8r3RjzwxQ2H+cWvEjlQhXTtkK5FrroSY1ecepfICB7p+5BQ9BjHE519ExM/ikDp+Jjaz53GYlLAAAIABJREFUQukhTQCLa1jzub8i/bKnMzIWCS+e8/6QdLHIyp4cX33J25Bjw1f8lC8ZUXq+fze1IaBRVS518VcFG7D4pk1R1bGzdjvPVn7BB1YuggUN5ItFiBKKPBEyYijuOTy3KwCdhale9TZABnjry9nw8fdwLCxC4OqsmnKCi+svkupxU7qNe9/4fg5/5YdgiYRu5z8iwESWzPF+/HJslCMQ8Be3QUPy0h1vSScmHgRB2QlgREAVbyIH+3vOjWiMuSgSrVQYqwRqqb2um7o3vAQSglWwopCEtl//BYaKObeTutRrCLHGsOzYOLl7d7oqTbOFoqXnM99k24vexuIDg3T6tXgIiMFasBiGJ7K0vOJnWfW5v4AFuOhFODf9LCYmZhKxUyUmZr7gwYLlneQJEQQPdSstqkycOO3KKp89Eipw5AQdNoENg6gMKIxiWXLjxkvoIdxxG2/oJl8sYhBUDKFV0qFBjp45d5VWoTAyznhvH0kxGGOiP1tsykBb8zzsoabfmi1P7qLIo96dj6FD43jiIpNKzo+chiTXL4H0JVpDquBD8qb1kPIIqrJARKHOTzJw767YUJ9nqCokBBb4tPz5m+h+y0s5nc+Ww9ldGpjrXxSlrejRfSzH1175dsIT/RfJlbnKKFBQxnYeJKOugxF1KRiiwoCE0L3claqf5DV5HAQnSrliIaEpKbS4i/cU/J7++R0xILi0iF+5hZv/6f0MNKYICyGqNkoDcokuoUDSwsZcku3v+XsK9+8tV5qa91iwux+jbqJIOS5T3LOWE2XBrddd+mQ18liZlUsZyGcxGMo1+MSQKQinvv3j8mfFTB0RQRVOBzna3/YqaPTAdw4rwTj75NeeRVCXIbCu6pdxr2BFWWQT3P2Jz8FYlVflSj//1f3vkT4eeMdfs/3/3M71/UVaTRKxFhEFtRQLRbIZnzXv+U2S7/kN6ExG0cJVDWcmU5ljYuY4827KEhNzzWKgefkihoOsiyhQ68RJUUaPHIdTg26CXD3IhnDkgR3UWQ9jPFcWUDzytSmSz9g6OU3kIgOpllYru9sohAES1YBAhJpkmtwjh5xBGX10SftW+sYojI1jRFw1muhDigsykJ5POtpXzpLqu3sHvkKotmphXMlrSHJ9pzOSLsUwKs0su9qYqPeiNBApl5BMqzC648D8nSxeC5ynPZR1hnyBOuCPXsbmD/wew9VlhpFoEgfiQVsIaw6Pcvf7/xHOknGYNVgYPHCMkUcPUWuSSBTirygElpHmGmiqLb8XONdBdKHNg+atGxgvFsp9maKIGGqG84w+9MgVvNAZ5kJhO2nguRvZ+K8fZLgxTWBdVZvKfgqiJPF48pDPF3/jXfDYKbAubXS2+eCmlRAe+Pr/QkBZc6Z0veNaxL9uuXvfJU5arQJd7YzVJUEh1JJSi1BvPU78ZBsETjkonhBPFcWGIRNGWXjbFvjZ6yfNmFw0LrCskc2vfSkTRNFu1roUSlywm33oAKPfvvPqOpdVKe48xOd/7Xep/cpPeXLYTOAJVlyatoaWCQ0orlxI9yc/BL/189BMJVJY4kYTEzMVYqdKTMw8wQLmSZuxDbWIVUK3BAaADI3DoeOcY1EFcHzXXgTBRGVyVS1BXRrWLHWh2Zy7WzXl142SuWE9yYY6ipERrUDC8xh6aA/YKtu7lKrSc4YGEvjiQsXFOmPTruiApMxj63oaqTbW8hA8cojadAaY7A8zxtBxKSKIJUpfmgeFZQtddY+qjzZW0SO9hCf60MmFFGLmAWXHXBL4jdtY98G3M66KZ0uJHdH7QgsiNIYei7+xk7s+/E/OsTKbVjYVsEruyElkLItnNeojBTAE1tK6eQ00X2Z5dYHkykWM5bOUHoTS5NlYZc+d97o0zNmUDjADaEJhSycbvvhR0os6CHIhRkGwGFU8VTws1sAzRzz+94/+AkYLkwXD5yMTlv4Hd+Ml/EjzzGmfWGAsKMCqrku3ygWMAVobKHY0EYahq+wWPZppFbKHTzB2/NTjFvKLqWAQfOMx2pKh80PvcOltF7pvL3s2fUnnhJFSBB+CiM8GrWXHZ7/qnF1XoS9UgTCEQx/4NDcfytMaCkXyLpLYGPB8xgJY8aqXsPJLH4KndZ6/wk9MTMzjEjtVYmLmCQZg9TKKTXVYi1tBFjAq1E6EBEdOuTdGehgAnB5h7JEDeL6HqmKMi0KoWbwQ6lyIv1xshUXLC4+uZNCiFuoWtxPYyuw6FQq1J4Yg0En7Aeix02RSqbKOSqhKoVgk3dVxXk2DmPNQvVJcVIKDvRjPQyNRYhN9P4maDGxef/n3NCF03HoDo2GxrH2jQArB9I9w/KGdkdEee1XmBdFzb4h8ACWdlV+7le6P/CETuQLFsEjp+3aaPk6fpM76JD7+XfI/3gaqs6tFGCF4cDcN6RrUEzSayBsMNlAaNq06d1JxvqiM820GuH4VXn0misqLIvYUkp7PwF3bYCKcv5ZX5CwXEUgobFjAgv/8YzrWrGG8WMRad5NCDIFEaRTGp/m+g+z5wD+j4Tzu8hU42kt+/3ESxuCVK/8oxghSm0G7Wi+tbZTGZgHqPFY96xaKxWKUxuueOk8NMl5EDvRWDfwxj0cYKiNBnk2veAGsTJ9/WCs988vrufElz2EoyBPiYaOxMTROUyncfQR+uBNPr+zoWPosz4IpWox6rjJXJPLiqTCaUFZ9/A/g/b8Ki2rcRc2qDjsmZu4wX4f2mJhrjtAoZKB2URsGAxqV9QRavRQnd+w5d7A8fgoZHi+vEKoqYRjSvm4VJKIVsIutrpwd+i3QdtN1TBhn6QlONI8TfQR7D1RWygAsDB88StpPoFGlDM/4hKo0btkQ906Xw8AITX0Tk26d4EQQG1Yvh/pkJUroUogiVby1yyjm8u5PWikI4CcSjO3c73R75HI+IGbWolWPouIcK794Eyu+/DfYohIG4VlvV6yvLJE03/yDD8PR4dkj1KhACGPb9pBOTa4Pqih+OsGSrTdWhb1f4vEFWLGIuuZGQlW0tGKtihgDvf3QPzi/I1XKYWzi7uPyBaQ++ycU2hopBkVsVHAZSro8Srtfw8mv/wS5e/ekQ8wrBDhxhoWjAcYzqFgUi4qQVUvHmlXIoqbLOy6AZ+m89XrnZyk5tnBNrT5VQ7Dr8Pxud9NMKpEiu24J5g2/WnFcXQgDmd99NePtjXjqnndQRC0ils688JO/+EdstkjU5K8IUv2LWIQQo4qJtKTUhgy2puCZN0erY3LWjjExMZdCPG2JiZknKAI+LL5hHUUt6Zp4hAIpz2fwxIlIrJbywJ7dfYDmidKkKETFMBoENK9cVp5YXNL4L5D6mc0UozBvKy6nx5sIOL3r4GSjzsD4jsMkbdQNRY4VMR6ZlUuuUDnleUCVPs7x791BoqhodKMVd8tznqXhSWvOv99UMdB403pqm2rLO5cWShMJn757HoGJYiUf7Gr4VWJfzsxSMrZTwC1dLP/LtzBULIAVVAWLcdEZqvgidPdZdv/tZyZrk5R+Xo3vSoC84u87TbLsOXFCu1YUacjAjRsnn2O1DtVUtgQs3noTWak4D0rPQ8eowsmBa8vy8oGlGdZ87i+Z6GzElrQ9AOd4V4wNWTwhfOvNH6DQ2+9emkfPslqFEE5te4TOTEPkcPOcIpERxn1L18/c9MSiM31DauvNkE6AhlGMlKvol0mk6LtnOyg88bixUnhGabsSM3D3DIYTRRgtYgcnCAcmsAMTMDABw7npcRhVLQ715EfZ9I7fgtop7tPms+aFz2asMEHJE11ab6rHx+45TnDv7sl94IyjVZdU6XRLek9YJWcsEICJHSoxMU+UeNoSEzNfUMCHBSu72J+boDHTgEYrYgYY7+2DfAh+xVtyZs8BWr2kc36oYq0ykjJ467srnpdLHWXXdDKuAQslhUarkikvSc+dD9H5qz9XmVDkITx0mpQ1Tn1ewCJ4NWn8pZ3x4H4pKFCEA3fcz0o1nG/WGkyMk/zxTpfLf0n31uIKLQpmIiSZSqC5YNI7DIb00X7nVGlKXN0JUdxupofz3cfqv/nAy25jQ+8wuz/yKRYk05SEMBXBGqVdfXZ99x42vPqXYVMncFk9yvRy4Aj+qVG8VIaSQ6V8Qkbgnr0Efh4kvNhRLoABTZJQQYyAukgE1KAKraQY2rWPpq1r5r9jpRSwVppZrm1h3V+/i+2vexeLA+Pkdkor+gKNaujsK3LiSz9g+W+++NK1n2YxIkAARx7exfJEGudWiiJJQ4uf8DATeYo/3OlKVXN54lReVpCkD/liuZS1tZaEQuFQLxQCrHGOnCcuX3Mln2KFvgk+9utvpGXcIqXKXApqLaMpwxs/9kHMdV1P+GMQwVpL7VOug60bXGTeVDqtBDS86P9j5799kW4oydm5XRUWmxr23f4FNj71enfMK0H1eZfOp+o64qEyJmZ6iZ0qMTHzBBP9Y5YuZriYpz4VlkvqilWC08OQ1crKSwiDh4+x0POxKIjBBgGjTQlY3Hr5J9LWgDTXEw4Fzi6OBvP8nkMwXoCUq1DAqT4YzbrFOXWDfeAJ9Su6oKlmFsy+5hACnBlldMd+UsYnZPKEMB0K+/7rO5z41JfwU8lLUvNXolVPF3TEClMfFe2s/nilZawIPSdgUfflpRjFzC0Epz3yxhfQcP82hu/aTn0yBdGE0YqLk2obCrjvz/6BWz/7p+BVCVVfDULY84O7qA8tVqwLz4/6HlEoDo5wzxveSdFUR5lMHVWwodARGhoTKaxEleTFRY/ZUHnszvu55dXPd9E+1woCaizylFVc/9638NBvv5eOphaMp9E8VlBVmk2C/k99m+UvfwE0pa/2WT9hJg1hQzlGDx3HWov4XjliRFRoUp9dn/4Kpz/9X/jq9ryc7jNphU5TQ9KYSiyQghdY9MQAwzv30vikjZf2/AmzQEDYwECRWw5l2TDuE4pFRaP0ZuVoRjCDl+MEPRcBwjCk4WnXO3Ha0h8vZI9U/31DJ9e96kWM/us38BPJsu6YoNRZYfiunfTe9zAdW2+YV07DmJgYR+xUiYmZJ5SlLDoXMtyQYpl4RDWAEOOTKITQ0w9t7W6HMRg/2ENCDCGuKIWH0LFhObQ3Xv6JtNTS0NlO0H+UhOc520GEwql+GBmDBS1goXf3Xmy+gCaSZbukYCC9rD3umS6RUMHrOU1wdICgbuE5tp8HNGuCBalm94dLsNhDcUahh2I9wZaUVLRyEFFIW+XoA9tYuqU7NhjnO1H0gQJSryz5yDt45CVvRo4N44mgRrC4x7jTJthx7y44cgqWt1ciNK7GPC0P/T95mHrA2NBpekTnEYqrVLZCPXgC8zMRwHcOSARMVdSYEcP43h4YLEDHNVRiQ3GaMingF5/Cwu8/E/udbU6nCVPuj5IW6g4O8Nh/f481r3nB3O5HqgKgrArm4X14vcMYU+NKIJeyLQQIAtpI0EaCcjYslyF9FaWcGI3krQCMYEwCmRjn5I7HaNyyMSoVOPXruOpYIFQEgxWDFfe8elYxqoiKGwSnkTzB5Ht0IYdK9esZaHzNL3HqM9+mFnXF5kv9pFpaSHD0375Cxy03xDZOTMw8ZL4HoMbEXFsI0NKItDVRRMvVe8RCMhTG73mwYqz1nCQcGcMaCEUBg/GEps2rKys0l/H5NpVgxc03MBEGoEoQrXQtnVAn1Ig7gbE9hzDFEMUZSFaVQhCwYO2qyrXEPD7qxIALR3pZnmk676qiaFQFCMoG6VS3UntxvysGG4XtTyaJYf8P7oRC6UNn8qJjZgMu6kRgWZrrXvVLDOfyWN9DCaJYJkMgQoNJMPTtO6/y2QJDY2SPnMQkfShFX0VNufrZ0FKneYmbiuvvgPIqNUAollCs6w9P9sOO3Vfh4q8CVU6rMg2w5E/fhl9Xh7Eerniti31TUTI1KU799w9gfHoiD64aUtmMgYGde6nJ2ah/rvSfKooVW948tRjc5l3iVopPCam05RJ+Ms3Y3Tshr5dm+U+lH78SkSxRBE8oGjn6Q1QChBCPkCfkCT0vVQ+wXsC3NOmynb1FVwv1z3sqdswJxpuq250wHnV3PALHT0/zucbExMwGYqdKTMw8oTy+N6XovHEtphhilCgEPaQxtPTe/RCRfAlD37mbxKhbzzIqeCoUPVh846YndB5qIH3zasaTFk89xEJISDrwGN59sCTRQXD0FCkvEUndKWKUMc1iblwRT8gvhajE096f3McC8VATAoqKxUZaKBQD1IK1QOjkIqa6megnoSDWuMoB6sqhGlMZQoo2ZHRvD5weBGbHAuc1i8u8qYg3jhXQQjhzArECvOy5jK5uJQgsGik6hDgB2CZrOPHVuyaLSV6NBtI7SG3PEGI8J+MpAmIIwzBKcwvx1ZWhFzWXvLl+1KAq0UakneFh8MH3aA08xh47cpVuQITaisZC1CYsuDK8xZDxgeHLlfW4MGXdGqA9TeYFWxibmMCqRh8lKAbfeNTvPwMjuWn88KtD+fblLUfueYCFiSRh6Wq1dMUGEwpJ9fE1cjBNub2dvYFoSBB9oZ46IWBBSRqP3METMJGf+gVYCwLpmkw5+uV8TUJVZ3TMdt1GiClFTZYq2IiHFd+5U5LTG9Y0Kf1PLnJ5UvnFAKRg0Ttfi1+TBvHAeFFJesFYqJ1QvvWuv4bs5Oubkd5ApDIWlETEnXwxYoVQXeuYdHHxwB0Tc9nEAWgxMfONBHTctJHs1x5G8N1imUDKKn0He6AIeNC7bS+N6mOMh7UuVHXcB9auekLuVlGFmzdAYy0MKcYTFEtCDft+cj9bXvEcCGF0fw8Npjo43jJuC7Cw1i3vxJ6VqSECeRg5cIR2kchodxiEPJbaZR0EmelRx1OU/P7jpG20LipRTIIxNA1NwL4jsKx5Wj4r5hIpPUwD4ww+8AjjD+3l8D3bOX70BJt//5Wsf/nzpr1gR1m7oQ7W/cpzGPzIF/GMW40vvZZSYfDACSaOnaZm+cLp+/BLOUmF8FAPbZoqC1KibuokxiNMQmJJG/YJ3CAXmxMlXfaNYIfG3cRWnLiKiNLiJTn8051cZ1+IJcQYj1Lx5RmnpJpZJV4pE0WGduxldPs+Tty5nTMHjpBb3c6vfvJDzkKcjq5YKj/d/bY0/vLTOfWf36daVtvppSstWUvu4d2kO58UvX9uSmyVzzevjB3rZVGV2FTptZyG1Ha2obUpRMPKnHYKF3u++a8nkD/YS1IN6OTqL3Wnx2EkC63pqUegWEikH0cAKAzPPaHp/LIECC02tIh6zhkaoSLOqVJzueG1U2WKLdAAixpo/cXbOPzVH1Pn+ZS+dgEyxoe7dsP2/XBr98UdNtNxygCmVOaZckSYUXGRzKW3SiVqLyYm5vKInSoxMfMNA83ruxk1go/zT1jAF8PYidPke8+QampgcN8hliXSBGGAiluxGK9PQl3qCeWyG09gYQN++wJ08AwqrgKBwTC6/6gTyw0L5A6fxHgmKrvsoi0S9TWw8Czdj7lmSV8NDveS7zmFGM9N4NSlc4kKE00puj7/91AzDZ9jAAsDr3wnI9v3kfYqQ4ggdEqG3OFe0nNxBjTXsZDffpDv3v5p+nc+RubYIOuDGjZoHWttkqN374KXPG9GBFIFIAF1T7+VE3/9XyTwJ01BPECyecb3H6Vm6cIrWom1nIYRwO477qZFPIwRLNGEU4W8EVa+7EXw5l+b5HC4bAS4Zy+73/QeWkPPTV7E9cVp49FzqAcCkKSJTvFKpU84rAUznOfHf/cpDv/4AYLDx1mdT7JamlgTwF4Zcml8M2AhCkDSwC0bqW1vgeEcGjpRdYBQlUSoHHlgG2uf8yTkSlVKmUn6xyicGUY1Wc6UKX0duQU1LPvs30KLd+llgc/XbEIYft17GNyxn3TZieMEfponQsJd+/CW3zK1MV4VPCGRTqPiohPRKqeQgu95UAwqXrEZaMuqOKeKrdygSLIIQbBGoHamnSqXQAISr34+p77wDerSjWUnbmkRYj0Zdn3hG2zc8hanv3RJIjdTRCf/p+BZrISIhKiEThzaQMFo5f3nS9eLiYmZMrFTJSZmvlDthNi0gaAmhYaV0reiIPkC0tsPuZCx46fwTT1qFFTJBwVq12+A+mmoupCC+lVd2D1n3CTfGGyohKcHYP8h6OqkaSKKqRAXplwMQ9qXdkFLY9nJEvP4qEK4fS+mbxhJNkVmtLOOrMBoRwO08QScKud+ES3Pu41j2/eQiiKhADQMqfUSHHhwJxtf9fOor+WJUswVQEF+uJM1X3mYZkkSmCYQQ84LsUVlYN9BCMAmXPTYdFFa3bSA6WglW5+mPleMXqzMINPGI9jXA8/YQjk8YSabx9nNNmsZ2rWPdt8jWq+NJjkwkgR+ZiO0Rhd0aTXHz0WAW7opLGrB6xnHJWC62yGqmKEJODWGLqmJnKBV+80UVcc2YqBnGP9TP+QXsknypsFNsiiS9cCOBjCB6zNm6pwSsHDzWo7d8VNqjQ9qnSaFMRAG9D/ymIuqnGpJ29nMvTtoCn2MVFX9EQChsKoDFnuuKt+kSI/LHACL0PiMGzm+bTdpLxVVyVHAIxkqu350D5t/fopOFSMQQqa+jjwgoXUVBaOXFfCMQQvBzI7XCuTzk/TCNHJSKgqeB48XTXOlcOFqsGUlm5/3TPq+cw91iZTLxnS3k1o17P36j9n48hdhb1qKmYkQkWrnsIF1v/9b8Ct9UcMrOXEMK5oEUtE4XvLBzeVnLSbmKhJrqsTEzBekakt7jDamJ9nqIUoylSJ5cgD6x0hbF2pdmlhoWCSzfjmkvCdmICngw8obNjM0NooN3eqSL4aG0Tz2sSNw+Cj1uRAvMtAsQs4IC1Ytc0Z09fXEXBRV5dj9O1jopZ0BXVr7VsjbkMUb17jSt3qZ26SGFW1PuoFcysOIK9kdChjPw7fC6N7DUHSpRzFXluTabvpyOdQk8PD4f+zdd5xcV3n4/885987M9tWuysrqvViyJctyA1yw+WJDsAOmODaBmJAfmAQSEppjWr6GgCk/inHAJg4BJxhicGxCcMG4N7nJki0XVatZdSVt351yz/P949yZndld2avZXWklnrdfY+3Oztx7br/nuc85JxCDFUgElmxzMxw4MKwBFaBwjFoBKpO0TazHSRxQK5pVgCHc13bkMtDWbaJjy6uYwGeO5B/Q5qzQEUYw6zj/Rj6gMsBuP6gX8SLWBSTGNxJEvcM2RwZyBhIdaaIHnsRi/fF6GM91hUN6ygRS42pxNkcCC9ZhcCSAsCfnm/GNaCFAFs0sdGju8k2DRIiAdHMLpKPCZ4/Gpgn5U+iGex8hmfXXueI/Ohcx7eQTIem7uQEK+8KgTs0DscCCmXTn0ljpfTghxhE62L1iFXTkDvbtfuXHQphKEjmHOKFvH+UGg/RkRrQ2YS2Qyfq+WwZgAgupURJUwR/rEkLd319Oc3VAfoB2g79eOwOzOgzrfvJrrIujMCO0f4sBQgOnT4PLlsGlJ8GlJ/t//2wJXHCiD57mA90wYmVR6linQRWljlbFN+L5JwzE/yagYk4TOYk/ZAyBMYyxKTpffhVWbaImmcBYP0whYjGhZeLJx8e5+sUzKbNsM46jOcjFneVZxAhjTYrODbvY99wrhGkwxhJIgMXQnYSGM5bEy6AV8sGyPY59a9YzxiSJsDjxFTUr0CUZxs2Z5nMSh1BJ7Gf2RBhT5bvBFUsg+AqigVxzC2zerVeXI2FCFT05QRAimyWyOXwKS0T1nm5Yv31kbpgNSAAkLTYJQVFlDvyukDCWqKOr8PkRl99/BcgJ0dod1LYJzkTxiCs+nysQSNRXw9iK0u+VIx8AQCCEcYtm0hk6nPFDv1p8J5tV6YitK549vJWXuCZu8sMSVYE0VvuKcj6jzEREzlHVY9hx2z2lQaLhLAeAgWRdFTmJIK52+m40HYEVch1dkI1e/1w0ihlAuntoeWYd9RLku/Hx+0FkyWUc9QvmQkC/AXTMIP7re7IWDM4KTB1LlwExARK3tQsEXCjIgU7YurN0ox4kSuOL5KibPIHubAZrTb9yJowl2tsGOeJUrOFZd/0K0txCmOsNTgp+1CQxgq1MQmr07CCFkiwcx6Q3LCGTTcfvGZ/9A9TYJDsfWw17uuIOTUa4LIOZvunzr1LqkOhtr1LHiuILYgCNS+bR3d3t07rjJzxJgZZnXqTt6RepNEEhduEEgtoqUqcvG76zwrwZ2EnjcNLbmqcmVcHeJ5/DvryNIPAZMSL+6Vc6YeGNy0vTVtXra8vQtXUXCeM3nF99/ul3e2VIYvG84Z9nnSUxoRGJ27gLfljuyIJp7aDlwcf9TqUOHwM0VpGoqcQYE7/8KFAGmGSraF23ZeSOKwGsIUgm8rtfoVgIfl/p26HESCukshtefWYNTeT7tJBC2XqiLBPnz4Hayt4gTLnlKwRyDATQdMIC9rW3xM+p880whDpCXnlsJbmO7sMXQO47Gws1DfVEUY5cITPCYCzURo5Xn3gG0pl+mQnDUo78K+VT6IwxhXWUFxjf0WpheKKjjQARdG3cTse2XaRMUNj9HRBZ2EUPTB5fsk6GsqQGMM7BlPGkxjUQuajQZCbf9GRMe5ZMPgtJ+ny57yLExzSzp7Iz6ur3EREhZUP2v7Ch9PvDvEsbgd0rn6cyHcXZTMQjAPngSuXEcT4bc7RJwJS//gA7KykZSlsARGjcn2bdV37I0E46QzBQEEUDKkqVTYMqSh1L8tflAIKZE8lmsyUxioSDrufXs3/FaqqIR94RwVmDndAA1Yl8jurQy3JcPYnJY31QJ35CJ7kIt34b++9/ApMIcbYoLba6AsbVHpX3z0fU5j2E6Vz8sCu+acuvw8Y6WDgXGe4ARwBjZ0wlykUYiFP3fVOyRpfgwJqN/k11+BigsYa6yU2kXYQRgxETbxdDrUmw/qGnfD8VIzR7IoFcPBJI8SNt43eHirFjet8b6eO8z/QhqR2AAAAgAElEQVR3vLCWMcnK+JwXFwpoJ2Ly0uN956nDWSYDHDeOtsA3/0GEfJJIEovd3wE79w/jDAdZpvxmCeC4+bNJWxevEP9HYwyV1tK5fRdsby6tYw3zNst1dvnOT13/HlorG+uhMkVJW5ijSX7FbdxNKhIf4EQwEjeNjBydDRUwaVxRRVaGXKc1JoT6KhqmHkcmFyGut2lVYAzjJGDf2o29X3iN9Wow/jgeU0tPfWUh66VYiCGzddfIbh+Bti2vUmPDfn35ijHUTBw/6nqINODbLS2ZyeS3voFMNltocijx9XKMs2y54xG6127V7FyljgEaVFHqWGQdtfNnkKiswEUOK72p7jWdGSrbuklIb0U47XLUnTB/eJ9SJKFp8ZxChV7w9w013TmqmzuQwBIhOHH+Rn7CWN+2vCg9XL2+7geepAqLMw5wcTt4g7WW6ikToS4Y/g5jEzDl+Pm0ZnuA3oQAg6GeBLufXwddg2u3r4ZRfTWL/8/ZtGbTcfMAiyHwI2whdLzwCmxtGf755o/ZbJZsW0dvh5JFFa2scyQnjjt8x3VxNLk9ItrXWjQyVm8tvTtpCY+f01vUoTY1KT5/zZoKx431o9vk/xz/UJUzmA07BtFJxggxUH/qErb2tGHExQE4gxNHJI6aKCD99IaR62dBoKe1ndCW3obms6xqJjX5/rWO1utAvE17Vm2kvrIKMQ4Xj1ljxGAcVMyZAmOq++wDQ1jR+RNxCHPesJxuUzpUtxGoCRJsW/l83Fwn/4eDTC//fmMtdfOmF0ZOLpYQg9l5ANIy9PIfTE+G1p27SZrAt2am9zjqdjkapk4eVbWZ3nOJgQphyvv+hD3ZbkJjCslwxgghwgRJsueW+3360tEWOFRKlRhFpyGl1JDlKwQWEgtnUz2u0WflF91aFS7q0vt7DiG5aMYhNsB9Lb5PgennnUnWReB8hdthcHGFq9AfZNw8qS6+iXaHa7jVY4HAK/c/Tk1G4qe9+WFihUw2y9RTlozIE7woJ9g509hvfTp2IKawPQMM3Xv2Q1tabxIPp/i4D9/7djJVKd93hvF93oBDAqjZ18XuW+4cme0iQFsHuT0HSpoc5meVE4edOPbw9pGRn8czL0Fzaz7kWEjGEyA5vgGWnVDUVGgYja0lOWUCUeQwxp/Y8l1J1yVSdD6z9sgdIxZYugA7ewoS5QeojYeqtQFjSLD+P+/y5+6+ZRymMm9Z9YKvKFtblKPhN8SYmVOLKv1H6QXBQfOK56kOfMaNjfs4c8YShZY5554xvH2BFF3kzRlLaU/5AFWhU2ZxGCdkX90LrdnCZw82knOhnl8dMuvNpxNl+p/TQwG7Yz/bfv/AyAXgmjvofHUPSRtgxM/TxE0MD0iW+kVzR9U9Q3FTNgkMLD+eujOXkc1kMRLvB0awFsaRoO2X98Or+45cgfU6rdSw0KCKUsciY6EyJDGxkYwVcqb/gxDnr+tYhJ4oTWLucRSye4dyg2LiOQXAjElEQW9ThCB+WQxWHCnnqHBCNt3N2CkTfbOlIcz6mFe8ASOha3czPRu2U22SYEN8V4++6piVLPULpvV2aDOMbGBgZhPJ8TWEYrHYuMLgmzjURiE8u6m3zEfqafwfGwfMaSA3tgYrBiMRkPM38s4xmYB1d90H7Wn/eQEk3/yjTPlghAW2NzOjO4XrkxmVM0BtFak500pHmTgMHND86GoqunsrYmEcQ7DW+iaHtcT9nTD0/TR//vTtfJh08gLA4uIMBRt33F1FSPPja3prtIezUljIQEgx+cxl2Exp8x9wVEuErH6JbSueH94y5tdvZ5bEC9uoIaS3q1rjz2CRZeqpS3tHghuJgNdIM0B7N4nNLQQECAFiDGL8wgg5xi9f3HvBM8TBoyEuaP7rC6fjqgKi+HpgBawx5AxEezvg0dWFbWEPsr8XSpOACZe9HVsTIkZ8P2j5Zr1AygZsv/sR6HEU3hyq4nPTM1up6XRxg2VHzjh/GpGQ7NgaWDh9lNVmerejAaiFuVddQSAh2ADBYCREnCXhhLq97Tz9b7fHTTN7V57oBVOpo8qoOg0ppYaRgdoTF5BO5wjE4owZsNmuA6KaClg4w9/gDbnyG4/jIAJjKmlvqh2w0pbviyMTGpoDR/X8WUffjfMRIgAG0mu30N6831cOi57mRuJodhmY1ASBGf71KgLTJlI3dwYum8PFt3+FumQk7HtyVel3Dld2wh+xyADVsPgtb6K1pxNT1JdOvllFYvt+2n51f1GbrdJ955DlN3oWnr/1Dmqi/tPK4Ji8eB5m2tjDvg+YTMSGex+h0Sbi5hfxehIhm8syZdH8eMSzfOocQypjSTOiBEw598yiEUsoZJIFOUf3KzugtfPIBRsTMOPyd9GZivxZW3z/O2ICrATUkOLV626BDL3rZDjKGsHWux8mt7cFn8Djh3MWAyKG1oSBxQtLIuxHXfXSwe4VzxLt2ksocRah9Gb9SF01LBrmJrd5AjRUEDTWEUala84AY3KG5tUvv+68TfG9wHENZGc20RPlwBiM+OVxBkwyRfrRNbD7QKELnCEzvr8UBF7+j1upsyFiTaHSkhUhcI6mU06AmRMY1XuIBeZPJnPGXLLZdBw+LLpeVlTQ+at74UB3IZNtRPR9wNEbS1VKDQMNqih1rDJQsWwO6aA35X2gq2dOHLUTxsOEhmGbceE6XVtNNLEBI0Jg8s+Zem9/HP6XruokLJg9TPM/xhVSrA2yaTd1qUofwCoOXAl0NlbDxLEjd5ZPQsW043zTsj53gVU52Pbwk35IVHXYGAMEUP3/vY/94ypK6hm+KxHhuFzIE1+9nq61mw+e938oXDybZ7ew4bZ7MQOMwtEdCGPPOrn0Bv5w1IEcRPva6N7RTIW1mLA0D6493cP4BXNGrpNLC8ycSk8ywEZF3XyKkDAGaW5h11Ore2tXh5kYgVmTcKctINud8W0vxXfYKxhCMVQ9vpbm3zzgh47JtxsdSiUsDsC98u+/pabSn7uMxEMpi+AigXkToS41LMt4xESw7/kNcX9WLm78KiB+GODO8TVQHY5MhdYASWicOZVogB2rVizbn3keugd5fo4DhOMvehOd3V3YomuNFSAXMbUFVnzrRsgx9D5X802THex9ZBW7H11JVdzENT9nawwtJsOsd7wZUqM6pOLXXwqmXnEJXT1pAhv26UZHmNSRY+N//Dcmlz9H5O+khkHfAIrp87eBflZKHTINqih1rDLApEb29XQhJu4cb4CLZo+F6acv86NfDJd8KkVFQOOyheQy2d7hd/s8yQow2DG1PqtCvbb4hsgIEMHeh1ZTm6zsd+tlDDBlAoypHaFiGLAw69RldOcySBSV3LdVih8Ron3XnuGpuKtBscQV3mnVLLrsItJFlRDwQ9dWimF2LsWqL/0Q9nQMy/Yx7Y6nr72JhdSQK2pL4IdLF7qqEvC2M47AE1HBbt2L6ejBGkskPldFDOCE9oSBKROH9U6o3yLWVtLTUF0Iegr4YWqdUBmEdDy3zncaeiQYA5WWOZ/8IBnrM9yM+GYWBiEwMMGFPPnVH9Hz0HO95/VyCZCO2PaTW2lYs5OkTcR97/gmUeCHuJ77/rdDpen9ztDmemT0OPY/9QJhKoXkAypx88isi0jOmTJiWQJ+H4NpSxZzoKer39+rTEjrpu3Q1jX4plVGqLrwLBKNdSVfMUAQBIwhSfddT9H8i3sO2pxo0PJBxo4MO264lSmJKpLGxv0SxatNhOa6BCyZe3TUZALgnBM47k3L6ZaI4pVujaFWLM/97L9h8x7/5nDuF05wO/fBjv29r53xa8d+aE8P/9DpSv0ROhpORUqpcs2YSFhTE4/AE9/U9clZ6UoYkifOLf2eGfDHwSl+IhII088+1b9lLWagligijJk1BepGsDeVUX7D4LfM66906fOLeXE7FSbo92RQco45Z57WWzEZAWIE5k7ngMsQhIk47duX0AJhNkfnS5tKlmXo9ff8vmv6vHMsKqPGlY9YJqDqveezLmqHiLiKHI/uglCFYdKjr3D7J74ILX06nzyUY0WAljQPfvIrdN33NI1i/TCi+G0kAgdyaY6/6C0waywiruxFK4sYohe20JCoLBS4MLwshp6GSlgwa3jPD32nVZHETRlHNg5wSf5oDwISqRQtq9Yd2cBjAjhtIWPPXUYPWazJZ1X4AItDWNJiuPOTX4Xnt/RmrByK/OUnLRy4/X4ev/o6JmUsRvLNBi1IQNoY6k+cS3jJeT57KD+fo+0gF6AzTe6FVwjiJcw367AYsrmI8UsXli7jMDL45maJGZNpkfwwP70v4yDVE8Ge1sFnSYUGZjcx9xMfoi2X6W3GBGQlR2SEeekEK77yQ/b/z8O+f5CBmpsMZl4CdDke+MdvY3+/kqSDyPrTW34pci7ixA+9GyY1xMs8yneSEEhC3RXvYVtLc5zwVVRqgbmdlj13PdSb/TccBNL7W/mnt1/K9W//C34Yv370J5fzoz+5nG+99c945pf/Myzd+Sj1x06DKkodqwzQVIutSeBcDovD0vuEJLC+Mp5OGDh54fB0UtuvDAbmzcBUVpKJ/J2CT/X2DYHys6ybPwUGaDYwJIWbOEvvwo1Wxrcff51TcvESROu3kHx1H0HcfV+eBcIgZNJpS0e0WYMJDTTW0VEbkM7l4ptEv12NEaqDkOTqTZDzw4cc0k1i0c13YZQoyd+A+p3Uik89L2mNMMqDZ4MX7wvl5NGb+GuzGznvl9/FEeDE4nzHIfHfhWqTYPFj2/jlJR/npd896LMliir3UdxHpIivRwNFTc+ACHateok7L/s0jXevYkFYRTZwvSPsiMUGAdnZE6n8uw9CSOFJ82ER70PbHniWKhNgjJRm6jlHxdRGaKwY3vOe6fNzEhoXziCbi7BIfA52OHEEGNzGvfGQO8M0/0Mpaj5rMAn1X/8Y2cZqslnng29xBTaMq36nNgv3feCzPHTdv+MOtPkJxE3KiLMQIwQnRTtR/jiOgP3dPHjlt1h15bWcFzaRTTiiwPld0vnje1tHB41/+35/LRioqcJQFtQEgMWJIM6N3JP5/DLv2UdTe0QiPoydAZzBRJbungzMOa7388M9f8AYgfkzyI2rRyR//swHdyyVWUg/sabf90r03QYWeP/ZMK2JbCZLgE/ASGLA5AiM4+TOBOs+/X3uuPJrtG4aYMjwPr/nY3RS9Pe9z6/nzo9+meN+vZqJFbWEYeCHpBYHxhAZQ/WcqVRd8d6RbfozXMdkfnkD4Kx5jJ03kyjrg12FVWEME7IhL/z6LtjfXdqfzRBmC5CSgPN6GvnT3dVcvNe/3rWninftqeLCPdUszlQNbUZKKUCDKkoduwxQlWTavDlkolwhGyLMX2mdwwhkKhMwvmZk7kwsMKGB1LQJRNbfqIsRJH5eawR6JGL8nJk67M9g5G+0HGxb+SJRexbb587Pge+P4KR5I3+GH1+HmToWK/0ftSew7HtuQ2GMbCMHH2VCDY98ooqvKBt400Im/uXb6cxk/ANp01tzydqIVJjkTS930vmx7/LoZZ/lid/8gQ1r17Fn517aW1rJZbI+dTwXkelOs3fvPjau28RLv3+EB6+4muZ3fp4TX9hDk0khTuJAl6+0OWPodMKSf/xbGB8cvuyUYt1Zup9bT0p6E+isQCC+g+wppy3162kkJaD2tBNwuXwbH78iJC7L+L0dsG3PEQsImvyKmdbIgh98iX2VFhf5clqEQHxAPghCFrRAwzdv56mLPs0DN/yKtavWsn3bbpoPtNLV1Y2J/EhvmXSGlgNtbNmyjZdXrua+r1/PM+f9Ncfd8iTzXTU5SzzKUO8u0RHleMPffAguOHH0x8AHIPn/xevzwKo11GQFG/hgZj6+nzNCxcSx1CyaOzLLmc88McD0CVRPn4DkokJnyQCBCNWRsOPxlb3fGVQTIGBsgnnXfI6WmjjyVdTJtTWGwFqmZ0Jm/uIp1v/J3/P41/+VtU88y6vbd9Dd2UNOesvhr2VCuquHXVtfZdWKZ3jqyz9g7XuuYsl9G2hIWVxR8Nz3aSy0Znto+LtLoao3e2VUK16/VSELrv4UexOupG8aZyByQtWmA+z+2e+gaHsNmQg2sARBgLWlryCwWDvq16BSR4WReo6plBoNrDD5zaez5pkXqcCCjXvNF3AiRFHEuCkzoKbCfz5/MzYUfZ/UhmDmTiTaspNUfhjG+EbIAR04EnN15J9Bya+jLLQ8+Rxjg95TuOBvaiOgfUw1E2uGO/WnSP5esCqkbsFs5MVnMYnSemFCDLk1Rc0FzPDsXurgCvWp/EpOQPCP72fSKzvYde8K6sIUkTOENsCZHIYIQ8AkU0Xnk9vY9fi/8GJbB4nqClL1lSTHVFNZW4NksnR3ddG2o4Woo5v6ikrGVlQxRlIESCGYY+Ic8jAy7O3s4Pjf/ADOmIqzDnu4n+EItG7YQmZXM6lElU+HwFfMHBBFjslnLB/5uyADtcfPorkyFTfxs7j4MbQRsD05Nt37MLNmv/vIBpYD4I1zWPK5j7Lis99gRn0jzlhEnD9mRbAYxtkqOl/tYPc1t/JK27+TMzkSdVVU1FeRHFuDFUvUkSWzv4O2PftIBQHj6msZF1kSJvB7gfVNwwInkHO0pLuZ8cEL4bMX++1xFJ4k8kV2CDZrWP/gCqZbS9ZFBOKb/RhnyGGomTQeJo0ZkeXMH/8WAymomnYc4aodmHg/FxFy1lCBYcfjzzGlvZtEbWXpQrwWC7xpOos+9Rc8+7nvMLm+sV/w3oqhPqyktsuw71/vZdv3bqebLA3TxhM21pOqqSZVXUWmq5Ncexc9LV20bd+HzQhN1RU0kSBhDVknWCTO4vQL1ypZ5l58Plx0qs+YHKb1NqKk9Edz1jzM7InIumYiKwTW+pGUgMlSybM/vY0LLr+QoDE1PAsoEmcdSr+B3px2pqLUsNGgilLHMonghPl05WsS4hOAI+Of/nS7HFNOWOD73hipGq+BscsXsOOux6lOVAG+TUH+4c0eciysrxmBGR/DOtI0P7WOyalkYZjY/KbLuBzJeZN6z+4jGckIYdZ5Z7D/N6v7PWgPBZL7OpH1mzFLZpSUUY0c0/eXKqj5/z/JhKv+he2/fYimVDWRcQiB79PCCFYs9ZGlwVQjtVU4hGxbRKa1HUcbAfFwzFJForoGC4iDbH4Y3Hh21hiyUUS2upLjv3UVnDoVlxDs4Wz2kyfQsuolbCaHSfTvtiRbmYDZ00Z+p7TA9ElUTGsi2rkvzuSJm8lhCDG8+sRzzLr83VD5ehMbAflIHPhmNx88l9Ot4dn/+wMmuyRR2JsLJ8Y336yMhDkSEFQ24MSRTTtye7Ok9zRjBRJiSZiQoGa8D2JlITLih3cvmq0V2Jvp4viPXQr/8OdQw9F7kojXocXAgQ52r36R6db6YEr+GDGGtDWMXzDD7xcjeG4WARPC3DcuZ/fvVhKIxM2gDA5HYAymtZOODdtoOGneIZTD+P3kA2/lpGzEC1/5MY2pJNaauHmfDxhaESyWpqxhUrIeZ4TuXWmyu3aTwRGJkMRQbSzjCEiZWpIVFuf8OUmswUjcZFF8G89WyVF75jKCL10Bgc+8K+Q7jeaIfdExZgyQghM/fClP/f3XmVJZU/hIYA2GiHHdEZ13PkL1Zef1fl8pNepp8x+ljmFiLcybhqtM+c7PxGGciztdsLRZoXrONH8mGO5U5HwqtAUWzqSly480YAqzshgxRGOqoL56ZNKgDfETasGUdBrjX6akRlFU5mH3+gtnCvnjg9DWTcXONpwp7jXSP/3NuIiGZUU3ySMUKPN3gVD5hmW4uMNFG4/QYIzFYgkzEevuf7yoU45hmLHx28wgcXOWo/1JW1wtkN5mIcXDjg/L5CckqPvuJzn+M5ezI5ElSvtmGlZ8hcUZh8ORxZG1OZzx/R1V2pCaIEnKhqRMSBBaIuuIAsHhfP9IYnyXIA5as2nMyXOYetM18J5TIeUDLQO0Dht5EXQ/v4nqVKqwPntDGZbO+gqoqz48d0FJMFMmksmfAOPSCEIQhOx95mXfaeiR2p2LzxEVwJ+/mZN+9i3apzSQS0dxQyATd3juO7EVE5Gzjsj6pgUJG1AbpKgNUqRsgAmEKHDkAue7tYofkQuCOCGXTnOgqYbjr/0SXPnn0Hh4FtKI71ekeJmNyDCeJgU2vkpiZysS+M54wV9yI4QOImrOWDJi27lw2o/Pz+H8WbRGubiZaLyDic+SqjABXc9vhOwh9Iya/1wt8JG3s+iHX6Z95lgymchnRGCKIphCZJ3fTwykgiS1JkljUMn4oIpGW0GNTZEKQkwg5GwOZ/25CBEfgDQBJufYLWmmXfY2Jl3/eZiAz1Ipt3dV0/uPP+2a3hcl3ccOn+JJJoB3vIHa0xcjLm4MbeK5GseYTMTT3/8pHOg/clO5szTxKAHFXdr0noX63AMppcqiQRWljmEOA+OS2DE1BMZ3aWqMkBCLOIjG1MBpS0dm5kXxi/SMiVTW1vugihjfiSUB4gyTT1gAjSOZqRIn3YvFxhXJ/Ms4fKeFbiRrfflHVH5eVvK3bb3/WTGEJuj3lYNO7pXtTOp2EPhhT0MMAYbABKSzOcLZkwffTr7cRcqXcVw9yfG1SPxk0jgKr0QY0LFyLWRef7FK9Cu7ITDxNhMD4rDOV858XjO90bqjSj7gYAmwWLE+2Ji/sR/qfplfhxakVuATF3HC7dczZtkiNrTsIcpEBA6sc4j4lxUfCPFPngEEa8AY38GniTeOiC97EMG21n3sSjrmfeYKJv/7P8PpE/3T7Hh7HIlEFRw0P7aGyiAkMBabf4nvOdRNHQuVqcNTlgDqFs+iO5vGimBc/Ir7ijBbD/SOxHKkn0obfMbMObOZfcePmPrB9/Biy15aerr9edPFPa/GvRibOHvFOIeTCEcE1mCNJRDjl1cif46KhJaeLtZ1NjPlT85h3m9vhPed5ivoI92PisTnX2wc3I/PvfErHGoDtaJoRvblrUzsSfrAQFxZtgIJY+mWDMxqOjz9xhigYQyd1pCIIDCG0EDCWgJjqE1UkHths+/s5VCmCT4AUQW85yTm3fZDpn7gYtZ3H2BfVweBBL5TXiyhCeL93AdhrfF9uuTPKzYO8liIO8V2OPH9M0k2y6sd+2HmcSy9+V+o/NKHYczrlOsQ2Hy/PvE9iYnPDYUHMCYuFMMUayg+vuthwUcuYX9np59bvlNysdRLgobtrey469HhGRlM8Ofrko5/8iEV169JkFKqPNr8R6ljmAFIQOOMqfRsfgESxJUifyFNTR0PU0f4EaGB1IwJTDx+Fl0vvkIyHk9CxJJ1OcYsX+yf3IgbmdpXEJJ1jkgc2T49pfoBT/xtdVHCx7CK6L1/TlZVkc0PqVLEImSiCILg9cvgYPuzL5KMDLkIciY/opMBY0nW11FzwvzDE2AQIID0rCay+1upFFvSHMli6Fy7GVp6kKqKsiYvJq7cJ0KyPX50GWcMUZx9FGFwRW3uj3il9BBlEbrFEcQ3z/khf9MuImPzORZDXCgBYw1SAebEMVTe/kXe+NTl8Ksn4MHH2P7qVrImR5gIsDZZWO8QdxIZTyZnHVEuR5SNMNYPCTx+0QmMv/RcOOd4mFIzegJbETS2dBE4R05y5IxD4hHHctkcx51ygu+kdqT3GQMYoerUmez/fhf1NSmciXP1xDcPWZAcA5t3wCnTRs8+HAiMN/CNS3jzh94GdzwFdz3MnpfX09HZQ0XCEiRsnOQoBEaI4ltKJ3GgWhw4RzYXkUwFTJo8naZ3nMnCP10OCydCgt7RvQ7DIlWmKpCExcXJFBJnqEicuZEbjoI4aN6wlbFBBVGfqnjgBKlIwZSGw7eNJ4whmtVE98Y9RFGIKVSm/ajHPWs2DC3AE+D3k29exhv/6nz4w/Pwu8fY//J62jrbAUciDAhs4JsHFTWDEXxQMTB+G/REEVHWYcVQU1PLuOUnMvGSN8AFJ0Fd4Jv8DKGoBXFwoSfwzVT9iFVxgMUYIhHfeetIZm0EwKmLsQum4rY040JDJFF8JbdUJ6to/un/Mum9/2cIfS3Fa8uGZHM5cgOMMuaAXBSRyH/ep8uUO0Ol/qgZEe2lSKljVf6mhdY0dPT4dxw+eCFAdRLGVIx8B4kCtKShvbvorii+Q2qqhZTvMG1Ye6HPzycL7G2Pu9Lv+9hHoCKAcdWH52aitQdaunpv1mz+UT5+GzTVgg1eN6hCew5auv0vJn+nVFQ7mVR/eLapASKBA2noztJ/CGALKeuHrc2H8Ae7iouvTFkH+zsh29uIw/893o9rEtBQ6Sc+Wir1g9EV+X0iF/UP6hmgJgX1w9VZYdF0822MInxNcu02uO9ZeGoD7Gyma+cBMukMxgk2EkxgqWioJ2xIwYQxMH0CvOlEWDIXJtb5betHrB09QYEI2N0KEsbRuThAle8EpqnWN3U5HEQg7WBvV6FC17ui4ldDyu/Ho2HdkS9dXMbifWVXBzy8Ch57Hja9Sm73PrraOojEEmQCCC1BZUh1Yx2Mq4dJDXDKPDh9EUxv8ueD/L5yuJa1OLNuZ0chy6YkuC1AXSXUJsmPPn5Iu3L+wwK0dfvjuu/50AgkA5hQ13ueGqFgfkGEv/63d9M70/hYMAZSIYythnAIBcgve34/iYAD3bByLTy0Bjbvgj3tdG3ZhUtnQCAXGMKc80GMVEhNbR12znRYMBHOmu/3mdpKP91DvXYMprxdOdjXGZ8XBkgRG18LFTZOJctv2GHeSDmgGzjQWvRm3BbbCFgHx9UN7ZomEeQM7O+AnuzAD64aqv1+P2pO3kodnTSootSxrPhmJy//c765xOG4hjrf3hoT9n/6Y+gdFnG4y1J8Mw395w2l62AkbnCL71MEiCL6zcDE6fShfd1yiKN3GFRD6TIV3/uN5DIVT1ecTx8fKE25uBubMssgkB+4ZeD5F+YjPs3jaAqqvNZyxRkO/sGbl+wAACAASURBVOdh3niFeURA4AOPAvTgf46AyPU2rbIWrPEZZQH+33wgxYiP05qinghGw325EDefGiALLX+MHLbRdgRcPqBTtHL6Hq+jYd/te76i6Pws5NP7fJO+CMjkIJvz+6gz/t/AQhj4JmAGH7yyxGOqH2TnGMl9Jr4OOBMX4WDXhD7Xw7KG6+07/YHEwceS9TpSy18Ifhf9nA/s5dNFgiHOf6DjS8Q/yMjvL2kgEwfDo1zvvPNfSCYgZSAF2AhCcHGT2JLDYjjWkxN/Pnu9vr7y+0Ph6dTwbSRx5Ltw6e1Ea6B5DBDvGdwM4n9MhHFBUfCoL9N7rTHC6DgJKXV00qCKUsey4puoAZ68SfzGiNeBpO9dV5GRvpkuudF7jXkXByhGKqjyOp8Tih6KDVSOgaY1UFCl73eP5AOovuUrdxqjoaI+3Ppmj/T980gdm4X55jutNv33nYG228GCE/2mO7zFHbLRcEwMEKwoCaqMFgcr50B/L/5MvpLe93sHm0axkV7+4uDQodzxDqEye9Dp9bkmF75zmNbBoK4pwzBtP3zva0z4oNcyKVo/ps/fBvhOOQYzrZIA1DDN9/XKM9BKGco1E/wISa/Vxq5klqPtZKTU0UWDKkoppZRSSimllFJl0DwvpZRSSimllFJKqTJoUEUppZRSSimllFKqDBpUUUoppZRSSimllCqDBlWUUkoppZRSSimlyqBBFaWUUkoppZRSSqkyaFBFKaWUUkoppZRSqgwaVFFKKaWUUkoppZQqgwZVlFJKKaWUUkoppcqgQRWllFJKKaWUUkqpMmhQRSmllFJKKaWUUqoMGlRRSimllFJKKaWUKoMGVZRSSimllFJKKaXKoEEVpZRSSimllFJKqTJoUEUppZRSSimllFKqDBpUUUoppZRSSimllCqDBlWUUkoppZRSSimlyqBBFaWUUkoppZRSSqkyaFBFKaWUUkoppZRSqgwaVFFKKaWUUkoppZQqgwZVlFJKKaWUUkoppcqgQRWllFJKKaWUUkqpMmhQRSmllFJKKaWUUqoMGlRRSimllFJKKaWUKoMGVZRSSimllFJKKaXKoEEVpZRSSimllFJKqTJoUEUppZRSSimllFKqDBpUUUoppZRSSimllCqDBlWUUkoppZRSSimlyqBBFaWUUkoppZRSSqkyaFBFKaWUUkoppZRSqgwaVFFKKaWUUkoppZQqgwZVlFJKKaWUUkoppcqgQRWllFJKKaWUUkqpMmhQRSmllFJKKaWUUqoMGlRRSimllFJKKaWUKoMGVZRSSimllFJKKaXKoEEVpZRSSimllFJKqTJoUEUppZRSSimllFKqDBpUUUoppZRSSimllCqDBlWUUkoppZRSSimlyqBBFaWUUkoppZRSSqkyaFBFKaWUUkoppZRSqgwaVFFKKaWUUkoppZQqgwZVlFJKKaWUUkoppcqgQRWllFJKKaWUUkqpMmhQRSmllFJKKaWUUqoMGlRRSimllFJKKaWUKoMGVZRSSimllFJKKaXKoEEVpZRSSimllFJKqTJoUEUppZRSSimllFKqDBpUUUoppZRSSimllCqDBlWUUkoppZRSSimlyqBBFaWUUkoppZRSSqkyaFBFKaWUUkoppZRSqgwaVFFKKaWUUkoppZQqgwZVlFJKKaWUUkoppcqgQRWllFJKKaWUUkqpMmhQRSmllFJKKaWUUqoMGlRRSimllFJKKaWUKoMGVZRSSimllFJKKaXKoEEVpZRSSimllFJKqTJoUEUppZRSSimllFKqDBpUUUoppZRSSimllCqDBlWUUkoppZRSSimlyqBBFaWUUkoppZRSSqkyaFBFKaWUUkoppZRSqgwaVFFKKaWUUkoppZQqgwZVlFJKKaWUUkoppcqgQRWllFJKlZIjXQCllFJKqaNDeKQLoJRSSqlRyIHkoysCJjBHtjxKKaWUUqOQBlWUUkod3QTQ+v7wMrBixQq6u7uxxlJbV8uyk5cd6VIppZRSSo06RkQ0yVcppUazfNCg+Gx9OIIIoyVY4XjtxqpDKKc4wVhT/jSKto04IYoinHOFDI8gCAkTQb/PSySjO/ND4PiFx/Py2pcxxrL85JN54qknjnSplFJHo9FyLVFKqRGimSpKKTXKXf+j69m9Zw+IcNbZZ/Hmc998eGYs8Lvf/Y7du/f0viUCCNZaLnnfJVTVVA15Nvfecy+bN28e8Kb7ogsvYnzT+AG/l81kufXWW2lva/eBkUNkjMEYg3PC+ee/lanTph7aBAR279rNXXffxQMPPMie3bvZv38/3T3diAhhmKC+vo6mpiZOOeVUzj77LJYtW+bnO5RAzuFgIFWRQpBRW0Sl1NEjykXc8l+30NHZGb8jzJs3j7PPOlt7eFRKHfU0U0UppUYpcbB58yscf/wietLdGAzLl5/Ck/mMgZGslAs45zj7rLN59LFHe/vWwGAAay2bNm1i2vRpQ57PW9/6Vu75wz0lbxsMgvDQAw9x5tlnDvi91pZWTjjxBLZv315UvkNj4hX4y1/8kvf92ftet6wAO3bs4H9/+7/87Gc/4+lnniaXzQ3wUYkDEqakbLNnzebiiy/msksvY+lJS3szkEZb5ELgpJNOYvXq1aMrU6V4XY3G9Taa6PopX+/prvRnVRZxQiadYf6C+WzdutUHs0X48F/+JTf+241HunhKKTVkGhtWSqlRSsTxN3/zN6TTPRh8VsUzzzzN3XfdfdhGZ7GBxRrr518IQUAYhgQ2eM3vDlZVVXXJPIDCz0Fw8HlYa7E2iOuO5f0HBmMsYeL1Ezdd5HjiiSc4/fTT+dhf/zUrVqwgl8sVAijF/+WXoXhZDIaNmzbyne98h2UnL+MLX/gCuUz/gIw6uCgX0dnRSWd7p1ZyBxI3Q+ts76Srs0tHcSqX8cd7Z0cnHR0d6PPHYWCgqtJnNhpjsMbS1NSk+6hS6pigQRWllBqlNr+ymYcffrjwuzEGEeHLX/7ygNkRagQJfPozn+bss89m2/ZtiDgcgkhvEGWgbBnTp+ZvMIUK2jXXXMNpp53G9m3bR778x4hrf3AtE8ZPYOasmfR09xzp4ow+Ar+65Vc0NTWx9KSlpNPpI12io5I4eODBB2lqamLixONYs2bNkS7SUc0YQxiGVFUVNRcVobKyUoOjSqljggZVlFJqNBK47bbb6Izbn48bN44w9NkUL7zwAhs3buzfea3qZ6AsktKMEsEYcO4gK9L5J9ZXXHEF3/ve98lkMkUZKL2MMYX5lTD9Ayv5oIo44dlVz/LOd72THdt35AusBuI3Fb/97W/p6ukiiiJdV30JOBG++s9fpSfdQzqd0XV0qOL9zFi4++676Orqoqurs3B8q/IZY0gkE8VvUFtbe+QKpJRSw0g7qlVKqVGopyfNN775jUK/HB/72Me46ab/YOvWLXR3d/OD667juut+cKSLOWo1NjSyYOGC10/bF3DiGDu2sd+fXOQwxnLzzTdzw49/POADVYNPYzfGcPLJy3nnO9/J8pNPBgMHDhzglv+6hd/fcw/d3d04F5VOHwfAMyuf4fIPXc5dd96FDY7Qs46+/W8MtQ45HP1QxBXc/OOf/fv2s+LxFUMr1zHMOWH9+nW8+MKLR/fT/+HoC6bcaRiID0tu++/b4mCK+eNr/jPc/fGYOKiSSJS83dDQMIwzUUqpI0eDKkopNZrEN7M//em/s695H9ZYkokkH/zgX3DgwAGuu+46AH7605/y6U99ihmzZhzR4o5WS5Yu4d577x1cxeAg9SUbWF5c8yIf+chHBpxMYAMiF/GxKz7GJ//+75k5cyZBYEvmeckll7B//wEeuP9+PvLRj7B///5CoCyfahTYgIcffpjf/M9veNe73nXoCzsYfYflfq31MgwVqnwdtPCA/1CnGQ+jLSIY8V/8wXXX0RP3L3TwGTO4zn/7dkT6WpN0PnNhRIhfV8ZSuh8OVJ7XWjYBGxhWr1qNE0dgw/htOXi2SvE0DjbtvmUaqKPgvvvUQNM41P3pUIePP5R5DDTt/HaIf7/nnnvYsHEjINi42eWA6/FQ5lnOZ8sZTn6w7x1M33n2/V3i4xLj3x/MtOO+fiorKwtvGYP/XTtUVkodAzSoopRSo0l8c3nzzb+IfzaccsopzJo1i09/6tPceOONpHvSdHV18vOf/5zPf/HzR7K0x4bXuKG/6aabDtovhXOOq6++mi984QsHn4aBxrENXPyei5k8ZQoXX/wudu7cWTRbg3OOdDrNhz/8V7zlLW+htm6YU+Kdr7e0tbby8ssv89JLL7Fx40a6u7oJw5Cx48Zy8snLmTNnNlOnTi1reOq+89u9ezdbt25h7569rN+wntbWVkSEVCrFhPETmDdvHjNmzGDylCnYYID5FSrrhj179vDkE0/yk5/8G/nGVFEu4smnnmKgmm59fT1Lli7pP82iyn9bWxvbtm1nz+7dbN6ymW3bthWyEepq61h4/EKmTJnKvHlzSSaTQ1sfr8VA8969rF+3nk2vbGLLli20tbaBgWQySWPjWBYsmE/ThCamTpvK+HHj+1eyBVpb23jqqSe55pprMMYQRTkymTSPPPIoyWRpdoAxhjAIOf2M00u2dXdXN888sxJECMKAM844w08+DjZs37adF198kccee4yuri6CIKSurpbzz7+AZSefVCjL1q1b2bx5cyH4dfyi4xk7buxrr4eirKTOjk5WrlyJE58yMmfOHCZPnvzaFe/ivznYum0r27dtZ80La9i6dSuZTAYw1NXVMnv2bKZPn87UqVOZMmVKYR0YCx3tHaxcuZKvf/0aJJ+yYmDN82s4cKClz3qEIAg5/bTTCBJBYTl27drFunXrCp9btGgRYxvHDjpw4JzjiRVPkItyiAhTp0xl5uyZ/VeZ84GNVc+uor2jHYClS5f2nj8cdHZ18eyzK3nmmZWF805FRYo5c+ZwyfsuIZEq2jfywY2i4NnWLVtZt24dq1atorm5mSiKSCQSzJwxkxOXnMisWbMYP2H8oAIjNrA0NvZmBIoIY+rHaEBFKXVsEKWUUqOHE1nz/BqxxorBCCDX/+j6wt8uOP8CASQwgSxetFjE+fdHohxRLpKzzjxLAhOIwZS8UsmUbN+6fVjm86cXvbOwvPlltvjfH3340YN+r62lTaZPmyH0KZvByLlvPnfI66Wnq0fGjR0nge2//AYjF77jQomy0aCnl8tG8utf3TrgtPKvO++4c2iFPogb//VGmTB+goRBomR7EldnwyCUZJiUyy59f+E7S5csFYMRawI5dfmpg5rPQw8+JOe9+TxJJlISBgkxWLHGlswnsIEEJpBkIikfeP8HBpyOi5x0tHfIJ//uk9LY0BhPw5TsJ9ZYCUzQ73XyspMPWr69u/fKRz9yhUwYP0GSYbKobKZ0ujaQMAjl+IXHy8qnVx7ayj4En/j430pFqkICE4jFl6V02/jyJMOk1FTVyHnnvkXuu/e+ohUl8vmrviCVFVWFYya/v+bPE4ENJLShfwUJCW0odbV10t3VU1KWDes3SCqZksAEMqZujLS2tBb+dtWVV0kiTPj1Q++5KbCBXPu9a3snEolc9Y9XSRiEYrESBgn5j5v+Y/ArxImsXvWcVFVWFcr+pS9+edBfb9nfIue/9fzCOu27PvP7TBiEkggTcsryU6Srs0sy6Yx89zvflcmTJsffsWLjfde/+u9n1liZ2DRRmvc0l5T/xzf8WJKJZOF147/eKC4a/Mmova1DaqprCvP5xMf/9qCfzWWj+Dj15fzDPX8o/O2Rhx6RWTNnlRwz+deC+QulpztdOrG4iC5ysnf3Xjn/rRdIKpkqfMevt0T8u59fRbJCvnHNNwe9bB/+y78qHGPWWHlu1XOD/q5SSo1m2lGtUkqNIlEUccVHryg8pa2tqeUd77gQ8E/23v/+92MwROJYu3Ytt956q//iH1mT/5EmTrjt9tvZt29fSX8K+WY79fX13HDDDdjQDnrdB4Hl7W9/O9OmTjvoUNF33HFHXIAhLkCsZX8LF7/zYj76kY/GT5r9ENDW2PhfX45clCOXy/GLX9zM9GnTeXbls0yaNGnAEY0O5kOXf4hzzjmH++6/j0w2TRRF/YaXzkU5IucQhGw2y3/+/D9ZtHARe3bv6V1m8dkUW7du44YbfsyBAwfi46G0LCJCJFHh5cRP1xhT+tE4PHHvH+5l+vTp/PjHN7B3716yuWxh2/qH8/5nJ47IRTjnePmllznnzedw7fevPdRVf3ACL734EgsXLOQH111LT7qnZD3nO0XND8PtxJHNZens6uL+++/j6aefLnx2185dfO1r/0x3T1dv18tFI1JFEhG5iJzL+VeUJXKRz3LokyGQ30Z+fjm6urrZtnUbpy4/la9d87XC8OHFZRMRzjzzzKJF8ykLuSiHwyHOHfLQ69YaJO7ryDmHfb3MqXj7fu2fv870GdO5+/d3k06niSQq/rNfvni6URSRy+WYOnUaFRUVdHR08t3vfJcdO3b45cr/J/mXIxLnyxS/RMR3mNyneEEQks1mC69UKtV/n3ytxRGHtRYRwYnrl2lU+JwTxDls3HZMRGhpaUEi4er/ezUXvO0CNr2yqXAtkcJaMCxcuIBURVEGVlHZbrnlFk5adhL3/P73ZLNZ/x3jrzm5KBuvGYcxhnQmzeeu/Cxnn3U2u3fuRtxBmknF740ZMyZeRsHagOqaar12KaWOCdr8RymlRpEXX3iRJ596EoPFGsNf/MXlTJ48CfCVrQsvvJAxY8bQ2tJKFDm+/OV/4sILLySZGsEmCn9sBIw1PPjggxBXavMVznxla/HixUwYP8F//hDS1ysrK/jclVfy8Y//TWGI7GIrHl8xrJWMSy+9lLt+fxfWWJw4qiqrOOP0M7jwogtZunQpAC0HWnjwoQd55OFHeH7NGrZt28bb3vY2JoyfQGhD3GA66RT40Ic+xC9u/gWZbIaJTROZOXMmp5xyCm94wxtpapoAGHbu3MEdd9zBXXfdxb59+wDD2rVrueD8C1ixYgXJimRhfTZNmMA3v/ENnPOV2G9961vs3LkTQaiuquYrX/kKYdDnNsZAQ0Njv053xQmLFi2ipraG7p5u6uvrmTF9BicuWcKyZcuYP38elZWVdHV18cD9D/Dft93Gho3rAWhrb+OTn/wk5557LosXLx5yc4UdO3Zw2mmn0dnZVXjvlFNO5fzz38ry5cupra0ll83R1tbG008/zctrX2bNmjVs376d6upq/vzPP1DYR2pqa/jud77rF9MYfvqzn7Jq1SrCIKSmuoYvfelLhInSdSROCBPhQQN7AM5F7Nmzh0/9wz/w1DNPEQYhDQ0NzJs3n6VLl1BTU0tnRwc7d+1iztw5vdMWOJy1ZHFCLhfxuc99lu9973uFgGEYhEyZMoUlS5ewaNFiZs2cSUtrCy+99BIvv7yW7du2sWfPHr74xS8Cvm+PL335S3S0dyAIt912Gw8//DCC7/PoM5/5DE1NTSXzttaSSCRKhwnmILvHYRqpbf++/dz8i5u5+uqrERGSYZJ58+dzyinLmTBhAt1d3ezbt483vumNpU124vL9/u7f86HLP0RP2g9XnkpWsGzZMt7ylvM488wzCcOQ9vZ2fve733H33XezZcsWLJZHHnmEM886k0cffZTx48cPuPwu52hoGFN4KwwDv+60+Y9S6lhwJNJjlFJKFSnKDL/yc1cWUqMb6htk145dpZ+NRL79zW8XmshUpCpk9bOrR6RMR3Pzn3POPmdwsx8oLd+JZNIZecMZbyg0GShuGgJGrvrHq8puXrR3z16pqa4ZsPlPfV29tB5o9c2Kym2+FDcJ++IXvlhoyhLYQOpq6uT+e++XbCYrEknp9J1Ipicjv/7Vrwvrn0Ka/iCa/0Qi7a3tcvZZZ8uv/utX0trSetCmUS4SeXbls/2a29x/3/2ly1Akk87I4kWLC82IGhsapbur+5DWhziRz37ms/Lpf/i07GveJ+medMnfiufZ2dEp555zbmHft8bKlZ+7cnDzex0/vv7Hhf0qDEL59je/XVqWPmV3kUh3V7esfXmt/Ncv/qt0n+3z+UsvubTQ5GXqlGnS013axOe1bFy/sdDcIxEk5PTTTi+s74suvEgO7D8gmXSmpJwucr1lcCJRzslV/3hV4XuBCeTm/7x58CvHiTz/3PNSWVFV2D/+6cv/dPDPRyJ33nGnhDYsOVa/evVX5cD+Foly/fdBl3PS1dEla19e69e7SL/1+ImPf6KwDNYE8sLzL/hj5mCvonXwkxt/UnJMF5o/DfJ4bmttk7rausI58FP/8KmBV1XkJJvOyrKlywrzOuvMs6SqokoAaZrQJPf8/h7p6uzq88X+5z2Xc/L0U09LIkwU9p/ABPKb23/jzxd9yh/lnOxr3iennXp6YR0B8sEPfPCg51RxIt/65rd7z3W19dLR3jEyzVeVUuow0+Y/Sil1pBmQSNi7p5nrr7++8Oayk5cxbvy4ko8KwqWXXcrYhrE4HJlMlu9f+/3DX+ZRLpPJ8Mqmzbyy6RU2bdx00NfmVzbT2dHV7/tRFNHS4jumlKJMDREhMHZIGQs11TU0NjYO2LSmvb2dHTt3+qGVy32CK7Bp0ya+8Y1vFEbpiJzjZzfdxDnnnkMYxpkLfbI5EqkE7373u/nt//yWVEXq0GZvfdbEAw8+wHve9x5qa+t806gBGAtLT1rKDTfcAICLm1isXr26pDwHF2cNDXaYW9P7uubr1/Ctb3+LxrGNPrvLlP7dTxiqKqu4/fbbGTd+PIIQhiF/uOcPg5vfwcTV9FWrV5FvhjF37lw+9elPkUwkB+7s0/j1VVFZwbz583jv+95b2pFwn88fSnOt15KLcqx4YgWJMMFVV17Fz3/+c8Y0jCGRTJSsK2NNabbDYbZz507+7JI/IyoarvzGG2/k81/8PGMa6gccotwEhsrqSubNn3fwDL94NRoMxgxiXxsl2RYPPfwQPek08+bO49FHH+Utb3kLlVWVpR8y9OuM2ljDV7/6VT+MPIbq6mruvPNOLrroot5Mp6Kv2MDQ2NjIIw8/zCnLTyG/895666289NJLA5Ytl4uoKipLdU01lZVVA35WKaWONhpUUUqpUcAEhh/fcAPtbX4UhzAM+NgVH+uXom+MoampieXLl2Px7e5vuukmNqzfcCSKPUr0r/A89vhjzJo9k9mzZzNnzpyDvmbPmc21136/3ySiKCKdThea/eT5vgUipk+fXnZRgzCgoqKi37TB9/ewbevWIVXSBLjvvvvJ5XyfJs45Lvp/7N13fBTV2gfw35nZ3Wx6QieQEAgldAQJRXpHQUBErliwUeRiL6ivBXtFvdferljw2itVBUSudBJ6DS2FNEp62d2Z5/1jZmd3k91kswQC+Hz95BPZzJw5c+bM7Mwzp4wbj4mTJsA5oUl16Y8aOcroGuT3BisFBGqcgpiAm6bfpHcV0MZh2L9/v1+bC7hoSDvP3IMn1W0kLDwMHRMTAQB2uwNHjh5BRbkt0K0b21X1WVuICDab3fX3ytMqe3MOx58QEBh3xTg8+/yzCAsPCygNZ3e5s2XFrytQWFQIQJvifODAgbjl1lv8WldVVI8ZoXxyDhNSOQBXORh3HhAQiI6Kwrp165DQNgGA1kWqWgRs374dixcvgSRLkCQJY8aMwchRI2uccUk2yZhx2wxtjBQhUF5ejmeffbZqPRXabEkNG7pmgbJag73P/MUYYxcgDqowxth5QFVUfPvdt8bgiu3btcekq66quqB+Izv/yflQoUKWJaiKig8/+BCAHzfQfxPOgTRrIglJG4yx0qKqSl6nUnaOrxLwG1YChJAQGhrq9c/OQTLPhJCAb775GgKAJGRYg61448033TdS7cOS2WLGlClTarFBBDRmhMlkQmhomLHP5eXlfq0XcPl4aQXiczmhBdBatGih1yOCw+GA4nAEtm23tNsmJEASWnDnyJHDuPbaacZgojVVWeHHQ6g/9b7GNISALMl45tlnzigdIuc4K2fHN998A0nSbmXNJjM+//xzv9f1pzWYEM7zkS6MoIoQuHbaNNfUxV5apXggrRXOO++8A1VVtMGlVcKMGTP9254kMHLkSAh9zCZVJaxbtx4lJSVe89akSRMIoQ18GxUZaeSRMcYudBxUYYyx+kbAX3+tw549e4yPZsycob3Fq3zDSQBUICkpCf369tdnnxD4/ocfQApVfwPN/EPaDCRy5UFQ4XpgrXFGEp9JazOJaLNqeN209gb9DDjsDuzcsRMKKRAAmjdvjibOwSNr+tbXgwljx14e2MZr+QDtXop+d+c5U7XYjMnsfeaVQLdLKnD5FVfAZDbrs7sQvvn6awwZMhSff/Y5ykr9CyydC0OGDkGnTp3Oz9lZSKvnu3btgqJqs+W0bdcWLWNb1nfO6pEWCJs9e7b2PeDncXPYHdi0aZMxM1JYWBgGDLjM72BHbGwsoqOjjTB2SUkxCgsLvW4/NNTV4ik0LLDWT4wxdj7i2X8YY6w+kda14NZbb4Xi0FqpmM1mDBk8BIUFhd5XIa0p9XXXTcOGDeuhkoJDh1Kx6ItFuP766/nNn67ydL7VLeNBDyyYzVW/Ip29XAoLvR+bmgghQCrBZrPBW/MOAa0lEqmBB8iOHj2K7JxsANpDUpMmTVzjqPiVSSA+vhUaN26MvLw8Y4pffxABqkNBaWkpCgsLkXciDxnpGTiWdgx5eXmwVdhQYauAzWaD3W5HXl5ebXfvzBFQUVGB06fzcfr0KeTl5uHYsWNIS0tDeXk5KioqUGGrQEVFBdat+6tOWg8BMLpAdOyYiMWLf8GUKVNQWFgIhRT8739r8ddf/8PDDz2MW2+7FdNvnI6mzZoiJDjEFQjzNubKWTR27OXn57VEPxSZGZlIT0+HJARUVUWLFi207m1/09eFQgBxreLQuXMnv9chIpSUliA313UeSrKEJ598EqrqX3CXnFNLQzs0drtdveF2fQAAIABJREFUa+XnvLzpdUiSJESEh4NI+44LDeHxVBhjFw8OqjDGWD3bsnkzDqYeAKAFAOx2B8ZfOd5nMMA5Fa9z2kvn+AzzHpyHiRMnISzce9eSvxeB8NAw2O32aoMCRuDC7eafCDDJpipTpRrrCIEDBw5g4KCBgWQLKqkoKiqCt1e5kpAQHx9/Ri2OtIANjGmUW7RoYXSR8JfVakVwcDAIVP1ztV5uzlZS69etw6uvvYYtWzYjPz8fpaWlxkOXFpzQi9mfcU3qituxLSwoxLPPPouff/oZp06fQnFRMewOu/FQaKxC5FdQLlDDhg3Hmj/WYNbsWdi4cSMEtKm7M49n4qmnnsLLL7+M5s2a4+opV+Pee+9D48aNzmkrNAFtINJzHcjxi/6w7hxLBdCCo82bNz//8nqOaAPqCkSER9R64GC73Q6bzdXVsbCgEC+//IqfW67dCRzdIFrvsqogJJSDKoyxiwcHVRhjrJ59+tmnkCUZqqr13ZdlCRkZGb4f5pwP/yppAQP9wefEyRNISU52Pez/DR8wCFowoV+/fvjll5+1MWaqG1KAqErwROjj1jTWu8xogQUtEefDy/btOwJ+4Dx58hQK8guM4Ji7Bg0aILZlbO0TdU//xEltFAhSA8sgtNUiIyL9CygQsGPHDjz2+GNYsmSJNuOQHsgiIgQHByMyIhJB1iCEh4UjJDQEwcHBsAZZsWr1Ktjs9rNeVU+eOIk333gTr7/+OgoKCwDAo/wbNWoEa5AVISEhCI+IQHCwFdYgK7Zt24aTp07WedckSRbo1qMb1qz5E8uXL8cP33+PZcuWIS8vDwRtPJ/DR47gxZdexNtvv43x46/EPXffjUuTLtUSOAfBDlVV6uUa4k+dI4JHKycJEmRJPj+DQLWlD+FyNgf4dRJCQFVUOBwOPVglICQBs2zyc/tahMt5vgshQRKSNo6O++r6/wdZghAUFITy8nLXoLUXwzFjjP3tcVCFMcbqUXZ2Nj7/fBFUVdW7nFggyzLM/o7lQEB5RTmEEHA4HPjXv/4VWAuKiwZBkgSsQUGIbhAdWBJ6UKV79+5YtWpVlfRVFdi4YQMcdgdMllp8jeoPDx9++AHKyss8gjVOiYmJsIZYA8u3Ljratd+SPihkIGw+xn3xQEDeiTyMGTMG2bnZxv5ER0dj5MhRuP6669CzV080j2nuatWiz35js9vRpk0bHD+eGVD+/KUqKqZPn44lS5fApI+TExQUhO7du+Pmm2/B8GHDkJCQoA0C6/6ApwLjx4/H0mVLz1rezGYTrpwwHldOGI+y0nJ88slCLPx4IXbt3q0N3EsCJSUl+OK/i/Dtt99iwYJXMHv27TCZ5ZoTvxDpLbn8mQYpKira7V96y6KLoOuPxzTVtaQGEPyTZBkm2aSPiULo168fFi36osrMczVxtkCz2+1aVyxR6Y8EhIWFISQkBGWlZR4zATHG2IWOgyqMMVZPSAVeeuklFJcU6dMjA2+88QYGDBjgdxoOh4IpU67G/gP7YZJN+PmXn7Fjxw50697tLOb872Hs2LF47bXXvLw5J+zatQtZ2dmIjW1ZqweggvwCLFiwwGsrFQAYPHjwmWUagCXIYowDQgScOHGy9okQUF5eBkmSqp29paS0BAMuG4Ds3BwICEhCwtR/TMWCVxagabOmxhgy7sEK5yCaJpN8TganffmVl7F82XIA2lTZsS1jsWTpEiR2SISp8rg5bsPcEAjlFRV130XJrb64dz8LDrFi9u2zcduttyEtLQ1ff/M1Xn/9deTl5ulBqArcf/8DCA8Px/Tp08/7t/uBdJty1pUa6wUBISHBHlvLycmp9fbOljMZh6eoqAg2m83nNaJOkTbWiWxyBVAKCgoQFxdAaznnueOr5YkATGYTgoKCoEKF1RrsZSHGGLswXQQxfcYYuzA5HHb8/PMvxlgTnTp1wowZM9CxU0ftJ9HHT8eOxjJdu3bBrFmzALgGDHz/vffrd8cuEkOHDkWHDh28PhyVlZdh6tRrUFhYpH1Qubl7Zfrf/vOf/6C4uMTrwxKBMHrMmDPOd1xcKzRq1AiAgCRJyM7OhqPSmCHVIuDkyZPIzc2tcbDK3bv34MjRIwAIkpAQGxuLN994E82aN9NayAh9GmD3By5n0EIlrYvJ2UJAQX4hXnrxJWPKYgJh4ScL0aVzF23wXvc86TNrGd0viODwMt32WeG2DZPFhDZt2+Chhx7C5s2bMXPWLGOgYZutAvfffz/y8wv8T7CeEAiyJNVqpiwhBDIyM3zOjmUsJwm0bBmLhg0agkhrnZaWlg46s4mz6oRKatVrhp+xEVIJBw4cREVFhWua7bOIAARbrYiKitJbuQikpqbieObx6qeQ9jWttID2ZFHNIX/i8Sfw6oJXMeHKK7nrD2PsosFBFcYYqyfLli3D4cOHtNYAUHHXXXdqD3MK+f9wIIC7774bLVu01B7UCfjll1+gOM6Dp4sLnGySMXvWbB9/FVi/YT0efPBB2G0O50fV+uqrr3DvfffB2VnBMzWB9m3bo2/fPmfcMiIoKAidO3eCBAFFdSA9PQ1F+qCe/tQrIsK6detQVlZWY9eh/fv2we7QHoAJwEMPPYTohtHe96HSA1h6RnpArWj8bQFBRMjNzUFJaYmxXmyLWAwZMsTHCp55tdvt9dr6QVVVxMbG4u2338bIkSMBPfh64uQJbFi/3sdazrEtKpXROZwWOSoqSs+J3lpKrcXGBbDmjzU1BvOIgNDQEHTs1BGAVlaHDx9GYWFNwabacZWjn0/+QpvZxuP8rsXuExF++OF7EAiSOPtdvIQEBIcEo3u37tCuSypsFTZ89/13Z2mDwG0zb8M999yDHpf0ODvbYIyxesBBFcYYqwdlpeWYO3cuAG06UAkSRo8eDUjaW1jhfNvn642gGyEJzJgxEwCgQkVWVhbef/+9s7wHAsEhATbfrtRioWrK58mrSwKmTZuGqMgoL61VtHFB3n//PYwYMRzr16+v2upBXyU9LR2zZ8/GzTfd7PZCVx/IVV/IGhyMn37+SeuOcoa7LyRtLBAVKgQklJSU4rnnntP+5s+4syrhk08+gc8K56agsEAfi0GASNXGsSFU/7ZaL5d/zvlnlVl3quOawUg7ZxRF8VnmgPZAXFHhmtWEQIiKjq55Fh19M9u3b0fqodS6bTHgZfBOn9mQJa2ljwDm/nMunDtokkzawKJeqKpi1C1VUVzBiXN0SkmSQLNmzeDcqKKq2L9/v/bPmlpzASguLMZ/Pv64+oVIKxMBgYkTJ2qNHYRAWVkZpk2b5tpWoNwGiXWOdVVeXub3umFhYR4f/bFmjRbwrukYEFBUWITvvtMCGiqdxVZcboQQmDlrphbIgQQhCXz04UeBJ+jv+LbncgYwxhg7yziowhhj5xoBa9b8gczMTBBUyJKM62+4HnGxcdrf3V+O+hFYIRWYOHGi8VbVoTjw5JNPoqDGLgKBEULAbrdh+PDh6JPUx++f4UOHIy8nr9oAUYA5qquEqmjctDG+//57hIdFeA32EIA/1/6Jyy67DN26dcOsWbPw9NPP4Lnnnscdd9yBwQMHo0uXrvjggw+MKbBdudbSk4SE6TfeiA4dOtRJnkkFRo8eA1mSQVAhALz77nvYsnlLDSsCUIEdO3dg1cpVIKj6DEK+NWvWTH8A1QbE/fPPP2veBoDvvvseS5cvhb9PVCaTSZsaGhIAQkFBAZKTk7Uk9RZaVXpc6DMPOYMxAgJpacdwMq+a1jH6Ic7KysKUKVNgd9jPSpBPVVT/q60AUlJStDFroE2THR4R4XVR4xoCwqnTp5CRkeH857khgEGDBsFitoCgwiTJWLxksV/7SyrhxZdeRN6J3Bq34fy5/PIrYA0K0rvTEVasWIHvv/verwCGx+9KmjVtBklIWplLEtauXVtDgq59aNOmDSThur3++eefkJ2dU3MrMaG1ZsvOygYAbTajc0EAw4YNw6CBgwEhoCgKdu7ciTv+eQeKi4r9rjuqo5oAnn5+7ti2A6++8irmPTgP337zrRb0PE9i6IwxdkaIMcbYuaMSKQ6Fplx9DUlCIgAUFhJGFeUVRGpg6TnXGzN6DElCIgkSmSQTLV+6/IzzOWjgIJKFTALC40eWZJKFrG3Pz58GUQ0oMyOzynYmXDmRJCF5pC9B+/dfa//ymb/C/EJqFRdPcFsPAJlkEw0fOjzwfa+0HSKi5555jmRJNvLpzJ/7dgWE6+/6b7j9rfKP8/Nxl4+rm7y6Z1tRafqN041tmWQTxTSLoWNHjxEpPtZxqLRxw0ajDgEgi9lCkpAp6dIkr+vs3rWbrEFWEpCMfd6yaYvPuqw4FPpk4SdGGbmXzU3Tb6p2nx6a95BHOU+ZPIUUh+I6BxTy3K5KVFZSRtFR0R7H7LlnnyeH3eG5jqL9KA6Fjh09Rh0TOxrbcv6OjIikkqKSavNYI5XovXfeoy//+yWVFpeS4qj+pFcVlQ6lHvLYh+ZNm1N5WYXX5T9d+Kn++CpIEjJ16dyFbBW2GrdDRHTo4CEKsgRp57eQ6aMPPwpoF4mIevboqZebdi26btr1ZKuw+VzeVmGjF55/wbi2uF8P5j8x3+d6ikOhl1582Ti2ktC2t+jzL1zHuDL92laQX0DbU7Z7TXfZ0mXGeSMJmbp26erKf3VFqRI5bA5qm9DWdS0TEt1y863ksDmqXefll172qHPO/7/v3vu8r6aoZK+wU88ePUmCRLIkU/duParJnG8Om4PW/bWOTLLJY/tjx1xOBfkFpCq+d1pVVLKV2yg9LZ3unHsnnTxx0us+lhSVUMsWLT3O+dtn3x5Qfhlj7HzDs/8wxti5or/xO3jgIBYv/sUYrHTgoEGwBFkCS9OtCfVbb76Frl27oqy8DCqpeOPNNzB6zOg6fxNIQI1jHnhd7xzM9FLn9LJ7+JGH0TymOW699TYAru4BrsX07jz6Pjp/C/dEKpGFjNtvvx3PPvts3WdbCHz00UfYt28fNm/eDIfiQHZONnr06IGRI0Zi7OWXo2vXLlBVFaWlpVi/bj1WrlqJDRs2AAAaNmqIVq3isWXr5mrHdkhISEC3bt2wefMWAAKSEBgzZgymTZuGKydciZiYFrDZKnAi7wRWrVqFFb/+ih3btwPQBmYOCQnB5s2ba94hAu6951688847KCwsBBHhx59+xLChw3DnXXeiffv2KC8vR2FhIfbs3oN/zv0nBASsVivee+89TJ06FQSCEAKPP/4YVq5cienTb0SPHj0gyzKKi4uxYcMGrFq1GqtXr0ZhUQHMshnTpk3Dp5996nWw4kClp6djzpw5aNqsKTp0SESvXj2RlNQHLVrE6F3NgNOnT2HH9h34feXvWLNmDfLz80EgmEwmvPLKKwiyer9eXDbgMm0mMRBUUrBr9y6MGDECM2fORI8ePeBwOHDy5En89ddfmDt3buDTjleHgFmzZ2H27NlaPlQVX3yxCLt27cTkyVdj4IABiIiIgEoq0tPTsWbNGqxatRp79+6BJElI7JCIw0eO+NXlRpIk3Hvvvdi8aRO+/e5bbXBhcuDmm27Cq68uQP/+/XFpr0vRpGkTFBcVIzU1FUePHUNy8lakpaWhT58++Onnn6qkO3zYcHTp0gU7d+0EAOzevRvdunbD3ffcjYEDB8LhcKCgoADbt23H9Tdcj6hobRwZ6NOxf/D+Bxg1ejQUhwNEwMKFH2NbSgrGjB2LIUMGo1GjRrDb7MjIzMBff/2FNX+swY6dOyBLMpKS+iAjIx2ZGZl1Wu+qI5tk9OvfDz98/wOmTZuGopIiAALLly9DQpsE9OrVC71790a37t0QFhaG0pJSpKWnIyMjHXv37MXB1IM4fvw4AODpZ56uugEBJKckIzMz07hWCiGwdu1a2G12mC3mc7KfjDF21tRnRIcxxv5utBYEN3m8rfvyv1/WQcJEdpud+vbp62qtIpto86bNAadXXUuVQH6iI6MvvJYqbtsjlSh5SzINHzZcb50RWDlIQqKOiZ20lgBuLY3qmupQ6djRNBo8aAiZZbPRgqFK6xq3t/ySkKlFTAvasH4DvfTiS/rnvluqkEqUdTybOrTvQABIgpYGADJJJgLgtUXTiOEjqLysguY9OM/vlipERI89+rhHKyFZkt3yrn0eHxevtczQW6GoCtGN199o7LPk1qrGPc9GPiFRi5gW9NMPP9He3XvJJJnqtKXKo//3qMf5D4AkIZPQWwdp/3bto9ZqSFBYaBg9cP8D1bb4UBWVXn7pZQqyWD3KB5XSkoRMRw4f8Vg39UBq3bRUUbWWJzNum0lmk9m4fjj301XfZLcWGVq+Bg8aTMeOHqNmTZv51VLFee7YKmw0Z/Yco56712v3MnX+zXmdGH/FeJ/pfv/dD2QNsmp1WJKN/DrLR0BQSHCI5zXNLT9333UPBQcFe7SuctY31zH3bMnWt09fyj+dT8OGDjM+OxctVYy8q0Q///QzdWjXgcyyucp1y3mOyJJ2HD2uHZAoLDSMigqKvCb/55q1JOBq6ScJmTq070AV5b7rM2OMXSh4TBXGGDuHCgsKsWzZMgBaa4d2bdth6j+mnnnC+sCNt902QxtYU2hjqzz11FN+DRDpi+JQ6mygTl9vXcvKSqu0YnEuawzI6WVV7S24ok/bqv3IkgwiQpm/A0v6Sx/D4ZJLLsHvv/+OrVu3YuDAgTCbfb9hJbf/AO3NbOdOnfH5559jz97duPnmW+p4bJlKWZYF4uJi8fvvv+HhRx6G1WL1GB9EErKRP0mSAAJGjhyBjIwM9OnbB/Hx8dp+kKpPt+ptI0Cz5k2xaeMmDB08VEtNry+KPmiqc/+JtO28+OKL+O3332Axm9G/X3+jBYnD4aixrj719JNY8OoCWCwWEAiKqgAQUImgkjaoqKKq2jS++mC5QgI+Xvgx3nzjTVhMFmMMGOeYGao+doxCClQiDB4yGNu3bcf48eOR2CkRca3iQCCPQW8Dom0WQwYPQVxsnFEukpAAfUwQZ57czwcVhN69LsXGjRvx0ssvVftWX0gC9z9wP955+20IIWkDrUJA8hgYmWAyyVAUz/OaiIwWaCqpgY8lIwCzxYz3P3gPixYtQnhEuP6xBJUUo86ppBiDHIeEBOOVl1/GH3/8gbhWcWgV18pIrtrBjPUsms1mvPX2W0hJSUHHDh0hhKveCf1YE0Efk8fVsqxzl84+05101USsW7cO0VHRUFWtjgi3chT6OEIegwa75efVBQvw408/IjwsXKtnla6jzrKQhHbtmj9/PtavX4/IyEjExbUyTgNf00trdV2BoipQoUJRFVQ4x206gwYu48ePR3JyMm6fczuCg4Mh9PFhVFK16aL1euI8jkIIgIDoBtGYN28ewsLDqiZKQMeOiQi2WrW8S9rA1vHx8TCZztHYMYwxdhYJqnwnyxhj7Kyx2+xYuXKlfpOuDWrYsWPHM3+w1h/YKsorsGrVKqiqClmWERoahoEDBtR+WHL9m2HDhg3IP51/hpnTmMwmDBo4CBb3rgsEbNq0GSdPnPDaPeiyyy5DZFSk1/JRHCrWrFnjtZtAgwYN0bdfnzrJd3VysnNw+PBhpKenY9eu3SgsLEBZWRlAgMViQZDVis6dO6Fly1gkJCQgPr6VNqvLOUYqIS8vDzt27MSWLZuRmZkJW4UNANCgQQMk9emDzp07oV27dtpDkgBO5J3Ali3a4LYREZHof1m/ajagDb66c9dO7N27DynJySgs0rrpSEJC6zat0fOSnkjs2BEtWsQYx7OkuARr1qyBLMmIadECXbt28WuQ0cOHDyMlZRtSUlJw+tQpqKQiJDgEiR07IjExEQMHDvBMR69aGRkZ2LlzJ7Zs2YKcnBzYbDZIQkLDRg1xySWXoHPnzmjXrp02C5O+3vr165Gfnw9ZljFixIg6OX6qouLA/gM4mJqKgwcPICsrC+Xl5bDb7BCS1m0pLi4O7dq1Q9u2bdGuXTvIsuz/dYK0bkbbt23H1uStyM7KhkoqQkNCkdA2AR07dtSCgm4BmtKSUqxduxaKog1u3L1Hd8S0iDmzHSUgPz8fu3fvxr59+7F37x6Ul5fDZrPBGmRF6zat0aNHD3Tr1g0NGzU0Vtu5YycyMjKgKCo6dkxEQtuEGrcDAUAFKmwVOLD/AI4cPYrk5K3Izc01gkUR4RFo164dEtomoH379oiJian2eJJCOHnyJJJTUrB+3Trk5uVCVVQEWa2Ij2+Fbt26YdDAQTBZvPSm1/NUUlSClG0pSE1Nxc6dO1FWVga73Q6rNRit4+PRvUcPdOvWFY2bNDbW27//AFJTD0KSZLSOj0dix0Svx54Uwl/r/kJRYREAIDIyEv0H9K++rPyh5/3UyVPYs3sPUg+lYu+evcgvyAdI6y4UEhKC1vGtEd86HvGt4tGufTutG6vzWLil5Zz86IcffsC7772LjPQMjBo1Cg88+CBiWjQ/8/wyxlg946AKY4zVt8o3oWeaTuXf9Z2vs8XtQaqKs9QChFQyZlmqVfp1dUzOlPv2VRjBNlLdplv2Eozw4O3hTiXfUxU706g8haqvWUL8nPa5yvZIa21R45TJ1eQx4PVruy2CW9lX2mblMq/r7Pgq4+qOS11sz59j675Mbc8VX/XM/TNf2/I3T7VY3+O4up1r1e6jv2VVXZ7c6lad8CcvcC1T7bWAMcYuUhxUYYwxdmHzFlQ5Hzu3nq2H1nOhvoNBFxv3h2zGzmd87jPGWI04qMIYY4wxxhhjjDEWAH5PwhhjjDHGGGOMMRYADqowxhhjjDHGGGOMBYCDKowxxhhjjDHGGGMB4KAKY4wxxhhjjDHGWAA4qMIYY4wxxhhjjDEWAA6qMMYYY4wxxhhjjAWAgyqMMcYYY4wxxhhjAeCgCmOMMcYYY4wxxlgAOKjCGGOMMcYYY4wxFgAOqjDGGGOMMcYYY4wFgIMqjDHGGGOMMcYYYwHgoApjjDHGGGOMMcZYADiowhhjjDHGGGOMMRYADqowxhhjjDHGGGOMBYCDKowxxhhjjDHGGGMB4KAKY4wxxhhjjDHGWAA4qMIYY4wxxhhjjDEWAA6qMMYYY4wxxhhjjAWAgyqMMcYYY4wxxhhjAeCgCmOMMcYYY4wxxlgAOKjCGGOMMcYYY4wxFgAOqjDGGGOMMcYYY4wFgIMqjDHGGGOMMcYYYwHgoApjjDHGGGOMMcZYADiowhhjjDHGGGOMMRYADqowxhhjjDHGGGOMBYCDKowxxhhjjDHGGGMB4KAKY4wxxhhjjDHGWAA4qMIYY4wxxhhjjDEWAA6qMMYYY4wxxhhjjAWAgyqMMcYYY4wxxhhjAeCgCmOMMcYYY4wxxlgAOKjCGGOMMcYYY4wxFgAOqjDGGGOMMcYYY4wFgIMqjDHGGGOMMcYYYwHgoApjjDHGGGOMMcZYADiowhhjjDHGGGOMMRYADqowxhhjjDHGGGOMBYCDKowxxhhjjDHGGGMB4KAKY4wxxhhjjDHGWAA4qMIYY4wxxhhjjDEWAA6qMMYYY4wxxhhjjAWAgyqMMcYYY4wxxhhjAeCgCmOMMcYYY4wxxlgAOKjCGGOMMcYYY4wxFgAOqjDGGGOMMcYYY4wFgIMqjDHGGGOMMcYYYwHgoApjjDHGGGOMMcZYADiowhhjjDHGGGOMMRYADqowxhhjjDHGGGOMBYCDKowxxhhjjDHGGGMB4KAKY+cS1XcGzhL3/VL1H3ZuEC7eesUuboSzX3/P93ODoF0vnb/ZmTvfjzk7O/i70IXg3/XV3+Vqy3lNY+xvxFTfGWDsb0P/grHb7MZHJpMJQhL1lKE6JAAQ4LA7jP+XZAmSzHHbc8Vhdxj/bzKZtOPA2HnIVmGDEAJEBIvFUqd11WF3QFW06ITJbLogrkEEgsPugBACQhGQTTKfv7VAKsHhcF3/zGaz9n3LZXjRI5Vgt9mN89xk4scaEKAoKlRFAQAISYLJyzWFVILiUEBEgNDvR8UZnDQE2O12EBFUVYXVaj2DnWDswnP+320wdq5Vjtyf4Q+pZNzgnThxEsOGDUNSUhIGXDYAhw8fPrf7drbo+zrlminofWlv9OrVC7/++mt95+rvgYANGzagd+/e6N27N4YMGYLy8vL6zhVjXpWWlGrXwN5J6N+vP45nHq+7xAmYP38++vTpgz59+uCtt96qu7TPEiLChx9+iKSkJPTu3Ru3z5nDwYDa0K9/SUlJSOqdhH79+qG0tJTL8G/iueeeQ1KfPkjqnYQXXnjh73XcfbUwIeDpp57SzomkJDw5f76XgApQXFyMcePGISlJO2927959RtnJzMzEgMsGoE9SH4wYMQLHj9fhtZ2xCwCHdBlzIuD0qdPYu29fnSaa2CERDRo1AFSAVBX79u7DqdOnEBQUhIryijrcVj3Sg0b79+/H/v37QUQoKCio71z9bRQVFWP79u0AgIiICKgq9yNg5yeHw4Fdu3ahsLAQsizDZrPVafrp6enYvkM7F7Kzs+s07bOBiJCTk6ufvwINGjSo7yxdcJzXPyEEzGaL0VKJXfxyc3Oxa+dOEIDeSUn1nZ2zi4CdO3fi0UcfRVZWFm6//XbcfMvNXhdNS08zroNdu3Xz0nKLoCgK9uzdg4yMDJhkkxaMPAN2uwN79u5BaUkpwiPC6/zaztj5joMqjDkJ4Oeff/b5JRWozz//HNOmTQMkrZk3kfYDCK2p5cXQTFloPwICRNCasZ9JM1LG/m4uhusAY/VMvgC6e9Wbi/Qao5AKkyzXdzbOOlUlPDTvISxbvgxCCNx2220YP248GjVpVN9Z0+lNZvjej/1N8bcPYzpSyY/+uALk1tZSCO3fvv8DJEk2xhkhcl+bnZcIUBwKVq1chTV/rOHB79g5c2D/ASxdshSHDx3mOsfOyKkTp7Bk8RJs2rCpvrNSa8czs7D4l8U4lFq780AlbqFSk6zMLCxdvBQ7tu+o76zUCSEEBABFHz/kokWAJITHGFGSJEHC9Q5TAAAgAElEQVRRL/L9ZuwCwi1VGNMJCHTv0R1PPPGEz2UkScLSpUuxaeMmQABdu3bFpEmTIHy8/iEQenTvDlKJW25cKARw7OgxjB9/JRo2bIC0tLT6zhH7G1AUBddddx22bt2K+++/Hy+9/FJ9Z4ldwN577z3836P/h4SEBBxMPajNxnEhvEZTgf/7v0fwySefYN68eXj+hefrO0cXDVVVMe+hefj8888xduxYLFm6pL6zxGpDAA888ACOZx5HUXERrrvuOjRt1vTCObcZu8hxUIUxJwno0rULunTtUu1iuTm52LBxA0BaUOWJJ57wr0mtrzduAvyleJ755NNPUF5e5tHKiLGzKS0tDTt37oSAgEm++L+afQWi2RnSW9at+HUFCISQkBDt8wukuAuLCvHD9z8A0F5isLqTn5+PVStXgUA8Q9KFRj9OgwYPwtaUrZ5/Ow9PEwGhzUjIdYz9jZyHpyJjjNWfstIyfPzxwrPbsoiDNBr3rlV/8zLZsnkL7HZ7zQueS3+HY3KR7SOphIqKCuzcuRMmyQS7zW50Pb0QLF68BIVFRfr4XLXJs+BAXQ2OHTuGEydPQOJb/wvLhXHqelCJeGp49rdz8b8OY+x8p39hlpaU4dChVOTn5+v9gwWCg4PRIiYGMS1iPPrS1ibtEydO4OiRoygsKoSqqjCZTIiIiER8fDwaNIiu3y89ffySrOwsZB3PQnlFBRTFASG0fY+JiUGLmBYQsnDdWNSQX9Wh4uixo8jNyUVJaQlUlSBJAlarFZERkWgZ2xJRUVGeaelvU0qKS/Ddd98hMyMDgDZTSU52jufNPQGySUbjxo3PrOz0JB12B46lpSE7OwtlZWUgIlitVjRp3ASt27SGJcji977Xatt6WtnHs5GWloai4iKoqgqz2YyoqCgktElAeES4X9vNzc6FSiqs1mBERUcanxfkF2D//v0oLiqGQ1EgyzKio6PQtm1bRERGaFkhQLjl5/SpfBw+dAj5BQUgUiHLMsLDwhEfH49GjRvVvgwIKC0tRWpqKk6fPg2bzQZJkhASEoK42Di0iG3hs2zc5Z/KR3lFBUhV0bRZU9f5SEBGRgYy0jNQUlIClbQyjIiIQJs2barWNfft6J8fSj2ETz/7FEQESUgoKCxAdpZr5hohBFRVRXR0NKzB1loWQFVlpWU4nnkcJ06eQHl5ubZdSUZISDBaxbVC46aNa5egvi95eXk4evQoioqK4HA49LoUjbYJCQiPDAf0QaxBfjwnVKrzqqLi4MGDOJF3AqVlZQCgXyOaIz4+vsr10a/Rq9wWcdgdOHL4CHJyclBhqwCpBEtQEJo3b474+FYwW8w1p1eJ4lCRkZGOzIxMlJSWABCwWoPQuHFjtGvbDrJZG1yzLuO3J0+exAcffoDTp0/DWXhZWVkAtMCKcxBxq9Wq1U1f2yagosKG9PR05ORko6ysDCDAbNHqdkJCW0RUvj6cwVtpUgjH0o7hm2++BkGFLJlgq7AhNycXiqK6lZFAeHgYQsNCPdY3GnxKknbs9WN76tRpHDqUitLSUqiqdj0JDQlFfOt4NGzU0JVnf/NOWjeatLR0ZGUd19MlBAVZ0KBBA7Rt2xZWq9WzhWMdHd+iwiIcO3oMBQUFKK8oN67XwcHBaNKkCZo3aw5riNv1wa1+Z2Rk4sMPPzRmZCkvK0d2do5WruQaRD88LBxhEWE+8+CwOZCVnY2cbK1OKIoCSZZgtVoRExOD5s2baw/TlU+/6spAL9Ps7GxkZGSgqKgYqqpAkiQEB4egYcMGiI2N1VpdnWFdKykqQWFRIQQEFFVFdHQUQkJD/FrXYXMg70SecQ1r2rSpdm9SzX6VlZUjP991LjZu1Agmi49HL32fysvKkZ+fD0Crz40aNdKubwQUF5egqKgQgIDFYkbDhg3Py8CF2WxCsDXY+Hf+qXwcPnIYBQUFEELAZDIhLDQMbdu1RViYXt9qec6oCiErKwvp6WkoLi4BiGC2mBEdFY2Etm0RGhpyVs5DxnwixlitzJ0z1/l+na6/7noi1c8VVaLsrGxqEN2QBASFBofS/n37iVSiBS8voEYNG5EsZJIlmQQEmWQTSUIiWcjUJ6kvHTl8xP9tEVFRQRHdcP0NZA0KJrPJTLLQ0nVuw2K20H333Gfk7Yzo63dK7EQCEklCoq++/KraVcpLy+mp+U9RfKt4MskmMkkmo1yF9phNZpOZ+vXtp+17DRx2hVatXEWJHToa5SZBIpNs0vZbL9dgazANHzaclixeQqRo65aVltG///VvioyINPIgQdKOg2Qy9kkWMplNZkpsn0iKQwm8vPRVU5JTqHu37mSSTSRLMklCMvZdQKJWcfG0bOmyGtP6dcVvJCBIQFBkRCSVFJfUmIW83Dwad8U4j/omIIz9jIqMovmPz6eK8grfiejHvXV8azJJJuqT1EfLkkOhZ556hhpENzDSA0CS0PaxUcNG9MzTz5DD7jDKgojowQfmkcVsMcrAWRfMJjOZZTPddeddtTrfHHYHvfD8C9SkcVMCQBazhQCQSdLOLbNsppEjRtKpk6e87pf7v/8x9R8kQVsnJXkbkUqUk51DI0eMJFnS9s/521nfQoJDaO4/52r76SV/u3bupmFDh5FJNhnrOY+BSdLOCVn/bZJN9OqC1/zcee8y0jNo5oxZFB4aTibZRGbZbBwXWZLJJJnIarHS5WMvp5zsHL/TddgdNOO2GWSWzSS5XWe0c0eQ1WKl+Y/PJyKi/NP5xnlmkk105NAR74kqRKqiEqlEf6z+gzoldiJZko10tfNTOy+7dOpCGzdsIiKim6bfZJxLjzz8SM2ZV4n+XPMntW/XXqurkusaLAmJAFCH9h3oj9V/aPXCz/q3e+du6tenn14nBEmQnOFDMpvM1CquFa1auZqIiJ59+ln92Es0bOgw/zbgvguKSvmn82nunLkUYg3xqEvOeq+de1rZmU1mmnDlhGrTe//d9yk+Lt4oSwmSR/0OCw2juXPmUkF+Qa3KxZsjh4/QlKunGN8BznKXhfY9ZTaZjR+LyUIvPP+CW2aJViz/1bheR0dFk63CRgX5hTTjtpkUHhbuuqbrx1cSMllMFpo8aTLln8430ql2H/S/bUvZRkm9k7QyMa7X+jkrm6hp46b02aefVVnvTFSUV9B9995HkRGRZJLNHtcL5/XMJJuoSeMmNHfOXDp29Jix7rGjx+iaKddQSLB7vZCMc0m4nUcmyUSzZ832vu8q0VPzn6I2rROM66f7+eL8d7++/bT7Gj/3XVVU2p6ynfr26Utmk9nju8j9ehgVGUX33n1vlTTvuvMuY7mZM2ZVsyHtV6+evcgsa98nzZs1p7Rj6TVnUrdj+w4KsYaQSdbq4baUbdUur9gVuvvOu0nWzzmzyUyfLPyk+o2oRK+9+ppxr5HQOoEKCwr1BImeefoZLT3ZTD0v6amt4qhUKArRzTfdbJTLDdffWKXcVEWl06dOU2zLWO07VjbTxg0b/S4Lb44cPkJhoWEkCZkaNmhIxzOzqDC/kObMnkPhoeHGtc+455BM1LBBQ3rmqWfIYVe0631NVG3/DqUeplEjRpFZNhv1z/13eFg4/ev1f53R/jBWWxxUYayW6iqoEhYaRqt+X0U9L+lp3DhIxsOnfqOj3+wAoOCgYHryiSdr/OJRFZU+WfgJNW3SzO3hVL85gUSy8UCifda5Y2dav26Df19o1ewbkR9BFX259evWU3RUA4JbsEN76ECVh0sAFGwNoX//698+81hWWkaTJl7l9vAgeTxUONNyfiYLmToldiJ7hZ0Uh0KrVq42buacwSfnw6Fzf9xvIjsEGlTRb07Ly8rp1ltupSBLkCt/+jExfuv5lSWZpl4zlUqLS72nWcugiupQacErC6hhg0bGA4ERCBCyUVecP107d6Utm7f63h8iahXXiiQhUUhwCO3ZvZeSLk3Sglr68XPulwTJ+FwSMo0ZPYYKCwppy+Yt1KF9B4/j5X6j714ePS/pqT3w1/AQlLwlmXr26OnatttNl3F+6XmJioyiBa8sqLJf7v++8fobjYeRZUuX0YsvvEhhIWFV6pnzvHUeO1mSKbFDR9q3d59nuirR5Ksme61nznPCPW1Zkunll17xvcM1eHjewxRsDTHOs6r1zfN4xTSLoaVLlvpOUN+X1atWU3yreK/nWuVzOenSJDqw/wC1iGlhnG++giqqolJxUTHdcP0NFKwHCpzHrfJ1QkCisNAwuu/e+2jegw8ZdbqmoEp5WTld+49ryWwyG+XiqiOyR3BPgkS33HwLlZWWVZumqqj0yEOPUER4hEegzf1H1oMHZpOFbr7pZvrNOH8DC6qQSvT+e++7vjPcru+u7xbP+uUrqLItZRv1Tepb5QHcdf2UXAFSSBQXG0cf/+fjqg92fuabiOiqSVfp3wWmKnmWhWy8CHDm/blnn/NIY8XyX41jFdO8Bf3w3Q/UskVLo067Bz+MAK++H82bNaeffvipxqyWFpfSXXfeTeFh4UYarrzKHsfZJJto6JBhlJuTW/sycS8bVfuuTGiTUOVa6gw6uR9nZ7Dxzjvu1ILVKtFDDz7kEahyX955fXIGKk2ymW679bYqx2fF8hUUFRltHH+PuuV2rXP+LSw0jP79r3/XeG9UkF9A02+YThaTxeOaJEuyEcRz3860a6dVScPfoEra0TTq1qWbcX4ktEmgPbv31KreVpRVUOtWrY1A1j/nzK12+dKSUurerbtHfb568tWk6sfGG8WhUK+evYxjNXPGTONYkkr0/HPPG/vb+9Le3r8H6zmoIiCoaeOm9POPP1Ob1m3cAniedca9Hnbq2ImStyb7TlzfT8Wu0OOPPU4Nohp4BBbd64/7d0+/vv0pKzOrToKbjNWEu/8wVk9sNhtunH4jMjMz0bhxE4weNQojRo5A165dYQ2y4tDhQ/jzzz+xaNEiZGVloayiDE8++SQGDByAYcOHVU2QAFIJn372KW6++RatCbWQcUnPnphy9dUYMnQImjRugtRDqVixYgU+++wz5OTmYO++vRgyZAjWrfsLPXv2dKV3NppK6ml26dIVkRERUBQHEhIS0K9ffyQl9Ub37t0RGRGJ9IwM/P7bb/jgww+Qk5MDu92Gxx57DBMnTERsXKwrLX0Gzcceeww//qgNbhgSEoLJkydj3Lhx6Ny5M4KDQ5CXl4sdO3ZiW0oKNmzciH379uGOO+6AyWICqYSuXbvggw8+AADs2bMHr772KogUNG7YGC+9/DJURTGalBMIUVHRtR9EUdXybLc7MPmqyVi6bBkkIRAaEophw4bh6quvRlJSEoQQ2JayDV9+9SVWLF+B8opyfP3118jLy8OSJUvOqPuHw+7AO++8g3nz5hlTUPbr2xdTpkzBsGHDEBEegYOpqViyZDG+/PJLnDxxErt278LUa67B+g3r0bhJY6/NroX+QXl5OSZOnIjU1IOIbRmLCRMmYOiwYWjfvh2KCouwbv06fPbpZ9i+fTtUKPh1xa/455x/4utvvobdbkfzZs0xbvw4DBs2DN26dYfNVoF1f63D54sWYdOmjXAoDmzfth0PP/wIPvroQ+91VAUyMzMx6apJSE9LBwA0j2mOq666CmPHjEViYiIKCguwauUqLPpiEVJSUlBQUIAH7n8AZpMZc+fO9d6kW+hN5FXg8ccfR3JyMhRVRd8+fTB27Fj069cPsS1jUVpWis2bN+P7777Hb7//BiEE9u/fhwlXTkBySrJr4FAA99xzL6644goAwOuvv46dO3dCkiSMGzcOEyZMMJotq6RCCIH+/fsHfOxnzpyJ119/HVHRUWjfvj0GDx6Cbt26okf3HgiyBmH/vv348acf8cUX/0VZWSmys7PxyCOPYNSoUVpzfi+2bNqCcePGoaS0BJKQEBYahsmTJ2PSpEno2rUrHA4HkpOTsWL5Cixeshhbtm7FoEGDUKSPmVEdIq2cFy1aBJUIJtmExMSOmHrNNRg3fjyioiJx/PhxbNq0Cd9/9z02btqIV199Fa1bt4YE4bvzj/6HkpJSjB49ChvWbwAEEBYWhtFjRmPyVZPRs1dPkErYsmULFi1ahD/W/IGysjIsXLgQ+fn5+PbbbyGkSvlXtfrxwgsv4IUXX9COGQTi4+Nx7bXXYsyYsYiJaY6CggKsXbsWixcvwdq1f2LhwoVISUmBLMtQVTWwsZwEMGLECHzw/vuAAFb+vhJffvUlAKBVq3g89tijRhdGAQEIoHXr1p4DpBOQmpqKMWPGIDc3F4BAdFQ0hgwdgsvHXo6evXrCYrZg3/59WL36DyxduhRpaceQnp6O2bNmIygoCNdOu9Zzpjs/d2XOnDm44nLtPHj33XexeetmyJKMK64YhyuvvNJtSS3t3pf29lkQqqLg1ttuRWFhIdq1a4exY8dgyJChSEhIAIiQsm0bli5ZgiVLl6CkpATZ2Tm46667MGLECISEVeoGol/rbOU2PPzII/jXv1+HJCRYLBYMuWwIrplyDQYPGQyLxYKUlBT8+OOP+OH7H1BcWow//liN0aNHY+XKlYiOrn03W1UlnDx5AhMnTkJubg4kSUKnDp1wzdRrMGjQYLRqFQdFUXH06BHs3LETGzZuwM6dO3Hy5Ek89NBDxvaunXYtEtq2BQB88cUirP5jNSRI6NmrF2bPnuUqOb1LS+fOnd2LEwDQpUsXVFSUIzg4GImJiejduzf6978MXbt2RXRUFI4eO4oVK1Zg4cJPkJ2ThZKSEtx3330YOmQounTzMvA/AXa7HVdPvhq/r/xdL2YJHTt1wtAhQ9Dr0l5o0KABcnNycTA1FdtSUrB7zx5MuXpK7QpRP36HDx3GmNFjcOjQIRAIXbp0wYoVK9A8pnmtkjNbzLj22mvx3AvPQ1EVfPPN11iw4BUEBQV5Pb7Hj2fhwIEDbt3RBDZu3AgiFcLb/QMBBw4cwNbkrRAQkGUTZs2apZ2jBI9uyB7XiQC7Qp1NxSXFuPbaa1FSVoJ2bdvhiiuuwIABA9C9e3eUlpZiy5YtWL58OZYtW4bS0lLs3bsPV189BX/8sdp1j+dOaF0En3zySTz9zNMABMwmM5KS+mDq1KkYPGgQwsPDsWfPHvz080/45ptvkF+Qj40bNyCpTxLWrVuHli1bGmkxdlbUd1SHsQtNXbVUcb4969q5KxUXFWtvTFS3ppx6M8fM9EyKjoo23jb16N6D7BV2r+kfOXyErEFWI1p//XXXV+16oLreArdr2057EylkGj1qtGu7tVXb7j8q0Tdff0uHUg957xqhO7D/IAVZgow3VnNun1MlnfS0DOPNYbA1mDZv2uzRpUT1+H9VbxpeQLYKm+tzh2q8DVqyeInx9iS2ZZxr/86wiTup2luot954y2g9ZDaZaeXvK10tcNy2oThUWrH8VzKbzEZ9++rLr7y+lfKrpYpKtGXzVqMLDAB6/LEnyG6ze923/Xv3kzXIarxhu7RX76othfR/xsfFe7RS6NqlG53IO+FqzeOWvq3CRiNHjKrSGqNzpy5UVFDkceyc66oK0YTxEzya8B9KPeS1mCvKK6h5sxjjzXRUZBSlHUsz0nV2KdHyYqfrpl1npBsRHkGHDx32WnY33nCjR6ses2ymhR8vJLvN7vXNo63CRq+8/IqRD4vZQhvWb/AsD7d1hg0dZqTts4XFGdQ/xa7Q9999T4UFhT5bWSkOlb79+luPY7l65Wqfafbv1994axsRFkFbt2z1KAvj3FOJ8k/lU9uEtkbdR3Xdf1Sib77+Ruv+pL9FHzF8hNZay0sZqIpK7737nkdXM6/lqLqWn//EfKMFU7ied/e6pzgU45z9/LPPjfPAbDLT77+trJquQpSZkUlWi9W4tg/oP4DKSso8tu387bA56OuvvvZsmQGJhg8b7rO8a6Ro6T77zLNu51VnLwVW9aPy0nKKi40zuscEW4O17g0KeZ6T+rr5p/OpX99++nE0k8Vsof+t/Z/P9P01edJk4/g9+sijnueKt3Q9Wqq4Wl9MuXoKFRcWu9Zz2w9VUemnH37yaJ300IMPec2Pqqj07tvvGi09JEj01htvef1edXZVC7YGG2/L/eqC5sPiXxYbLfVax7emvNwTvhdWiWzlNioq9HIN1fd91sxZRr24cvyEWt27/PeL/1LqwUNkK7dVaXHndPrUaWrUsJHx/fLgAw96T08hmnnbTI/WPU/Of5LKy8qrnCdE2nWpvKzca6uSmlqq2Cps1Cou3jjXe3TvQRVlFVXLyB8q0YncE2S1WI17BKN1h5eyvPuuu0kSEgVZgqhf335GK5lfl//qvewVonfffle7N5DN1L5de1fdJa0uOluqSEJytVTxcrzrs6WK85gCoNEjR7vqjFsenMdy7Z9rjRa7AGj40OHeuxwrRMuWLvOoM889+5zPrrU5WTnUuFFjo4XM3Xfd7fHdz9jZwEEVxmqpLoMqkRGRrodDX+noNzTOJpSNGzWhnOyqzYoVu0ITrpxofJEOHTzU1d/dmb77F5tKtHTJUuMBwGK20No/11afl2r2jah2Y6pUXrfKv/W8znvwIeMGtfelvT0CSqqi0t49e40m9QmtE0h1qK6Hf7dms9Vuy217i39ZYjxkx8XGudJx/gT6pawSHT50mEL1LiMm2URvvfmW8fDmngcnxa7QNVOmGk1mmzZp5hoDwFjIj6CKnu6okaOMB5aRI0Z6vdlxX37VylVkMVn0/Jqr9iGvFFSRhEQNoxtq/dR9lLtiV+j3336v0iR986Yt1ZZtXm4eNYhuYJw7X3/5dZV8kEr09VdfG3W6caMmlO7eZ95Lfk6dOEXNmjY3bpIfefiRqstVCqpIQqKZM2a6btK8LE+kPXi2ad3GSPvpJ5/2Wn5ERCOGjzD2zefDSKCqeSB1z7OqaEGpzp06G3m+Y+4dXpNctXKV1m1G75Lz2SefudIk8jz39M82rNvgEbDxFVRRFZVGjhhpjJuSdGkSFRcV+64fCpHd5qCbp99sPCj7DKqoRHt37zW6FJllM33y8Seeea9ULg67g0aPGm08mLWMaanlxz0LdoXGXTHOeHBq3KixNhZUdQ9vqjaelvP8PqOgiv5w5f7g5QyqeO02qXqu99GHHxnnY1REFCVvqaYpPmnbKSkuob59+hnHc+KEia6gWoDXyUkTJxl5/79HHq15BbegivHdN2SoRzctVVGNc9U9f1Ov+YdxPnfp3MXrw5zD7qCOiR2NrkSPP/q47yCP/tlT858yzp/WrVqTYncLLvtDz+dHH35k7NPUa6Z6r0vVBZ0qBZRun327cYwnTZjkPS1/Vd6e/v/333e/ESC8fMzlXlfds2uPR1em++69z/uDdOV985I/n0EVVRsDJS42zuOeKCM944y+wxWHQpf0uMTI/9tvvV01YOHQxjiKiowik2yihDYJdHD/QTKbLCRLMl3a61JXnaiU/nXXXmd0KZt520zXCx+68IIqLWJaUNbxrBrX+2LRf40uX6EhoXTwwMFKmdWCvj269TDunW6fPUd7IeS2z5Xr46sLXjXKKioyirKOZ3NQhZ1VPK8aY/XohhtuQJuENto/3Ecpr6TnJT1htVpBAGwVFbDZKqosk19QgA0b1oNAMJlMeOrpp7UZVtxnNnD+6NsbO2YsOrTvAALBbnfg/fffP/dNSStvyy1/EMCwYUNBIAgI5OcXwO6weywcZAkCAKiqguNZx7Fq9SrXnyUvaTr52E+ppub3zluG2hLAb7/9jrLSUgghkJiYiDlz5kASUpXlnNuRTBIWLHgFZrMZQgjk5uZg48ZNtd++ALZv345ff/sVAGA2mfHaq69pM5q4v1dy2z8ioH+//kZTXEVxYM2aNT63LUGCLMkYN34cYmNbVt0nfT3JJKF79+6QJX3mEwh07doNl/buVW29a9S4Edq1awdnJ4ac3Byvy3388cd61xKBq66ahBYt3fLiJf3ohtG4atIkANoMFJ9/vggOh+JzeQla8/+HH35Y6wJS6Zxy/x0eHo5Le10KQJu9Z+/evZ7l53V/Rd1PDeueR1+fC20WGrPJjBEjRujNywXS09OrrqcCzzz9jHEutmoVh2uuuQaqorqWkdzS17eR1CcJ/fr2g4BAdbPllhSXYMOGDVChgqBi9u2ztdlefBWLBMiyjFcWLHDNJFGNb775BuXlZRAQ6J3UGzfedKOrPNx/6/8vm2S8/fbbkGWtzmZlZWHXrt2u4lBUZOdkY9OmTVChQpJl3HvPvYhvHY9qZ68VwJVXXmmke0aHvZry9NqlyL33ABG++uorbRpUIWPEiBG4pNcl1W5OCIGQkBDMmXO7PtOSwIoVvyIr63iV9GslkGtrpXzdeeedWjdJZ7sooZ9TpGdL70pxy80363WRcPLESW2Go0o2btyIgwcPQpIEJEnCjBkzqv0OUBQVkydPNtI9lnbMuO76vxMA9Jl4ZEmG0LuNZB7P9L6s87ev71IdEelXFx8HpzbHrPL2BEAq0KNHD6ikQpIknDx10uuqv/32GwQEJElGTEwMnnvuOVgsFt/bqHzvUgNSgY0bNmLYsGHIyMgAgTB8+HAsX7EcLVq2qDmBakhCQu/evbVSFAK///571e2DsGbNGhQUFEBVVHTq1BmxcXFo1rQpVFVFcnIyUg+lVq1HBGzctFGbwYpUDB8+vFb7fT4xy2bMnj0bzZo3q3Y5VVExcuRINGrUGARtZrr/fPSfKsulZ6Rj3/792syQ1mDcc/fdMJndRrBwft8ARplOnz4dwcHaDESFhYX44osvznzHGKsGB1UYqyeyJOOqq67y/NDLlycRITQ0FGaTGSopsDvsroc+N/v27kVebh4EBIKCgtC+XTs9AVR7E9inb1/j/5OTk40pF886f4ITpI11YJK0L0/JfRwD0h4C41q1wmX9LgNBmwL0iiuuwCMPP4KiwqLq0/Z2A3oWb15Uh4q1a9dq0+OSqo2PUXn/Kwd9ADRv3hwxMTFaYEkIHD16JKDtr8oDy28AACAASURBVF61GoB2U9ipc2d07tq5yg2dkQdJf8C2mNG0aVNjkf/9738+y4hAUEnFgAEDfD6cOlmtVrePBf7xj6l+7UOD6Ab6QxEZY8K4Ky0txbp16/WbeoFx48Z5n67W7TPFoWLkqJHG7mdmZuLYsaM+66ckS+jevQdatYqvMb+SLKGlHmAyySacOn3Ke/m5bacup9etNQEIWSA0NFTvv09exw46nZ+PTZs2Gf+eNXMWLFYLJFnynH68MtLGz9CCpN7/DhVYuWolioqLIQkJkpAwcOBAPx62CZGRkWgV36rG3Vy/fj0kSYIkSRg21Mv4VECV4xQf3xpNmjYBkTbGjRE8gHacT506hcLCQsiSDKs1CFdffTVIRY1axcejTes2RuD4rPAj2eTkZC3AK4Arxl3hX5oCmDTpKkRHRYNIhc1WgS+//LJeHwIFBDp36myMYeUzfiAJNG3WDGazNlW23eGAraLqd997770HVVHhUBzo0+f/2Tvv+Ciq9f9/zszsbpJNIQkJSYDQovTekSYEQm8CAqLoVcBrL9/fvV71em3YRUBQr9/vVQRpggJKbwm9E3pLQgiEmgap22ae3x8zO9lNNpuKiPe8ee0r7M6Zc57znP6c1lUtz2XFTzNM3nf/fQgNDdWNGOvXr6/8ZAVj6NCxAwICAkAA0tLS0LtXb6xdsxYOm6O0+2oaoypEOWEwQa3nnBMFpYx52vtbt23VDHGE7j26q2lQg3nm9OnTGDJ0KLKysiAIAh4e/zDWrl0Lo0kz3FQjLEVREBsbq3/fs2ePuzFZM+KtWbNWdQ8FvXv3gslkRLPmzSEIIhRScORIYqn2/syZM0hNTQUp6hlSPR54QNXhPWZUUc+DEREXN6hct4IooHbtUPTv30+beyGs37ChlLvVq1fDarVCIUKdOnXQsFEjbwIADAgJCUGrVuqZPkSE/fv3VTFGHE7F4AfVcjh3CckgITwsvEJuFVJAUAfEiqJA7524DPw2b9kMBYo+Qzbzi5l6h7FMfxUFp08Xz7gWFhTCZrMVdz7uFAT1QEOBoTC/EMkpyUhOSkZ+QT5ycnKQk50Du90OhRSkXkgt7px5mOUXRQHLVyzHwIEDcfrUadhsdnz0yUdYsHABBg4YiOEjRiA2NhaBgQGV7pzo4daA+VkQBZw6dRIyyWBgSElOwT//+c8KvZufX6B3yjMzPc/+lUfi0URtdlBAUVER/vnmWyhzuYAWbdkhIz09XddDZmZmmf4zpua7iIgIrwMI0rKv0z0AdO3atUJx8NFmndRZUXfZFYeCUydP4XbubW2il7B+/Xrs2bPHq58CE3Ax7aIurqLIyMzMRJOYJp6kBwA0bdoUJRcYlQURQFBAEPTZck8zyEQEAnldwVFT5OXm4cSJk0hPv4xbt24jPy8P2Tk5IFKgKErx7Ks2o6+jjR0yMzO0VSoMoiBiwIABerxKHeDqAhMZOnboCEmSPBrFnOm6Y/sOOD2MqBOBBtENyi27jDEIAhAaGlqOQ+DixYtQFAJjwJHEI3jzjTe9vwNAEAQU5BcAmnEzOzu7+CGph2HabDYIgoCAgEAEBgXBa0HQkEQRnTp3QlJyUrkyeBdQC45YacOWt/JIhJMnTyIrK0s1+CqENm3aVCxMAvwDzGjdqjV27toJEHDw4MFqRKJ6MDAYjUaE1wl3r7PLNK6o5U49pFU1Crs8gizL2L17j1Z6BVgsFrz5Ztl5xXkIsCzLsNvtah0HQkZGRuXjIgCNGzfGzC9m4vnnn0dBQQEuXLyAsQ+NRdOmTTFq9CgMGzoMnTp3Kscj9UMyFeeDKtYxRAS7zY4zZ84gOTkZubm5uH3rNm7dvg273QZZlnHmzFnVqF1GBanIhLNnz0LQEqh169ZVO5zZAyHBwThy+Age7Psg8vLzwcDw2GOPYebML2qmT6PVb/37x6JWrVq4desWMm5mYMPGDRgydIjuxmqxYd3atSAQTEYThg8bDrvdjuHDh2Hzlk2QRAMWLlyACRMf1vtBAPDV119BUVTdPdivH+rWjSq/z1LR9PwdVyAzxmAwGhASHFyxFwjo0aMHFi9ZDIDh/LlzyL2dq6601oiPTwBB1Y1CCt555+0Kea0euq39/8ZNVd+eDqLncGoAblThcO4a6gC3vMbO2UH2OgMMIDU1VfOVoajIgk8++aRCUpDbvo87i7MD4XDIOHz4EL766mv8+utq5OfnQ9Zu2HEuT9aGmBAguMjoAQZERkRi185dmDZ9OjZv3ozbt2/h+rXrmL9gPhYsXIDAgEBMemQSpk2bjubNm915o1EZcmZn5wBQdb4tfhu2xm+t0KsCE3XdOBz2KnWOsrOzQQAcsgPnz5/DjBnve9Wrc9acQGV2kF1x3nYiiVK58jnDdc7kaj9WfHm3h7JAIFxILV7Fo5CCr7/+2qvsxUYMd/9kuewlBkQEk9H4+2+TqyZFhUXYumUr5s6bh+0JCbDarPpghoFBJtXI4VreysodBQUFUBSCyAQYTUbUr1+/wroIDgmG0WhEYWGhx+dMYLh+o3hrV0xMTPE2tfIMKwJTb1oBPOdt7f2cWzkgKACpqwjWr19frtzOFWYM6l/VuF1MRmYGiAiKrMDX1wd+fr4VWnmiKApq165951aplAMR6dtKiAgmk6n4lowKeaDeJLRz104opODmzZsg+S4NXHRDu+fbqrzhqU4pKirCtWtXwaCuODh69CgOHzmC8tpK5/ZDp61A8VKfePVHYHj88ccRFRWFV199FUnnk2CxWXD8xAmcOHkC7777Llq1bIWXXnoJcYPiqr21pSysFivOnz+Pjz/+GFu2bEWGNlBV4B4vZ7vtrc512O3IzlJX7BFRpeqO8iiyFGHcuHEoKCzQ28ugoCD4+frWWH3NBIaQkGAMHDgQP/30E4gIixcvweDBQ3RD+4oVy3Hl2hWIgohevXqhafOmAAGTJ0/G66+/gfyCPCQkJOBS2iVER0cDDCjIL8Tq1b+qYTCGvz79tFcD9R8bdWtUZeSPjo7W3gQcDgesFisQVPz86tXilYEXL17EBx98iIr0WV2TXVaK+5gczp2AG1U4nLsIgWqsQ2Gz2fSZMgagTp0Ir3sJPD0JqhXk4deaQ5EVXE2/hkmTJuLQoUOw2+3qTD4pMBpNuO++GATXCoavny+iIqNQKzgYWVmZWLRokXejEgOCgoOwZMliXLlyBYsXL8HcuV/i6tWrICLkFxTgq6+/wg8//ICWLVriu++/Q8tWLcv27w5B2qCMQPD390eAf4Auf3kNPUGdJQwMDPTqruywSb9q1sfHB8HBwVAUzzotS5KgoLLzhzoY9/LynUKLgnO22QkDQ+3atWE0GL3mHU99bZMXoxsRQVaUe8egQup5OmPGjMGlS5dBpEBWZAhMgMnkg6ZN70dQUBBMJhOio6MRVjsMCQkJ2Lt/b9lR1FawOI0MgljxpVy+vr5lD3qp1H8gSZK+gsXrjLY2YxvgH6CXsbKdFp8rERAQALOfuXzBNf+dhjhfH1+3Z87rkNXrr7UN/hXJIwwIq+CKxapQ3vYBxlipQTARuc2gl4fZX9UfAVqdfpcHLjUxP6AN+i0Wi56X/M3+6tY4bwG4LCJ1aiAoKKh4RUFl1cKAgQMH4sD+Azh1+hRmfj4Ty5Yt08M5ceoEpj89HYGBgRg1chRmfvEFgpxnqXkQrbzJmZIv5OTkYPz4h7F9ewLsDgegGU1MRhNiYmIQWjsURqMRUZFRCA4OxsWLF7H619WeA9dW8bjV0kyoVF4rW1TCvHnzoCiKtuJIHdTPnj0b0dHReOmll6rlf0kmPzIZy5cvBxHhwIEDKCjIh3+APxSHgm///S2cZ648/fTT6gsMCA4OxqC4OKz4ZQUsFgsWLFiAN//5JkBA+uXLyMrKhMAEBNUKQrfu3bwLcA9gMFR88iowUO1bEAg2hw2FJc43IheDtkEyIjQkpFKyEAghwSEet7NyODUFN6pwOH8STCYTnFt/mjVvhsOHDlfOA6Z2sE1G0x2bhZdlGY899ih2794DgoJA/0A8+uijGDV6FDp27IjgWiWWiwrAju07sGTJEs/bBVxkB9QtNvWj6+Pvf/8bXnjheezYsQPr1q3Db7/+hrS0NBQUFuDAoQPo3KkzZs+ZjanTptZ8JL0gaIezioKIDz/8CE/+5S+6/BUZhBCR5wP9KoAkSvpgYMKECfpZARWGafJ7zRu/x8b+EjhlIfUMGCd+vn44efKkV0NQWZhMphoS7u6TlJSEoUOH4urVq2CMoU54Hbz44ovo178fmjZt5r4tTku+N954A/v27y/TT+cAyGlEcDg8nPFQBg6Ho9TWLT1sdUmAakjRKCgscAuzTDQv7Q578cGkFZD/66+/xtixYyssv1NZkuRuGDIY1NU0DOqhxEQVMLyRWhcUFRbesRlUcm4R9eS1pjPXlXsOhwxLkaXC+iYCbmgrixjUcvdnGbgIggCz2Yy8/DxIooRX/+dV/P3vr6lpWwmqfRAxA3zNvujUuRMWL12Mzz7/DFu3bsNPPy3D1i1bYbVakZ2Tje/mf4ejx47ixx9/RPMWzdV33dKeKlVFK4qCMaPHYPuO7SAQggKCMHnyZIwbPw6tW7dGSGhIqTCWLlmKlatXlrlaRZREiKK6hUMURNis1moaVJgeJUVREBkZiW+//RY///wzfvjhBzDG8MbrbyC6fjTGPDTG9bWqQ0Cr1q1gNpuRn5+PGzeuIysrC2azGZmZmTh77iwY1LOpOnVy2Z7FgLHjxmLFLyugkIJNGzfh9dffgCAyHDt+HBaLBQopaNyoMUKCQ+651ZDFqIZnuRLtwtWrV/WtPQbJCH+zu6Hb2SYIEDB58iP45utvdN1UxFCoTjhW0NDN4VQRblThcO51tEaiSZMYfXbt6tVrcMgO+AeUfxOGR+7Q2Hj2nNnYvn0HCOpBbHPnzcWjjz3q9Z0b129UbnYNqg58fHwQFxeHuLg4fPThR5j5xUx8/vnnuH3rNixWC15++WUMHzYcEVHeT6evMQgIDQ3B5cuXICsy0i9f1m50In2FUbm4Dn4r2TmoFRwMgEEUBVy6dAmSKIEZqtDD+CN2SjR9RNeP1sUrKCpAeno6wsOrtgqgJmZP/wi8/fbbukElODgEW7dtLR5wlURbEZJ2MQ0eM5n21Ww2QxQEOGQHrFYrLl26VO4tD4DqZXZ2Dmx2m2e/Sd22VTeqeBtDSkoKbBYbjD7lGxPtdoe6/aSs+kL7OTAwCDdu3ASIkJmRqRoqK5rUTq9LuA8LCwMTVGNOfn4eigqLEBAY4N0vpm41S09Pv4MrO7yv8GNgiImJgSAIujEo5UIKGjRq4N1bzQBGioLLly/rdVj9+vVr8AoEunsDS201UmRkJPKS8qDICs6cOQujyfs5ZV5RUCO6iYiIwKOPTsajj03GtavXMG3aNGzevAU2mxVHjx7F888/r96w4xxEuhjAKsPy5cuRsCMBzrVdCxYswIhRIzTP4DFrFRQUeM7L2k+SJCE4OAQZGRmQFQUXnYeCVzGNmf4qQ6OGjbBl6xY0bNQQcXFxOHPmLPbv34ciSxGe/uvTaN2mNe67/76qBeSKAERFRSEqKgrnzp9Hbl4u4uMT8PgTU7B7z25kZKpn6LRu3RoNGriXo65du0ESJBCAEydPoCA/HwFBAVi1aqW6mpQJGBg3UK3v7sIcRU1ARFAUBRarpcJpe+zYUb3erhUUpK9+cxIVFaUe7gvC6dOnIUoiBEGoeN8JFZODw6kOf47pBA7nvxVW/BkxfDhEUYTABBQVFSIlJaV6/tYwpBDWrlkLBsAgSujRowcemfRIue+lXUqDrHhZpeIBJjC36259zb544803sHfvXgQGBYFAKCoqwtx5c6sWmSrSvn17yIp6UO1+bSWALmdlqEL6dOncGQJjkGUZhw8fRm5errpiwCUPef1UMdzfC0EQ0KpVK4SHh8N5Fs+aNWsqHr8Snz+DQQWA1hFVO7rPPvsMmjcvw6CiwQSG1LJumNJ0ExERoRls1S05K1asqJAssixj//596lZFT+pl6sHBgwYP0r4y3Lp1C2fPnSvXb3X7jffDlJ00a9YUilanJGxPqJzR1rU8ONHOFfHx8YGiEAoKCnE793aFbv9hDDh0+NAdK1vOQ5DLHKAxICqqrnZduepuv5dVSqqn0P1LvZiKxMRE9ZB0xtD3wb41Izeo0sb0GoXUlY+DBw8G01ZDrF27Bvm5+VX3szo9bpejzwRR0PNLZFQkVq5ciS++mKlvjzuaeBRWq7XYoEJw2zrndfuSC3PnzgUDg8AYmjdv7n4rVMm2QcNpwC0LQRDQtm0b3Ys9e/aUOp+oMrjGpX9srHqNOdT4Llu6VD+4OjMzE31690HqhTLqtsoFCqPRiEmTJgEgiIKIRYt+BADMmTNH05mA119/XXXusjIvun599O3bF6QoyM/Px7x581BYUIhNG9Vrt0VRwpQpU6ov412EQLBaLbhy5WqF6jWFFMTHxwMADJIB7du3d7shEACGDx+u+kyE5ORk3Lxxs7iNrkwfhsO5g3CjCofzJ6Fxk8bq1btEsNps+O677+62SMWQuuw/vyAfBHUWo127dqXPYijRtyoqLMLChQurP4ur9Wnuv/9+PPfcs/rProeflfVOqf9Xg379+kGAAEEQsW//fiQmJhbH+Q4bNIYMHQKTjwkEwu3bt/HWW//y7mfJfu4fvVPCAB9fHwwYMAACUw9b/emnn6DI9+h0Xw0hyw51OwxjaNasWbnpePbMWRw+fBjeHPr7+yMuLg7OrS7z58/HrexbpR2WKEOKomDmzJneB8wC0L17d0TUiYCiHfy6aeNG70KTaoy5cuUKUlIueHfLgNj+sfr5Eps3b8bJkyfVgY/r7Hsls01UZBQCAwPBGGC1WvDN198U3xDlxa/k5BScP3/+zhkQvHmrPRNEhri4QXBuH/15xc/e/dDqJVmRsXjRYjgcDkiihNq1wzB69OgaFP4uQ8Bzzz2nbokFIT8/H6tWr3J7XtZ7NRG2G17aAVEUMW7sOP1GtSJLESwWS2k/KpLHXJzk56nttSAI6NChA0RJLDduv/32m3cHDBikXbXLmIAjR47g2rVr5ctVGUg13tSPro9tW7chok4ECIQbN2/gr3/9K4oKi8r3wxtaGkydOg1mPzMUhbB3z14knU/Cnj17IAgCGjVqhMFDBpcy0AuigHfeeUe/fv67777Drl27kZ2TDcYY2tTUapq7DCmEb7752n2rp4e8ozgUJCcn4/Tp0wBUQ/pjUx4r4Zl6rpDzvKzbt25j7Tr1ymo+iuX8keDZkcP5k2A2mzF06DDtG2Hu3HlY9OOi0sYBfQOy+/sezzmoQURR1Dqn6v+PHz/uWS6X/8+aNRvHTxwve+aL1MNvZYfLShbnjdOuHxd/r129BufVwqXOcAHgZ/ZT94MzhoybGcjJzvF8RWll0JbAjhwxEgHaQbNWqwVDhg5B2qVLbtt6yOXGbPV78QBUtsuljR0VpGHDhnjyySfBIIAxhh9+mI/Tp08Xn6tSYjm3c9ba+UxxVH028Y7jMuB48smn9ANUz5w5g6eefBI2q630O2XtELnD5cATDEzPi0SKujLDqW5PebkSCIKg559zzhUfZfhls9rwySefwmqzeg+MATNmzIAkSVBIQVZWFhYsXODuxuV1RVYAAjZt2oxjR4+BldX10OQyGA3o06cvtPUKmD17NnJv5ZZOG+2rohAcDgemTJmCAs1w6+32n0mTJiHAPwAKFBQUFGDcuHHIuJnhrhuXWX63MqeoV427lVOmHvI9bNhw3dA0Z84cHD50xC3ckvF02GUsWPADHHLFzx7wCgOYAERGRuqD4bRLacjJ8WDwKsEjkybBYDCCCQyJRxPx2aefFZd5DzoA1ENMv/7mawBqPhs3biz8zH7VioKfn/q+wAScO+uSXzV+t/KpnTUc0yQGXbp2AYEgiiJeffVVpF9OV9241Ntu5dWF6tSbpBTHV4+3p3YN6tlDzkOHJUlSD1J2GuUF9RNep47ud1JyEixFFpfASodv8lHba4cs49ChQ2r7o8vm8gJTv3/y8Sc4dOhQufVUv/79IQoiiNTyN3rUaFgKLd5fKom3MFwmJFq1aoVPPv0EkihBEARs2bIFkydPrn57xoDIqAg0b94cBAVFliL89NNPcDgckBVZvWa+DDm7duuGhg0bghRC6sVU/Pbbr2oWIgWDBg0qfu+PPpHhBQJhxc8rsHv3br3+d3mo/lEIdocdX375JfIL8iEIAgKDghAXF+detqCujmzfvj0EQYCsyHjhhRdw+ODhUn46y4Z+hbj2m+xQys2XHE514UYVDufPAKmzIR999CG6dO6i//z000/j+eeeV68wBNwbKkH9m5WRhf/99n8xftz4OycfUzvd/WP7QxAE2B127NmzF1999VXxFhQUy5Sfn4/nnnkO77//vj57Wpa/SUlJ6N+/Pxb/uFjtJLrO6Dkbb+39ufPmYtHiRWqHTiGMf7h0nFu0aAGT0QSFZFgsFowcORK3b9/WPHL3rzLxBwA/fz8kxMfDbPYDEeHmzZvo06c3FsxfoLtjmg6cnSomMJw8eRJvvvEm/ud//qd0rV2J3UOvvfYaQkJC1Nme3Nvo3r073nrrLViKrKU8YWAghXDj2g3Mm/cV4gbFFeejPzC9evbEs399FmAMChHm//ADRgwfgRPHThQb3JxoerYUWbBh/QY89uhj2LevnK0PdwIB6NOnj7qKiQlIiI/Xl0NXt2PdqmUr7WYkYPbs2dgev71UhxVQjY1Dhw7DwoULyl8ZRqqRbsyYMapbAl7/x+t4659vFRs4XQ2FRPh+/vf4y1+egHqGUBm4rMx67bXXIIrqVeJXr11Fly5dcOLECY8GoaysTEyYOAE7d+yEmnO9H1QbHBqMFStWwMfkA8YYzp8/jx49euCnn5a7G2M0eQjqbTgHDxzE31/7O/7+t7/DecFPsVOGjz/+CPXq1wPAICsyRo8ehS2bS1ybrnkvyzKeffYZfP755xW6srzCEDB48GAYDUYoigKbzYZZs2a5h+/BUNe5S2e88/bb6lZLAl5//XW8/MrL6qy+NijXEYB1a9ehTZu2uH79OhgTEBQUhH/84x/VFr9jp456nb9+w3qs/GWl2/PfdVseU/PunDlfwuxnhsPhQEZGBjp27IQv53ypGmu1elrNI+prsqwg9UIqPpjxAV5+5ZVKB+s0WKxYvhxPPfUUEo8c1ctZKbcEZGdn48UXX9Ru1iHcd9996sHJJejZs6faFkNAUlISli5dWvaKGACPPDIZgpbw586dx1dff+UScPHf3Fu5eOaZZ/D2v94u26DpQoMG0fohsoqi4NDhQxg8ZDBOnzzt7r/2ke0ydu7YhcWLlrgZMisEU2/q+fzzz9WbgRQFa9aswUcff1RlQ7UrvXr10gOa9cUs7ZY9ASOGj/AsJwNEQUD3bt3hXLG3aNEiSKIIBlbs3z1sUAEAkGoYfeihsVi5Ul3dVfLQbOftSN988w0EJoIxhmlTpyLE9WYfzShoNBqxaPEihIeHgzEBVqsVgwcPxgfvf4DCgsLSbZr2/fKldHzxxReYOnWqW5+Qw7kT8INqOZxKQpVu1V1Ru/rqyouK7hlXe/bqYg3muXOliRIQEID58+dj3PhxOHXqFAoLCzHvq3lYtHgxOnbsgPbt28NgMKCgoABX0q8gKTkZSUnnYbXaEBxcetVG1SCAPOiGAa+++iqWLlmK5JRk2O02vPTSy1izZi369O6NwMBAZGZl4uzZs4iPT0DGzZsw+5vx1lsfYsaMD5Cfn1dK5c4l+9t3bMeuXbvw4ksvolWrVujatStCQ0MRFBSEW7du4drVa4hPiMex48c0UQRMnfoUunTpUkrMsPAwPP/C8/j000+hQMHOXTvRr18/jB07FqGhocjIyMC1a9fw5ZdfVuoqWefgsl37dpg1axZeffVV5NzKwaVLl/DEX57Au+++i27duqF+dH0wpp4lkZSUhKSkJFxJvwKFFIwYMaLUDJYzC5Wa2Cr5AwMiIyKxadNGjB83HhdSL6CgoAAffvAh/v3Nv9Gpcye0bNkSPiYfFBQWIjX1AlJTU3Hu7DnYHXZIklS8RcJDR7GiaLnZ+/W4ZVJ+eRElEXO+nIP8ggLVQMAYNm/ZjA4dO6Bdu3bo0L4DateuDYfDgZsZGTh79gzOnz+PnJxbEAUBTz75VBlyu8pbhh7Kk9mL+wEDB8BoNMJisyI3Lxf9Y/vjL3/5C9q1awebzYYrV66gXt16ePnVlysSqM4rr76C9RvWw2Kx4Pbt2xgydAhGjBiJDu3bw9fPFzk5t3Do0EFsT9iO3Lw8REfXxzvvvIPp06erN/V4qqO0eHz22Wc4d/Ycjh8/jiJLEd57/z389NNPiBsYh4jISCiKjOvXrmP37t04ceIEFEXB5MmTsWPHTly6lOb1ut927dri//7vP3j66emwWq04l3QOXbp0QWxsLDp37gxJMsBSVIQzZ88gIT4BObdy4OvnixEjRmDJ0qUoL6/ExvbHhx9+iLfffhu5ublIvZiKCRMexptvxqBHjx6IioqCIiu4dfsWzp9PQlLSef2K9kce8XAWlAAEhwTj66++xoSJE5CXl4f09HQMGjQIvXr1Qs+eD8DH5AOH7EBycjLit8Xj6rWrCAgIwHvvvoc3//kmHHZHjXT669Spg+7dumP7zu1QZAXvvf8ejhw+jD59+8JoNCAjIwOZmZmYN2+eejONlpdfffVVnD9/Hgt/XAhZljH3y7n45ZdfMHDgQDRp3AQmHxMyMzKRkJCAAwcOQNGWZ0TXq4eVq1YhMjKy2jPsY8eOxYwZM5CVnQVLkQWPTH4EEyZMQPv27UFEuHLlCiIjI/HSyx6uyCXn2qbKKJGpdWgZMjORoW27Nli6dCkmT56M3NxcZGTcxAsvvoDPPv0MnTt3RuMmjSEIAgoKCpCcnIyUYQYgVQAAIABJREFUlBRcTL0IWZbxYL8HK60DZ92Yl5eH777/HvPnz0dMkxh06NgB9993P0JCQ+Dn54f09HSkpKRg48ZNyM7OAgHw9zPjzTfehCCVbps6duiAulF1cfnKZdhtdjz55JPYsGEDunXrrhv5bTYrPp/5OQBg+vRpmDVrFlJTL4Ax4KWXXsJvv61Bn969ERIagtzbuTh56iS2bt2KG9dvwORjwrvvvIt33nkHgJfJBwZMmjwJ+w/s169B3r59Ozp07IBOnTqjY4cO8PPzQ15eHpJTknHu7DlcunwJ48ePx6RHJpapM8FTm6IZRqdOnYodO3bgl19+gd1ux1v/fAsNGjTEI49MqnT66BAQGxuLWbNmQSEZmdmZEAUR9evVR98Hy0h39bZnPDT2Ify46EfIioycWzkQmQiz2YyOHTuWWYZI60MUt0XM7Y9TJtL+uv3oNCiUcKvjapSoRvklRZWveYvm8PP1w8HDBzF+/Hh06NAeD/R4AHUiIiAwhotpF7F+/XqkXbqkBzf2oYcx44MZZcY9KioKS5ctxYSHJ+Dq9avIzMrEG/98E3PnzUWXLl3QtGlTvRympKTgwoVUXEhJgUOW0bFjh3t+9Q/nHoA4HE6FUWSFnn/ueRIFkSTRQI8+8iiRUvH3b1y/SeFh4WQ0GMns50+nTp4q9x3ZIdPlS+lUO7Q2GQ1G8jf7U2pKqhchiexWO40dM5Z8TL7EwEgURAJAoiDqH4EJ6l8IJDCB6tetX/GIlAxSVohkolYtW5MkSiSJEi1busyjuz279pDZz+wmh1MGBkaSKBEAMvuZadvWbZSXm0cRdSJIEiVq3qw5FRYU6vFUHAqdPX2WfIw++ruufoqCqP4uSGSQDMQgkK+PH02fNp3sNkeZ+ivIL6BOHToRg6C9x4iBkQCBDKKB6kbVJYe9jPcryJFDRyi6fjRJokQCE/Uw4DJHJzJRj5NBMtDECRNL5TeH3UFbNm8lSVTjGFwrmAryClR3ZeTN7MxsGhA7gExGEzEwMkgGAkACBF0OZ74RIJAkGigkOIQyMzI9+tm4UWMySkaSRAOtW7vOe8QVorzcPDIZTSQKEkmCRFs3by1fYQrR2IfG6mk5a+asct3PmTWHfH189TwpiQY3Hav6NZAoSCQwgfx8/WjH9h0e/Xp8yuMkamFPe2pa+fJqvPLSKyQKIhkNRhoyeGiZaaLIRAt/WEi+Pn667p2yCkzNd1OfmlrhcF1lX/zjYjL7mVV/maiXNWeaS4JEAgRq2KAhnTt7nnKycygyIooMkoFGjxrj1fvsrGzq0qmLXk4EJhD0v6qOGRgZJSNNfWoa2Sw26tGtB5mMJvLz9aPUC6ll6EMhRVZo9crVFBocqpXv4jDUOAgkiRIxCBQVEUVHE4/Rti3bSBQkMhqM9M83/lmuehLit1PdyLp6HnDWPwB0HTnLHwAyGow05bEpXv08feo0RdSJJIGp7znLlZ6WkoEEJpDZz0yLFi4iIqI6YXXIaDBR3MC4cmWuCMePnaCw2mF6vVhcrlXdNWvavMx3Z8+aTWY/s14vuepDYIKWpgKJgkQP9HiAsjOzK9UOekN2yLTmtzXk6+OnlwGn3ABIEiR6evrTRKS1OwrRxg2bSBIlMkpG8vfzp7zbeRUKK/FIol4/hIWG0fVr1726z87Mptat2pBBMhIAPW2dcjrzukHLp5JooBHDRlRZF/O/n6+1D4JefznzkJoWop7/JUGiQP9ASojfrurFEwrRjoQdFFwrWOvDSHr6Otu6ng/01J3Ldpn27d1PEeERLmVZcKs/neU+NKQ2bU/YTjarjRo3bEw+Jh/q3q2H1/gpMtG/v/k3mf3MJAmS3k9xlUkSJTKIBhKYSBMnTCrlxwvPv0gGyUBGg5GenvZ02YHJavx7PtCTJNFABslAQYFBav1Tjbx7+9ZtCgkOIaPBqH/eefudct+zWmx6++/MuxMnTPT6jmyXacb7M8ggqfJ36dxVfVBCfkVW6PEpT+h+T3ns8dJxlNW6u0F0A5JEiXxMPnRg34FKxLw0F1PTqFZgLTIaTPTBjA/IZrVRbL9YMhl99L5Mqf6F9vuUx6ZUrE+lEOXn5VP3bt2L+y1aW+NsF5z1rbMul0SJevXsVa24cTgVga9U4XAqAWMMrVu3xujRo6EoCtpop9hXCAJ8fHwwZPAQFBQUQJRE1KpVq1zrOWMMvr4+iIsbBKvVAoNkKHXdnPsLgGSUsGzZMpw5ewbx8fHYuHEjThw/geyc4u0bISGhaNy4MTp27IDBgwerh1hWEeeMc2xsfzRr1hQAUK9evdLuBIbuD3RHSnIKVq5aiRXLV+DosaOw2exgTNVPt27dMGb0GPSP7a/6QVD3zx4+jMjISEiipMeTCQz3N70fx44fw6GDh/Drb78hJSUZqRdStWtb1SWoYeFhuP/++zF8+HD06dMXzb0d2MnUc1W2bduG39b8hgULFuBo4lEUWYoAAqIbRKNr164QhOot2W/foT3OnDmDAwcOYt26tdizZy/Onj0Dm02TWxBRt24UmjRpgv79++OBBx5AixYtSvkjiiLCw8MxatQogNRlsgajQY+LJ4JDg7FmzRqcOnUKW7dsxabNm3Dy5EkUFBTos1e1a9fGffffj+7du6F37z5o1bIlQkNCS890MSAuLg6ZGZnqdbh163oKshhtK5h6mr9KVN2o8hXGgM6dO6vBkrrEvTyef/F5jBg5AgcOHMDKlStx7NgxXLlyBURQ85vJB40bN0bTZk0xdMhQtGrdGjExTTz61aFDR+Tl5QEAunQtvcKpLFq0bInRo0eDMYZOnTqVPSPOgMmPTUa79u3wn//8B9u2bcPFi2kgIvj5+aJZs2bo369/hcN1ZcLECejQsQOWL1+BDRvW48yZM7Db7QDUverdu3XHuPHj0adPbwQEBMBhd+Dhh8fj8uXL6Nq1q1e/g0OCsWfvHuzbtw8///wztm7dhrSLFyErCgRBQMuWLREXNxCjRo5Cy1YtIYkSRo0ahbr16oKBwd/s+dp3JjBAAUaMGoGjHY4iPj4ey1csx5EjR9R8CvXA3M6dO2PihIno3ac36tSpg6ysLIwePQpEpF4d7a1+JaBP3944dfoUEhMTsWrVKuzfvx/nzp7TzjlRZ78bNGyAxo0aY9DgQejSpatex5XlZ/MWzZGYeAQ7d+7C4sWLkJiYiOysbBAI/v4B6NSpI0aPHo1+/fqjYcMGIAUYO24sMm5moGWrluWkZsVo3aYVjh49ih9//BGrV/+K06dPQZYVSJKEmJgmiI0dUKZuXnjhBYwaNQo7d+7Ezz//jF27dsNqVc+8EAQRbdq0Ru9evTF02FC0bdsWvr6+NSIzoB7kOWTIEBw6dBD/+c932LZtK1JTU6EoCgwGI1q3bo3evXsD0PIIqXl45MiREAQBRqNJvSK7AoSEhGD48OFQFIK/vxl+fl7aVQJq1aqFvXv34OjRY9i8eRPit8XjjFZnKwpBEBjq1auH6OgGiI1V6+ym93vJK+Uwftx4tGzZChs3bsCOHTuQdjEN165f0266YjAaTbgvJgatWrfC8OEj8MADPfTbbjzCgF59euHAgQNYsGAB1q1bh+SkZCikwGAwoFmz5hg5cqTuXJAEdO3WBUcSj2D1qtVYtXqV3hYSEQIDAtGmbRtMmDAB/fv1R936dUEK8NLLL2HH9h1oEhPjNX5MUFeQDBw4EHv37sWqVauQmJiImzdv6nEMDa2Ndu3aYtiwYejXr18pP9q0aaOu4ERx++ARbVvtoh8X4W9//xscDgcEJmDGjA8we9Ys+PlX7SygwIBAvPbaazhw4AAAtf2dMmVKuddnG00GvPnmm9i0cRMI6lXKf/vb373WV0xgaNWqFUaOHAUAxW1VqdUnDJ06dUS+1l516tix+JmLW6PBiEFxg5CVlQVBFBESGlKta7/9/HwxZMgQyIqMp558CgaDAb+t+Q1HjhzBiuUrEB8fjwsXLkAySFAUBS1btsSA2AEYOWok2rZpW+GtfWazGQnxCTh27Bg2b9mMLVu24MzpMygsKlTVwRjCwsLRuFEj9H2wL/r06aOWQ75ShXOHYUR38846Dofze0EKqcvLNURRdLua8W4hOxTIDgcIBKPBCCbWjEDOQ/hEUYQkGVCpYwtKNL6yQ4bVaoPBYIDBIN0RnZECKLIMh0NNI0EUIUlS5eSucuDq8lqb1ap+Z4DBYKjc9qZ7ANIONJVl9dwPSZIgiuIf9vpkq8UKIsBkrLlyAVLP83DmM6PRVL085qGjKjtU/0VBzcNunXRPS9ArGTVLkUU9kNOgHj5Z0+XRYVfzCBHBaDRWeptfKXlIPQSYMaaV6RLL9n+Hzj4pBEuRBQajQU2TKuhcEiWIv1ed5ILd5oAiyzAYDXckvauDIivaFeFq2oqSWPywOjuFy0B2KHA4VIOoweBBH5UM026zw+GQYTIaS28Z8pQvFaDIYoHRYFC3jgkl3NbA9hFnHa0ajoy6h8zlzKU/PHwAXxoCHA4ZiiJDFCWIHraoVQerxarudBIYDJKh5tpMDqeCcKMKh/PfQslD2f5c4+XfD9L2Df9ZGmzXw+P+JFEqF21f+39NfO8mFTkMsqp1ER+4VJyaGOBzfXvGVS93WkeeypNrXfZ7pdHvEU/c4TA4vy9l5ZlqrI7hcP5IcKMKh8PhlEfJWpJQs52AP0IH0lNH/c+Gp4P5/tvwdlhhWVRVVxXtXVTW/zs9oPuzGt2qozduUClNyfrk96hfPJWp39NQdqfbKm86vZPhcn5/eHvM+ZPBjSocDofD4XA4Tv4IRk4Oh8PhcDj3DHzBFYfD4XA4HA6Hw+FwOBxOFeBGFQ6Hw+FwOBwOh8PhcDicKsCNKhwOh8PhcDgcDofD4XA4VUC62wJwOBwOh8Ph/GHgZ6lwOBwOh8OpBHylCofD4XA4HA6Hw+FwOBxOFeBGFQ6Hw+FwOBwOh8PhcDicKsCNKhwOh8PhcDgcDofD4XA4VYAbVTgcDofD4XA4HA6Hw+FwqgA3qnA4HA6Hw+FwOBwOh8PhVAFuVOFwOBwOh8PhcDgcDofDqQLcqMLhcDgcDofD4XA4HA6HUwW4UYXD4XA4HA6Hw+FwOBwOpwpwowqHw+FwOBwOh8PhcDgcThWQ7rYAHA4HyMzIxPXr1wEAfn5mNG7cqPghu0tC3QkIAAMsRRacO3ce2dnZkB0OBAYGIjg4GE2aNIEgabZeBarZV3uHU7MU5hciLS0NYIAkSu6653A4nDtETnYOrly5AsYYTCYTYu6Lqb6n5PJ/Bly+dBmXLl1CYWEhJElCcHAI6taNQlh4WPXD4tQYt3Ju4fLly5BECQajATExMby9/2+AgMuXL+P27VwwAGHhYQivE363peJwqgU3qnA4dwJnB6+CnYPPPvsMn3zyCRgT0CA6GhdSL/wpOxY2mw1fffUVPvjgA2RnZQMMUBQFAhMgiAJq1aqF3bt3IybmPuTn50OWHfDx8YGPj8+fUh93kwMHDyA2dgAAQmRkJI4ePYrQ2qF3WyxOZeFGR849xvLlyzH96ekAgIbRDZGallp9T7UykJOVg0cfexQbN26EQ3ZAYAKICAwMZn8zhg8fgUWLfnR7h3OXIGDZsmV45plnQERo27Yt9u8/AKPJcLcl49xhFEXBM399BuvWrwMATJs2DV9/87X6kLdpnHsUblThcP4A+Pj4gAAIDPDz8/vzNSgEFBUVYfjw4UhISICiKGq7SQDTIqsoCvz8zGjQoAEOHTqIUaNGIz8/D+3bt8e6devgZ/a7u3HwRiWNaH8ERFGCIDA4HDIYY2DsHhKeUxreEeXcI/j6+kGAADAGs9lcM54SsGnjJowfPx65eblg2j+FCIJWtxUUFKB//36qe15W7jpEgNFoApHagApM4MlSFs76/R7sa3iCiODr66t/NxqN2oO7JBCHUwNwowqHU9OQ+iEiMIFVvvG7xxvLspg3bx62bdsGxhgEJmD609MxYsQIBAUF4eLFNBw/fgxNmzaF0WREQsJ2XL12BQwM+/btR3ZW9h/bqKJ1dhRZgSAI914aktrB5dxDaOnlnIW/5/Ic578YAqGG8q1WDvLy8vHsc88iNy8XgiAgJiYGzz33HDp27IiioiKcPHkS586ew8SJE3lZucOQAug2eq7rmkPRbCt/Ap0yxtsszp8PblThcO4AS5Yuwbat2/DEX55Ajwd63G1x7jq3cm7hX/96G4IgQBAEvPzyy/j4k4/15926d8OEiQ+rXwgIDAwAoBpfTEYjTD6muyN4RSBAUQgF+fl44cUXYTQaMWfO7D+2zJx7HwIgAKtXrcbq1avxzDPPoHOXzndbKg7n94eA+d9/j+SUFAAEX18/7Nixw+2Mhn79+/HVXHcaAlauXIlVq1Zh2tRpeKDXA3dboj8PDDh9+jQ+/fRT9O3bF1Men3K3JeJwOCXgRhUOpyZwWZJptVrxt7/9DVevXkWnzp24UQXA4cOHUVRUCAAICQ7Bu++869X9xIkTkZ2djZSUFAwfPhyhIaF/3A4xAwTGsOLnFfjhh/kwmUz48MMPuVGFc+fQDCog4L1338ORo4no06cPN6pw/usgRV31Ep8QD0DdTjp58iPuh17+SbZM3AvM/Hwmdu/ZjW7dunGjSk1CwGuvvYbf1qwBEXGjCofzB4QbVTicGoQUwq5du3D16lUAULeCcHAzI0M/s6NevXow+XoxODAgMDAQ/3j9H7+TdDWAAKxbt/5uS8H5L4IUwrFjx3Dy1EmIggBBEO+2SBxO+dTwNkMmMCiyot2ep1reu3TuUsJRzYbJ8UxaWhoSExPBFV7zpKdfwebNmwEQJFH6404ycTj/xfARH4dTEzD1wxjDhg0boJCinnVQ1uZXpWyvREF073iW1Qkll2c11VGtAX9IQXH8NP8KCgrUs1QEASZTCYNKyTgo6vkeJBNIIa+68iyAy1/F3d8qx8/be5qse/bsruALNYRrvDzpqLJ6q0q4rmFVJi+WdKOU+FsZ9XmKZ3XLhafyV9Kv8vwmz25IIe9l2pvfBMgOWa1rBIZvv/0WNrsNiqIU77O/E+leZlxKuPEWvqc0L+lvNYsNySU8KCtflidjVfIPoXR8KlMune9qMnvNJzWBaxw9/d/T98r6facoUbcTEYqKLPqh56XaGGj6rIBsZbqraL3mKR9UFE/vOMXxJn8ZYVHJ+rQS75aLh3z85ZdzUVhUBIKi9n0qUuY0GGPqOTsCc4+zszzIVHW9lqQ8f37n88WcZd2ZxuTM2y5/ExLiYbVaa/b8rLLa4crgWo976Pvp/6+pdHP9qvzOCcXhlANfqcLhVBdtxiD3di4WLlyIZcuWwdnqHU08itUrV7s4VRvPLl27ICoqymPjKCuy6lYmKIqCDRs3YO/evcjNzdVPTA8JCUHv3n3Q44HuVWqsrqRfwZo1a5CcnIyc7BzIioKQkGDExMRg0KBBaNSoUZUbbqaZaklRvTh/PgmHDh1UG0ABuHX7Ftav2wCb1apfqSyKIuLi4tQtMwKQlZGJPbv3gAD4+vogNjYWgljaBnz82HFcvHgRjDH07dsXAYEB+rPt27dj08ZNyMrKgqzICAoKwqOPPoq27doWe6DpLvVCKuIT4pGSkoKc7BxYrFYYjQYEBQUhPDwcXbt0RafOneDj6+P+LgMOHDiAb7/9Fjeu39AfrV+3HgEBqizOmw3M/mbE9o/VDXDV4drVa1i9ejVSklOQnZMNURQRGBiIxo0aY+iwoWjQoEH1AvBCXl4etm7dikOHDiHjZgYcsgN+fn6oV7ceBgwYgA4dOniPHwEF+QXYunUrACAqKgqdunQCAMiyjF07dmF7wnZcuXoFVosVZn9/1K9XD3GD4tC+Q/tSfoEB27bGIz5+GzIzM2GxWGA2m1GnTh306tUbfR/sU+k4EhGOHD6CzZs248rVKygqLIIgiggPD0fnzp3Qr18/PX29sX/ffly7dg2+vr6IGxQHQDWG3Mq5jXVr1+L4iRO4efMmGAPMfmaEhYXhwX4Pomevnmrn1MO0hyiKyM7KwbJlS7Fy5UpNDYSDBw8iODgYDodDH1wCal0TGRlZ6Tx3+tQZJJ0/DwKhT5++CA6uBUVWwJiAPXt2Y9269bh58yZIURAYFITx48ehW7dupcPROtTZOdnYsGEjjh09iuzsbDhkB4KCaiE6uj4GDhyIli1blnsDlaXQgg0bN0IUBDRv0RwxMTEAUw1Nmzdvxs6dO3Hzxk3YHXYEBASgYcNGiIuLQ6tWLYtvztDKn91qx6bNm7F3zx7cuHkDDocD/mZ/1KlTB7EDYtG1a7eKHwjpMmt86OAhbN2yFdeuX0Nebh4YYwiqFYTo6AYYMCAWLVq0cHOvw4ALyRdw/MRxMMZgNBgxYOAASIYKdtNIzW/Xb1wHYwICAvzxYL8Hy3SbfjkdGzZuRFJSErKyMiHLMmqH1kbjJo0xcOBANIlpostVoeAVICsrC5s3bcLxE8dx8+ZNyLKMkJAQNGkSg8GDB6Fxk8Y1cyC2sw4lwFJkwd59e5GTk60/Pnb8OPxX+UNxWhUIiI6ORoeOHUAKgYlM1dX16wCAIUOGwmCQAAZYLBasWbMW+/btxa2cWwBjCA0NxbPPPIMGjTzUq1p8bty4gW3b4nHyxAlkZWehqKgI/v7+iKgTgU6dO+HBBx+Ej4+Pd30y9bDzjRs3wmq1wmz2x4MP9oUkqSsTTp08jfXr1iH1YioKCwphMBoQHl4HPXv2RL9+D8JgMOrtL6C2xceOHsOaNWtw7dp15OflwWA0Ijw8HB06tMfQocPg42PynB/LwyWcWzm3sHz5CixZvFhXSGJiItasWQNZlvXIMQZ069bNfWtWCRRZASTAZrFhx84d2LVrN7KysqAoCkwmE2oFBaFnr17o0aO72h5XRnYCbt64iQ0bN+DEiRPIyckBESEwMBBNmjRBXFwc7rv/vhpfAWK32rFn717s378P169fx+3bt0FEMJvNCAoKQrNmzdGlc2fc3/R+gLQ+FAEQAKvFilWrVmP27Nm6f6mpqVi3dh3sDrtbOI0bN0brNq09xhsAzp87j8NHDuPMmTPIy8uDzWaHyWSCv78Z7du3R2z/WAQEld+uufkrqNeYx8fH40jiEWRnZaPIYoHRaERIcDCiG0SjS5cuaNeuHUSp6qspSQEOHNiv97OsNit69uyJyKjIKvvJ4dQ4xOFwqo6ifma8N4Nqh9YmkYkEgBgYCUwgAQIxMLePKEj0w/wf3Lz511v/IoCRJErUt3dfKsgroP/73/+jenXr6X44/XV+BCZQ65atacO6DSQ7ZDd5SPEs7qW0S/Tcs8+Rv5+/7o/qr6B/zH5meurJpyjtYlq5/pWFzWqjd995jzp36kJGg5EAkMAElzCd8VB/M4gGunblmv7+9oTtJAoiiYJE9evVp9zbuR7Dee7Z50gURPIx+tCRQ0eIiOjUyVM0eNBgghY3uOhr7Zq16ouaus6cPkOTJk4is5/ZTb9OnQtMIIGJJDCBoiLr0vRp0+l2zm0ihSgnK4f694stdguhVBo5fxcgUHS96Crpkoj09y6lXaKpT00lf7M/iUxUZYPglpZ+vn40fep0Sr+c7tXLHdt3kkEyEAOj+nXrU2ZGVtmOZaLCgkKaNXMW1YuqR4Kez4VSOu7frz8dOXykOE96iEvSuSRNtwLF9h9ADruD9u7ZS106dykRH2caqp9hQ4fTuTPniBQiu81OG9ZtoDat27iVD6dbVTZGbdu0pT2797jp0aN+iUiRFTq4/yD16tlL90vQ/HGmr8AEqhtVl+bNnUcOm8Nrmo0YNoIYBPLz9aOc7BzKzMiiGe/PoOBaIS7xK46rs4x06dSFdu3cTYrDXVjZIdP7775P4WHhJDD3/Oae94p1uPLnlWXL6EX2//c//0+tr5hIO7bv0NNt6JBhBO13uIT107Kf3HWr/T8zI5PefuttqhNWp7huRHG5EiCQj8mHhgweQidPnCz1vitpqWl6vJ54/AmS7TJt27qNWrdq7ZZnXOtMk9FE48aOo8uXLutpvHDBQmrSOMatnLrnH0YDYwfS2dNny9UTkVrfrfl1DXVo38GtHiiu91R5JNFAg+IG0f59B0r7JRPt2rGLJFEiAQIZDUZKPJJYpi5Kvmuz2qh1q9Z6Ppo+bbpez7nKm345nZ5/7nny8zWX2U75GH1o8qTJdCntUvltgEJUkF9AH8z4kMJqh3n0z6mHJx5/gi6mXqSVv6zUwhapZYuW5UTOM4cOHqIpj02hupF1S5WFUvUvE2j0yNFucRg1crReB6VfTlfz0pZt1K5tOxKZ6OaHQTRQakqqW5ydf1NTUmna1OlaG+IsD4Jetp1xj64XTV/O+ZIKCwpL++PyvaigiCLqRGhtThRlZmRS6oVUemTSZL2+9vRp1bIV7dyxkxRZIVKIjh09RsOGDCNRkHT9lGyj6kbWpaWLl1ZJ/0RqWfr4o48pMiKqjDrIPR+IgkTLly13i+93//lOz4c9H+hJRYVFNP+7+dSkURO9LKryMz0eAKPmTZvTr6t+JZvF5r18aM9uXr9JL7/0CgUFBrm1E64yGyQDPfrIo5SclOyWxpVXjPrHYXPQLz//UipPufU1tPJiEA3Utk1bWv7TcjUNiWjF8hXUpHGTUu5d21zXz/PPPV9KlPTL6TRv7jxq37Y9mYymUv0F1/5qaHAoffbp52S32suNGylE6ZfS6ZWXX6HQkFC3urNkf09gIvXu1dvNG9kh07ix4/Qy+MLzLxT770Hn69eupwD/QBIgkCiINH7ceLUvxuH8geBGFQ6nOmiVf5/efdw6j87Gyjn4LNkofv/dfDdvnEYVgamNxdgxY106igIZJAOFh9WhWkG13Bpng2ggURBp1hezypXz1MlTFBRYS5fTaQCKqBNJEeERegfI2RiG1Q6j5PPJVVLL7Vu55GP0KRX3kgPfYj0JbkaAnTt2kqR1BhvUb1CmUeWli8bvAAAgAElEQVTll17RZY7fFk/79uwjk8Hk1skGQJIgEQA6oA1mFIdChw8dJj8fPz3ezk5neFgdCg0JpaDAWiQJkq4nURCpTeu2JDtkUmSi8+fO6wYT53Nn2gglOuUMjKIio6qkSydpqWlaOrkPVKIi61JEnYhSnUR/sz+dcQ4KPXRSdmpGFYEJ3o0qClFOdg61aN5S16MzjFpBtahe3Xrk6+NLIhPJIBkIAAX4B9D6teuJSDV+uHknK5SclKx3plo0b0mnTp4is69Z75AZDSaKiowiP18/EphIkiiRKKjpEBURRVfSr9A7b7/rNoATBZFqh9SmAP8A3a0zbQySkQ7sP1C2QUVR5fpq3ld6vnUOyHxMPlQ3qh6FBIe45V2RidS7Vx+yFlnLTLMxo8bo+XP9uvXUvl17zRjmlMtAkRGR5G8OKFVOREGi1atWuw2MrRYrNW/aXK0TRAMxFMdfEiSPg61ffv6l8gMDheiN19/Q8/Jvq3+jxCNHydfkW5zXBTUeoqDm9d27dpcyqlgtVmrbpm0pmcLDwikqMsq9jIoS+Zh8ig2fHrh86bIebrs27ejfX/9bHSi41Lm1Q2uTv9m/1IChZYuW5LDLNHbMWBJd8rHJaKKw0DAK9A8sVS/VCgqmlKQUfZDjCYfNQdOmTnfThfP9kOAQCgkOUZ+51AlGg5G+mPlFKb+sFivFNIkhAQJJooEGxA7Q86bX5JIVOnniFBlEA0mimg/279tfKt0zMzKpQf0GxCBo9auqy/CwOhRRJ0Kv66CVp5DgEDp+7LjXsO1WO3Xt0pUEJuh5UGQiBfoHUt3IuhQaEqq3KQITqWGDhpR4OFEb7FfRqKIQvfTiS27th3sbK+rGFGcdMWL4CDcvxowaoz8/fOgwrVq52m3Q6XwmiRLVq1vPoxjr120gs6/ZLXxJlMjf7E/hYeF6PeSsLwQmULOmzSg7M7s4TUuUGVejSmBAICUeOUpREVG6PAyMIiMiKSQ4RM9TzjAk0UAJ8QkUvy2BTEYfN6N0cK1gCg0J1etSZxslChJ9OfvLyqcBETnsDmrVspVHA0XJ705Dy7Ily9z8cBpVGBg92PdBGj5suF6OnGWldmhtCqsdptZ3LroWmEBffP5FaT266FO2y3Qh5QJF148m5ySAU48RdSIoIjxCn6BwpldYaBhdTL1YJZ04ke0yvfa311QjqZZ2oiCRyWCiiDoRFBUZRSaDSe8nqmVeop+W/aQbxp6e/rSb7vT87MGIKDCBnnu2hFFFIZr1xSyP7UNIcAjVr1effEw+bvoUBZFGjhhZbptxIeWCbih3/5Q2WAGg9959z10/FTWqKEQ/LvhRr7NFQaJJEyeRbC9j0obDuYtwowqHU10UouvXrlNK8gW6kHyBOnXsrDdcH33wEaUkp1BKcgpdSEmlCymplJyUTAX5hW4Nh75SRZCodmhtMkgGCgoIonfffpf27t5L165eI6vFSvl5+XT+XBItXrSEGkY31Gd860bVo7zcvDIbwuSkZGrYoKHe0MU0iaGlS5bSxdSLZLPayG61U9rFNFq4YCHVjaqrDygbNWxEV69crdSgzNlZTLuYpsf94w8/1gdjHdt31H9PSU6h5KRkSklOIYe9eNa/skYVBkZfzPyCWrZoSQAoun40ffrxp3Rg/wG6kHKBzp4+S1s2b6GC/AI9LrH9Y/XOSc8ePWnD+g2UfimdLEUWstvslHs7j5LOJ9OGdRvog/c/oB7de9Cpk6f0QY7VYqOU5AuUkpxC69as03VmNBjp+LHjeno7P2kX0zT9VFyXTllPnzpN9evV1zuEjRs2piWLl1DaxTSyW+1ks9goJTmFlixeQpERkbpOmjdrTpkZmdUyqthtDho5YqQev9qhtWnOrDl05tQZKsgrINku080bGbRu7Trq3q27HraPyYe2bN5SOkqyQknni1eq+Jh8KDgomADQlEen0M4dOynjZgbZrDbKy82jo4nH6KUXXyJRM3AJEKh71+7kY/IhSZBo3EPjaMumLXT1ylWyFFkoLzePzp87T++8/Y7eYRSYQANiB7jlMVcdKzLR9//5Xo8jA6OHRj9EO3fspKzMLJIdMhXkFdDRxKP0+muvk6/JV3f38osvl5l8Y0aNUWfWmKitLhEpMiKSvpr7FSUeTqTMjEy9XJ8+dZr+/fW/KSw0TDcctGjegqyWYqONIqurlVJTUunM6bPUvFlzvdM6Z/Yct3Ll/BQWFFaq/Dp1UmxUEWjG+zOobZt2qlErMopmvD+D9u3dR0nnk+jMqTO0dfNWys/Ldwsn91YudWzfsdiQUjuc5s2dR8lJKWQpspLD5qAr6Vfo19W/UtvWbfV0CqsdRv+/vfuOs6K6/z/+nnvvFnbpXUBBpCqgCKJUG2gEEWwomkQMtq/GaGyJRqM/CxZsUWM0NqwRCxYUQRQbICqggIBUpezSWbbfOuf3x9w7e3e5u3t3ACF5vJ4+1uHeO+VMOzPzOWfOyduYVyktCYmgiiRTLzvHNKjf0AT8AXPD9TeYubPnusdNYUGh+X7B9+ai319UKZh7TN9jTFZmlvFbfnPxuIvNl198ZbZs3mKC5SFTXFRsFv+w2Nx0w00mOzPbDdRd+6drq91MkXDE/OHiP1R6yDn3nHPNJzM/MRs35JlgWdCUlZaZNavXmLffetsM6D8wnh7n4fuZp5+pWMf435tvvOk+3AT8AbNk8ZJad1csEjMnHH+C+2DYpVOX3YKZG9ZtMAe3O8RN52GHHmYmvTDJrPtlnZPnhSJm/br15j+v/cd0OqyTSdRG6tqlqykrLU+xUCc4/fvfXVTpwW/s+WPN3NlzTWFBoYlFY6a8LGhW/LTCvPLyK6bjoR2NT7544HMPgirGmKLCIrN2zVqzetUas+KnFabnERW1lZ7855Nm7Rrnerx29Vqzds1as3Xz1krTJwdV7vp/d5nsLGefH9XrKPPSiy+ZxYsWm9Wr1pilPy51g/HGGDf//37h96Zli5buNbVjh47mmX8/Y5YvXW6KdhWZcDBstm7ZZr6eO8/87ea/mQa5DZKCByeZ0uLS3YNlVYIqAX8gHkywzOBBg83U96eaDes3mFAwZMrLys2Kn1aap5962jRv2txdl65dupp2bZ1rxTF9jjFT3p7i3HMUl5rS4lKzft168/xzz5uWzVu6hTYtW7Q0mzdt9rQfNm/aYtasXmNWrVhlOh7a0S2kmPjAxN32wS8//+Jcg5MkB1WcILrPNMhtYG684UYzd85cszl/swmVh0xZabn5ee3PZvLrb5gO7Tu40zSs39C5LqdiG1NSXGJ69ujlHvcdO3Q0L7/0svl5zc8mFAyZSDhq1q/bYF595dX4fJ17qmZNmlWunVQXMWPmzJ7jXiOyMrPNLX+9xXy/4HtTsLPAxCIxEw6FzdbNW80P3/9g3nrzLXPZJZeZ4/odZ0qLK7bP1i1bzdo1zj3GuIvGuXnkBWMvML/8/Ev83mKt+7d92/bd1r+osMgccnB7c0zfY8zE+yeaT2Z+atavW2/KSsuMHbPNju07zBeff2EGDxxsErX8fJbPKYSoZpuuXrXaNG/a3A305NbLNTfecKP5dOanZs3qtSZ/Y75Zs2qN+erL2ea5Z58z5593vvlpeeVafzUGVRIVr2O2eerJp0yD+g3cWsM33nCj9xq/wD5GUAXYU7GkoW3MgOMGuDfZ/37639VPlyKokniYatyosZkxfcZu1f8T09kx230oTtzM3nfvfbvN19hOtfAz4yXmlizTs0dPs3XL1t3nGx9/xU8r3Zs6S5a58Yab9vgi9vyzz7uldcf0OabaZSeWUbegSkVppM/ymV49e5kN6zcYO2a7JT5Vt0k0HDVNGjdxb1xX/LSiIg2xOv7Zxnw771u3ZkR2VrbZsb2GV2nqIp72s8862ySqlPfp3ccU7CxIPa4xZuGChW6Qwu8LVPvQX2tQJb7sCfdMcIMNjRs1NjNnzKz+lQDbmCGDhrj7eujJw3YLIiUHVZKrh//lpr9Uuw3smG3OO/c8d76J9Fx26eW7PTy6k0Vt8+ADD7o3os2aNKu2uvDWLVvdUjeffOb/rrgydVri7p1wr5v2rIysitL8Ktuj4sHNOa/btWlnFi5wXlOr7nh6+aWXK5WmvvXGWynTEAqG4w8LTtCg6iuFeyQpqJL48/sCpmuXrubnNT9XnFfViTl5WiKg0bJFS7N82fJqR1+/boPz+mT8lb+hJw9L+WpVck0Vn+Uz9bLqmScefyJl+hPHzcjTRybVWnLSM+HuCdWudzgUNr//3e+N33JqnjVp3MSUFJemHH3G9I9NZkam8Vt+k5mRaW65+ZYaNopTq2PUyFEm8SpDbk6uWbVy1W7p7talm5uvPXDfAzXO0xhjlixe4j40ZgQyzMyPqwQzY8ZcMPYCd1927dzVyUOqKd1fsvhHUz+nvpun/unqa3bLQ40xZt7ceSYzkOkG36668o81pnPjho1u4DtRo8RrUMVNSsw20UjMHN37aHf9Xnv1tRomcAbJQRWnhkmGuXDshdXu62RFu4pMxw4d3eUdcnB756GxhnPinSnvmEYNGpnEazFX//HqlK9nJQdVEjUhR44YWWN6/v30v5NqAzlB3D69+5itW7Y552rVfMY4r0/l1Mtxa9d8MvPTWte7WjFjwsGw6dK5i3vOP/XkU2lNmhxU8VlOoUS1ryzGz49VK1eZJo2buPnkTTfetHthRfxcPuvMs9waKm3btHPyoaTtkGzblm3xGi1WrQHz2ky4e4K7LS4Ye+EeBwH+74r/c9f3D+P+4N571Cj++4b1G5wCheTrdpVpS4pKTIf2h7q1hO66866U1/dYNGZOH366e+40b9bcfDPvmzrXHKktqBIOhc3TTz1tsrOy3Vo8d/z9jkr3XQRWcKAhqALsqb0YVElU0Xzk4Ueqv2jEv49FY2b0qNFuUOXYY45NGYTZvm27e/NkyTKzPp1V88XINmbi/RPdB9hDDm6/W3rrKq2gSpK61lRJ1ILpcUQPEywP1rp+hbsKnYcGy2fq5zaoqOWTuFh7DKokamjsraCKHbPNz2t/MZkZme5N86xPZqW+MUr6/MD9E92H+Q7tO6Rs3ySdoEpJcanpdFgn96b0X0/+q9qbuUSp6wdTP6j0asiC7xbsNl5yTRWfnH1QuKua96Pj65W3Mc9tn8fv85uuXbo561XNeWLHbLN65Wp3HTMzMs2iHxalvFG8ZPwl8QBbhul0WGcTDoVTpyUuGo6aXj2PdI+9s888O+U2PispmJnhzzCfzPyk4ua/muMpGo6a3kf2dkuRr7ziypTrt1tQ5YV9F1TxWT7T+bDOFaXMteQFP6/92Tl/E+2tvO60t5IySBw38+NP3GkC/oCZ/92C3fZtclDF7/ObU4adUvOrMbYxn8/6vKIKvnzVng+J8e2YU7U9w5/hLmfu7LmVR4vZJhaNmYEDBrqBh+MHH28iNbWxE58uWB403bt1d9tOGXfROGPHTKX1+MtNfzGJ1z4P7354ra//PHDfA+6ris5rThXpsGO2+Xru1+6x6pPPzP9ufo3bzI7Z5vHHHndrYdTLrmd+WVv5dYhIKGJ6H9XbnW+rFq2cvLcGsUjMTH1/qvtwuF+CKnHJQRW/L2D6H9u/1vM+YfpHM0zAFzABX8Dk5uSaNavX1PyQF//+n0/80133Vi1apcyLkoMqVryWm9u2TnWzj9rm0HiQR5Jp2KCh2VWwq2LZKYIqwfKg6da1u5ueu+68O611T2kvBFUS59Gfr/1zWvcaV115lfsa4rCTh6Ws9bP0x6UmJ9up/ZKdme3k/1W2Q9VpJtw9wW23Iysze7caTumwY8bccvMt7ra46Yab3Pl7vY/ak6BKWsu1jbn8sivcc2LE8BEpR5v1ySy3ADDgC5hXX3m18nLSVF1QJRGw/3+3/794rUTn/vbRRx518rXkoApwgKFLZWBPeT2LUrQwb+R0LVhjLzGWZNtOd82/+c1p7tdFxUUVvR0kZmZLt916m8rLy2VZlo7ufbSGDBlSaw8EQ4YMkSTZxtamTfn6cfGPe71F/L3Ntm39+c9/drrTrGX9GtRvoIYNG0qSysrKdOeddzq/+ZzfjTEHzPreddedikaikqTBg4doyPHHK7kXE0mq2n3hCccfHz8WjDZv3qx169bVbaHx+f300/L4tEY52Tk67bTTKo53o0rLtXxOYoYOHabWrVvLGKf3qldefaXSrJ0eXiyn22wjGRldfvll7v5ImRbj9BLUtm1bSU4PWaeddlrKHqGS09P6oNbKyMiUbWxFIhFt2LChoheYuOLiEs2YMUPGKWTQfffdp4zMjBo3j8/v00UXXeT82/JpyY9LFAqFKu+HSqtg1KhRI/Xs2bOid474sVb1zx/wa9DgQbJkye/zadu2bTWmZd9zuji97vrrlJOTU3Hs1WDatGlOL2aWpZ49eurc88515uRPnekZ22joySfroDYHycg5bhYtWlTjcizL0m9O/Y2bz6XqttOO2Wrbtq0yMjISE+kvf/lL9b0MWU7PG4ceeqhaH9TanV9+fn6l0WKxmJb+uFTz5s1z53X1n65WwO+v9hhIpDkrO0tXXXmVYrGYLMvSl19+JRlTqQvai8ddrKysTEWjUa1auUoffPBBtfONRqKaNGmS28vYqDNGyWf5Klo4sCy9/vpkWZYlv8+vYacMU5++fapPZ7y77t/+9rdq0riJ/JZfoVBIa39eW2m0jXkbtWb1GhkZBXwB3XX33U7vbTXw+X0aNGiQGjdqUvlatZ81aFBfk9+YXHHe17APZUsvvviionZUMdtW3z59dfDBh9Tcq1v8++HDhyszI0vGGG3fvl3PPfdcjemyLKnvMX111FFH1Tyez1LPHj3cBXXv1l31c+tXLDs5m4znf1lZWerRo4d88smyLK1du6bGZaSjtt67aps2NydX11xzbe0jG6lfv37uNaa4pNi9/iSbNWuWQqGQjJGO6HGEunXtVjm/3S0R0riLxykzK1O2bRSNRjTj4xke1kVq1+5gSVLAH9Crr73m9Gb4a3cBbCUNa+mRzxijTp0OkzFGliyFgqHdRotGopryzhT5LEsx21b3w7vr/PPOr7wcj3w+J88KhUK66aa/aMK9EyQjBXx+PfH447rm2muc3oP2Qu+JwL5CUAU4gBhjKzs7Wx0P61jjeJbl3IQ0btzI/a6kpEShULji4cKSorGo3p/6fnwaSyPPGKlIOKJgWbDGv9YHtXbnG4vF9OVXX+2L1d1LLGUEMtSoUWOdf/756V1wLen000+XJUu2iemhhx5Sv37H6vPPPtfOHTudG7T9fOE2tnODMevTWfEvpLPPPkvhcEglpaUqKU76K6n817hJE/nkkzFGoVBICxYsqNvC44Gld995V7FYTH6fX23btVPLli0VLA8qFAxV/JVX/rMkde7c2ek+XNLixUt2e0hx7r2dA9Vn+TR27Njat7eRMjMy48mz1CvRdWQNN1kZGRlq2qSJ+9mO2bsFBbZu3aqdO3bKyKhedra6deuq8tLylH/BsqDKy4IqKytTly6dJTk3gwUFu5ygSg3r0L59ezVr1qzytkgRVJElN8AUtWMq2FUg296fD6BGjRo31rhx45yPaZwX3377rYyMLEs6us/RKistU1lZmTOs8ldeVq7y8nIVFRerRfMW7jxWr15VbbAkcePvBKmsygGqZJbzIJ942MvMzNDQoUMTq1WjRo0ayfI5M64arA5kBDRn7hzZthN8bdGihc4888yKdFQn/lv/AQOc4JGxlZeXp23bt1f6vWvXrho9erSMjGJ2TI8+8qhi0dju87Ol9959T8t/Wi4j50H50ssuc7ZJ0nVgyZLFbtBwyOAhTj5fXvM1wLaNGjRo4K77unXrKm2z7du3KxgKyu/zq36D+jpj5MiaN2h8/Ro3aqzBgwbJOoBuPwcOGKiDDzm44ovq9qFxrqlzZs+WJPn9Pp089GSnO+Y0dOjQQf37H5eYlSa/Ptk5xqtjpMGDBtd+zllSdr1stwvwrt26Vh9wTgrIt2zZQraMG5zY31q3bq3mzZultb716uXIGCO/36/S0tKU23H6R9NlnDNNRx55pGKxmMrLyyv+yir/lZWWqXGjxmrd2umm19hGK1eurPN6GNvotNN+o2bNmikWiyk/P0/HH3+Crrn2Gq34aYUi4XhXyKnyoH0Vd6kafDZOV/TB8pDKy8sVLA8qEo44+bbPcq/fyQIZAS1dulSWLFmSTj31N/IF9s55bFmWIpGIJk6cqEceeVihcEj169fXpBcn6cqrrkwaUTVe84H9Kb0rAYBfhWX51LFjR+Xk5tQy3u4P/ZblU9WCoh07dmjTpk3yWc4D9hOPP6EXXnih1nTYti2/zy/btp2Hxp0767oqvyKnlLdPn6OdkvQ0WJalhx95WNt3bNd7770n27a1YP58DRs6TM1bNNepp5yqa6+9tnIJYZUaDr+GwsJC7SrcFV+s0T333KOHH364xmksy1IsFnP/bYzR5s1b6rxsy7K0YKETjInaUa1fv16HH364LMtSNBqtdjqfz68tW7a4x09xUZHsmF3tzVdGZoY6HtoxrRoQkuI3dFb1NVuqpCUzK7PqDCrZuWOHExCRFAwG9ZvfnCZ/DQ8kiRoBwVDQ+co2ikaj7jbfPQ3Oude1W1enpC2tY8hy/+/3+XdP9K/syCOPVHa9bOemPI2krFu3Tj7LL0maMmWKZs2aVe24lipu4LdsqThOS0tLnSBF1Yel+PaLxCLq2LFjnTZNRkaGGjZoWBF0qD5R7rmzW+l7/GNenlN7xbIsHdbxMKekNU1t2hzkThsOh7R48SINHTa00jKuvfZavTPlHYUjYS38fqG2bNmiNu3aVIxjnBpbT/7ryfi8pAsvvFAdOrR302jiL4fl5+U7D0ty8r2n//10rWk0ttGmzZvjj09SeXl5pW29adMmRSIRWbLUqFGjWmupuHxSz1499eG0D9Mb/1fQq1eviuOhlhL9LVu2KC8/z9kuRurV68j0FhLPO/r166cvvvxCMrYWLV6kSDRSfc04y3KuQWnmjZLks/xq2rRpjbVGjO08OPv9Afn2oHbJ3hQzMTVs1FCZmZm1j1xFqvshWdKq1avi/7Q05e0pmjlzZjw/Tc3I2UdbNm92Plk+lZSU1D09fkvt23fQ13O/1oCBA7Rt+zbFYlE9/sTjevbZZ3XIIe112aWX6qJx49SsedM67V/PLOmHH37QjBkztHDh99q+fZsKdxVq2/btMsaWMUbFRcXVBzvj58fmTZvdr7p377bX0n5498M1ceJE3XnnnYrFYgr4Anr11Vf1m9N+s78vf0DaCKoABxSn5N4L97qTdJELBoMy8c+2Mdqxc4d27NxRpznaMVvRWPTXufB7ZIxxXvtJlyXl1s/Va6+9pilvT9FTTz+l2bPnyDZGm7ds0Usvv6TXX39d3bp317nnnKMx541R586d990KpGQUDoUrPaxv27ZdlqUajxETL3k0MpJxxo3VEASpyebNm2XHD6BwOKT169dLkvugVX0aKmpTxWy71uOmLg+k8QSkFZywLKvWKunbtm9zHzhtYys/Ly/t49yyLLdGRqL6cnXT+mq4ma+Oif+3vwUCdUt74a5CSUYx21ZRcZFKSkpk0l6N+Kthiary1RwaPvmcV4y8qmUfO+lNsUPjXxUWFrpf1W9Qv055Y25urrKzshUKhWTJcs+r5GX06NFT7Tu016pVq1RSUqJXXn1VN/3lxkrj7NixQz/88EP8OPdp3MXjKlfFj5dIJ5YjSQUFBdpVsCv9xMZrrVUNGhYWFsaPfUuZGZkKBGq5nUxsSjv+asQBdD3x+9M/vktLS91aHbax1bZNm/TWxUiSpS5durqFHKFgSKFQuIbXDeM1SNLcTsYY+RKvwaQ1zf7PWxIsWc457zVJVda3vLRcBQUFkpx8tLCoUIVFhWnlp5bi1w1jPL+yY1lSpy6d9M033+q5Z5/VK6++ovXrNygcDmv16lW6/sbrNWHCBA0aPEhjxpyns8460wlcJ87bPT034sleunSpnvrXU5o6daryN21SJBqR4tc7IyO/5Xe3SaLAoKZXA8uD5e7Hpk2a7rVz+J1339Xs2V85r0XG0/bwI49oyJAhatCowd5ZCLCPEVQBDjB7+zYn+VWLk08eqtatWtcyRWUxO6ajjz76gLkBTsWk/8RWSVZWlsZeOFZjLxyrxYsWa8KEe/XVl19q2/ZtikQjWrJ4sRYt/kH3TLhHEx+YqMuvuFwBf+BXr7WSWNwpw4apRcsW6a9vvM2So3rX/E5+TXzxEvsO7TtowMCBdZrWtm117tTJc6Bwb0nUbqlxHMun7KwsDR8xQvXqZddp/oFAQBmBjFrOEZNITJ1YVm0p37f2qJ0EOSXthx9+eJ2n7NO3T22j7FMVJfhV313bwxkb57ywYzW8buGTcnNzdO211+qqq66SJD3y8MO66qorlVs/103Hv//9jAoKCmRk1Pagdurdu7dTs6e6wmZjNHjwYB3c7uDUI6QSz3yqCyrXOe/1SdlZWbJly6e6BxoPFG4bOJbSepE+8eBqxYNUxv1uL19IDpw4yQHl6KOPVvfu3eWzfPGCgto4NRD79evnbYHxfKJDhw66e8Lduvvuu/XCpEl67tln9ePSpSopKdaOgh2aOnWq3nv/fR3Zs5cmvzFZXbt29ba8qqk30scfz9CYMWNUXFwsn+VTZlam2rZpoy5du6h3795q06aNcnNz1bx5c7Vo0UJT3p6ihx95JP7aY+r12Vc++ugjSUatWrXWzp07FI5E9Nlns3Td9dfpySefrLWdM+BAQFAF2N+qtheQ7rvNVadL/CPp4peRkSGfz6doLCpLlm688SYNGzY0dXXZmpZzAAdU9kjSevXq1Uuvv/4fFRTs0o9LlmjCvRM08+OZ8smn8mC5rr/hes2ZO1evvPJyRa2EfZy4QCDg1uKwZOmvN/9VJxx/wm5pTzdyY+IAACAASURBVGNWu0kkv7qHImOMGjZsKNvYCvgDOvLII/XKKy/XYaE1L9/TOEnSq8FhKv0r1RT169d3f8jKztKjjz6qtm3bpBizFlXTnyj0M1VKAfe6Xzm6l4Z6OfXcf48ceYbuuOP2PQrO7J6Mus0r0Z5IXfeBMdVnfk2aNHbHKSoqqlM+WV5Wrkg04m6TVi1b7T6SJf3hD3/QxAcmat36ddq8dbOmTp2q88eeL0naVbBLDz/8kCSnNtqDD06s2O5V2u1JPJAYGV0y/hL97qLfpZfQZFU2XU5OrhssDUci6bfJYaSd+/N1UrcwvsrxkGagPDfXCWrZxpbP8mtT/qa0Fpt4nWzlysQrKU4jpm4jykkS15e08rjkVYjXnEt5nFvJ/7Qq5U91rim4F+2rfLFeTj3l5ORo+/btsmRpzJgxuukvNyUtuJYZ7KXsKrlh8osvHqff/e63ys/P17Rp03T//ffrl3W/SJIWLVmkY489Vu+++65OOPGEPV7u0qU/auzYsSopKZFlWerStYueeeZZ9ezZUw0bNKhol8RUDGfPnl1R06kaycdrcUnxHqczwcjWBedfoMcee0yTXpykG2+8UZKlZ597VoccfIhuu/22vbYsYF85cFoKA/7b7aWLsPdeEZJKwuNpadSwkerXr++2bzDtww/r3gjr/2pApar4dmvStLEGHz9YH03/SF9++aWGDHZ6QopEInr7rbf03bff/TrJsaTc+vWVk5PjvgTy+edfOLl2NT3HVPvnUZfOXWTJUjQW1fwF8xWJROq23BTL33fBhdQSi6vumf6g1gcpu149GWMrFAqpqLCw7uuWKmj1K6/nvlIpGJLmsdSuXbv46JaWL19eOc/ZG8dtXWuK1XVXmOT1TjGxcXoISli3br3C4bDSyrqNtGHjBvfhNyOQoSOPSt0uR1Z2lkafOdoJbPoCevPNN50fbGnWZ59p165CBQIBderUSWPOG5O6XRBLatasmfuK27Lly9JIZApV9kerVi2d12aMVFxUpGB5sPZ5xNO3/Kfl3tKwv1lSq1at1b59BzltTxin3ak6HF/fzJvnzuyII45I+dqqExxJU7oj7oXrwV63D7NIY4zbA48kLVz4feXaYfvomlmbQEZAh7Q/RFf83xVa+uNSPfWvp9WmtRPELy4u0T333LPHy7BjtiZNmuS8hmmcnvM+++wzDRw4wAmoJDeonTQs3FVY6yuVzZo2c4N9y5fvvfN41Bmj9Oxzz6lZi2a6/obrddlll8uyLAX8Ad13/316840399qygH2FoAqwDyWXCP3qjFOqdtJJJ8sYW5YsvT55skqK69Dw2v/Gc2GdJL9DPWDQAH388cfqcXgPp1veaETfzY8HVRI3JumWKNaVJTVs2EDHHntsvGTe6Pnnn1ckFNn7y0q1eMvS+WPPl2X55Lf82rF9h5Yt9fhAti+kXVGl5hGbNWumBg3qS7IUDAY1derUvZuGxKj/I0GWdPTt21eS0z3011/PVTgU3s8p8qa68zoWi+mE40+QP17Cv2XLZn3wwYfOqx21BFaMjJYtcx5GLMtSq9atdFC8t5FUxo4dq4xAhowx+uSTT1RcVCxjTDzA4rR1cvrppzsjp3oYNFL37t0lOb1nTftwmuzonvf00rpVa2VmZsrIqamzdOnS6kdO2oyxWExffP6FG+j/rxEv0ff5fDrppBOleFBsxowZTm8uaZze+fn5+uKrL5y2LHw+nTtmzN5/gE/3jaJ9/dbR/gzexBMz9OST3a++/eYblZaWOufnPnjrKi2JYHA8DTn1c3T5FZfp0X88Kp98sk1Mc+fOVVFhUcU0VdOZ+Fzd01v897lz58qW0x7P4MGD1ap1K2f5vhTzlGTHjBYvWVx92uPTdOrcyf33JzM/qehRbw+3Z4cOHVQvJzueFlv/fOIJ9T7qKBljFAwGNX78eC36ftGeLQTYxwiqAHuZbTstqft9foUj4f13cxEvcbnv3nudFvUtaceO7ZoyZUrtF0CTNPxffBasYZ2sKtVf/QG/eh/dW4nG60LBUOV5VCk1N7b3xu1SufXWW+X3O43J5eVt1KuvvVan6fek8b++ffuqXbt2so2tcCSsJ/75RJ3nsTe3xV5npCZNm2rI4CEy8W5m7plwj9asXlPrdMnnhruOv+qqGtm206if3+dXOHzgBC6GDx8R7yUqpvz8fF177bXOD+k+7O3PB580+P1+dTi0g04eerLz2ouRHnxwoiKRqCxfDYEV4wTXHnroQVlyXgc57tjjauwVqs/RfXTiiScqZmIqLS3VY489pp0FBfroo2myZMnn8+mS8Ze483clKgcZ6dxzx8gnn6LRqJYuW6pHH3109/GrSW91nw8+5GAdfLBTE8C2befViurWO56l2jFbC+Yv0Jq1a2SbPWhkeH+Ir4PPb+nCCy6Uz+d01b1k8RKt35DU0HCqbRr/7v333nf2meVTo8aNNX78H/Z5sn8V8QOtInBsOb1F7dfz19Lpp5+ujIxMGTm1w1588UWnxmJdaqN4qOWWPNzt+peiduOpp57qvlZmbCeIsDvLqR1lKd7YrKpdh0SPcwlNmzZ1gh+pzs/4aEVFhfp67tfVt38WX9aoUaPcap+LFi/W+++/X/M28nAv6fP75M/w673331P79u1ljNNA9PARI7Rm1ZoD9roAEFQB9pb4Rad169buDfOsT2ft9wtA5y6dNXToUNnG6cXn+utv0HvvvS8TqyVhxilV3Lxp835fh70tEo5o44aNaa1XLBbTkiVLZFk+2cZWm0R7G0k3CR07dlRGwOkKMhKN6tvvvt1rae3Tt4+GnTJMitd6+utf/6KPpk2vuaHLuHAoog0bNnhbsCXVr99Av/3tb2VkFLNjev755/X32/6e9vGwcUPebkGqA41lSQ9MfEAtmreUZVkqKS7RxRdfXHtgRc4DckHBrko9wfxa/H6/mjVrFk+H9Nbbb/3qaajOET0O1xVXXOE2yvn888/r6X897QSZa2Bso0gkqjVrat/2+1X8kL799juUlZklWdKC+Qv00EMPKRKOOM8cKc6RaDSqyy+7XEt+XCIjo9zcXF13/fU1PuT5/D7deuutyszIlG3beuONN/XKK6+osKhQls/SyNNHqvsR3atPp08aNmyoho8YLskJgEy4d4KmvD2l9tpTlhQKhvTz2p8r2l6Qs26ZmZm688475ff7ZVmW5i+Yr/sfeKDG2e0qLNTdd98to5p7MDvQHXvcserZs6eMMSoPlmvEiBFa98s658dq9uOnn36q2++4w639dMYZI5WTm/O/cW21pIxAhvtKnN/n0+TJkxX12Ovc3kiPZTldd5900kmy5Bz31113nV54YZIzTm23P7a0Yd2GuheKxcfPy8tTOBhOff2rcuh/8cUXKiktkSWfmjRtoiZNmuw2yUEHtXYTvXDhwuoLS+KLa9q0WfyjpXnz5ikUClX7xJeft0lnn32OdhbU3tbR6aefrt5HOQ3fRyJhXX311Vq4cKFkKfU9Sbz2Xiwaq/O2bHNQG73y8itq0+YgGWO0efMmjb/kEoXDv05tXaCu/nuvasCByJKO6XeM+778O+++owfuf0Ch8pBikZgi4aiC5UGFgqG0Hor3RnpkSU899ZSaNmkqv8+vHTu265xzztbFF1+sX37+ReVl5QoHw073jsGwigqLtWbNGt1//wPq3r27brzpxv+5VxfCkbAOP/xwjR07Vt/M+0bFRcUKBUOKRqIyMacr42BZUOt+XqdTTz1VPyz6QbaxlZmRqWOOOWa3EuHmLZvrsMMOU6J73euuu047tu1QLGrLxIwi4ahKS0rrfgMdvwl5+OGHlVPPaVtl29ZtGj16tC699FKtXbNWZaVlCoec/ReO77/Vq1br/vvuV/fu3fWnP/3J83by+SzdM+FunXziyXK6HDa65+571OOIHvp23rcqKylzGt0MRRQsD6qkuET5efl6cdKLGjRwsE45ZZgzowP18ImfH+07tNeDEyc6JXwy+mr2VzriiCP05BNPqnBXocrLyhUKhlReVq7y0nIVFRbp888+10XjLlKHDu312azPKub3K/FZPp166qmSJGNszZw5UxPumaBgeUjRSEyxaEzB8qDCoTTb+tjL7p1wrw477DBJUjgc1pVXXqnTTjtNy5YuV1mpsz1D5SEFy0MqKynTprxNeupfT+mYY/rqhBNPPPDaf6jKkvr3P04XjbtIluV0x/23v92iCy+8UNu2blM4HFYsElM4GFZ5ablW/LRC/fv317PPP+vUepNPt99+u449tl/N54clHdnrSLVt01aWZWn1qlV65OGH3Z9vvuXmSuNWnVZyatv984l/qnHjxjIy2rFzh8455xyNPX+s1v2yTmWlZfHrkpPvFRUWa9XKVbrv3vvUo0cPjRs3LuV8zzn7HJ1yyimKGafG1C233Kw/XnW1dm7fqUgoomg4qkg4orKSMi1evET9+/fXBx9+oKzMzAM3T0hDbv1cffnll2rRwumJbcXKFerXr58+mjZdZSVlzrpHoopGoircVagHH3xQI0eO1I4d2+WzfGrfvr0ee+wxZ2b7+RhPNKC7x/PxWRo+fLh77/Ptt9/q9r/f7l5Xo5FoPD/6lR6ILad3v4+mT9NhHQ+TZVmKRCO6ZPx4nXH6GVqzZo3Ky8oVDUcVjl+/SotLtWb1Gv3j0cfUs0cPXXnlldXXvqrF448/rg4dOuihBx/ShvUbVVJconD8uLBjtsLBsMpKyzX1vakaP358fCrj1K5J7ukmfnz07dNXfn9AtrG1dNkyjRkzRqWlpYpFY878QmGVlwXd8+qCC8ZKctro++H7H/THq/6okuJSZ39Eo+71bMaMGRo4cIC++OJz5ebk1rpe2fWy9exzzymnXo4kS3l5eep7TF898fgTKisrUzgUUSh+P1lUWKSflq/Qbbfeqssuv6zO29DyW+o/sL8e+8dj8vsDMkb66ssvNWLE8Iqg0n9xPoL/PfT+A+xNtjR+/Hj94x//0LZt22WM0W1/v03PPf+cGjVqJGMblZaV6pLxl+i6G6771ZLVrl07ffrpLJ111ln6+Ze1sm2jl15+Wa9Pfl0HHXSQGjRoKBmjcCSs7du3q7S0VKFQWJYlHdf/uAO+tkFdWfEntsmTJ+uNN95wuhRs3kI5uTnKzspWSWmJgsGgNm7cqLKyMklSbk6u/vOf19SpU6fETCpd1C8ZP15//etfZRtbK1euVKfOndTx0I7KzMxUKBTSjp07NH/+fLVo0aLON9Jdu3TVnDmzdf7552vVqlWKRMKa9MIk/ee1/6hFyxZq2LChLFkKhUPauXOnSkpKnJIpWc5DWzrbpJo0GdvojTfe0CWXXqp3333XaRNi+TINOX6ImjVrpkYNG8kf8CsSiaigoEAlJaUqLy+X3+/X4d2rKUE/AF342wslSVf98SqVlJYqHA7rqquv0t/+9je1bNVSGYEMxeyYysrKVFhYqNKSUkXtqHyWL2UPHvua5bN09dV/0ksvvaQVK1fIJ59uv/0OTZo0SU2bNlUsZqu0tESXX365rrnmml83cUZq0KiBPv3kU1007iJ9/vnnkiV98fkX6tPnaDVt2lSNGjVSwB9QWXm5SktLVFRYpPJgUD7L0mGJc+xAZ0lP/vNJtWjeQhPunSAZ6c233tS0adN0cLuDVb9BfUWjTkA1Lz9PZeVlsmQpOztbt9xyi/74xz86eYGtGvOEho0aavz48brt739XebBcGzZskM/yqU2bNml3wXpI+0M0e85snXP2OVq2fJl8Pp/eePMNTf1gqpo3a67c+vXl9/sUDAZVULBLpSUlCkfCsmSpS5cuu6Uv0THSM888o7POOlvffvuNbGPrX/96UpNff10HtTlIfn9AMkY7Cwq0desWBUMhdWjfXm+//bZOPPEklZTUoX2vA0xubq7efvttnX/++dq0aZO279ihUWecoVatWql5i+YKBAIKh8LatHmTtm93gimWZalz586aOnWq6jeoX7n2z387S7r00kv13HPPacmSJZKcGoBvvvWmkx9FY869zyWX6Lrrf717H0n6eObHGjNmjOYvmC9Z0ocffqiZn8xU8+bN3fuyaDSqnQU7VVxUrHAkrEAgoG7dunneP36/X1u2btGNN96oO+64Q40aNVazZk2Vm5sry/KptLRUO3ZsV15enizLkmX51LVLF91+++0p53fSySfp2H79NOfrObJk6d1339Xhhx+h1q1bKRAIaNeuXerZ0+nBUJY0YsQIde/WXStWrJRtbL340ov64MMP1a5tW2VlZam8vFwFuwqUn58v27bVtUtXvfHmGxowYIDKa2l0ulevnpryzju68MILtWPHdknSNX+6RrfffrtatWolv8+vSDSq7du3qaSkRJFIROecfY63DSnpzLPO1KOPPqI///nPikaj+uyzz3X3XXfrtr/f9r9z/uB/AkEVYG+ypFatWmn69OkaP368Fi9eonAkolWrVrtV4RMNYiazbdt5RjfVVKGsaYGSEg0WVtvVqCUd1ftILVu2VDf/9WZNnTpVP//ys8LhsNatW+eO5vQQ4bRklpubq86dOmvQoMGV2w/xIBbvbtMo0Y9NzUxS4681jW/HW6q3bZN+l55ySm4HDhygOXPmqqSkRNu2bdO2bdvcZTlV050SvPr1c3VM32N062236sQTT0xKZNLQJ/3pT3/Sjp079OSTT6qwqFC7Cgu18IeF7j7x+/3O/veyDX3SUb2P0tdzv9Ztf79NH0z9QPn5+QqFQ5Ve70n08CE5XZ526dJFJ5xwYsplVhyPiVWxdr/Jt5ySzKbNm2rKlLf15JNP6plnntFPy39SKBzSpk2btGnTJiUiTInlZ2RkqEP7Dho6bGjlB8Z4ECq5ZNSY+DFR3QNG0ncV+zj90tVIJKlk1FS/HL/fr9+P+726duuqe++9T19++YUKC4tUWFSo4pLi+DlqyY5vrYDfr+ZNm6vXkb10aMdDUy47Fm9vw8TPz3QlGpY2Mk616VQsqUGD+nr55Zd1xRX/p0U//KBoLKJVq1cpsT8sWU4jmh6OuUR6jfHYRpCRDm5/sKZOnaqHHnpIkydP1po1axUKhZS/KV+bNm1y19FZHUtZWZk69NBDdc451dyAx7dluvvesiynjaP4UupSIh+L72+p5naBLJ9Pd919l3r37q1HH31UCxYsUFlZmVasXBFPckWe0iC3gXod2Us33HCDRo8eXbFf0qgzfM011+if//ynNm/Z7CxXlq655lo1bNgwvYdzS+rWvZu++PIL3XPPPXrnnXeUl5evYDCoDRs3xGssOPmCbYx8spSVnaWuXbtWNIRbab0lGUtt2rTRRx9N06233qopb0/R5q2btbNgp7bv3C6ffPHae5ZycnI04uShuu++e9Wtazc1btRIxcVFdTovUq5WonVgdxelkTdYlY8FN1+pQzsbPr9PgwYO0vz5C3TzzTfr449naPPmzcrLz9PG/I2VrsWWZalDhw4aNXqUHpz4oCx/Ul5bZd8ZJa5lJjFxresiOedr4v4irWuh5bySkdgOibaB9uQhtV5OPb046UVdetmlWrjwe8ViMa1evdr93ciorLSs0jTO4qt5X64GifakjB3PD2pI+6GHHqpPP/1U9064V2++9ZbWr1+nUCikvLw8bcxL7KuKa1hOvRx16tRJx59wfN23RzwdPXr0VNcuXbVq9WqVlZaprLRM+fl5lfK8xPWybdt2GjlypB599FFlZKZ4LDNOrZv33ntPv/v97zRr1iyFwiGt37BO6zc492+WrEo9kjVu0lhz5szRZZddpmnTpikYDGrbtq3aum2LEu3D2cZWs6bNNHrUaP3jsX8oNzdX3bp10/fff69YrJrjIX7sn3LqMM369FPd8rdbNGf2HO0q3KWCggLtLNhZkW/KyCefGjRo4PYIl5iHZSWOUyu+P6s/Zi2fpcsuu0yzZ8/R5MmvK2ZHdeddd6p169a69PJL67iDgH3HMv9r9fqBA8jsL2frxZde1JIlS2Tbtlq2bKlTTzlV55x7rg5q09odb+WKlVq6dJl8lqUWLVtqwMD+Nc7X2M7FOH9TvubFu2hs3KixToy/P5zOTfr3C7/X+++/r49nfOxe0AIZAfXt21fH9jtWo88crezsbDdosCfyNuZp3rx5CvgDatyksYYMGVJj7ZddBbs0a9Ys92b8xBNPVGZW5m7jLV+2XMuXL5ff71e7dgerT9+j00tQPNcrLy/X9OnTNWfOXM2f/51CwZBidkwZGRk64ogjdOKJJ2n06FGqV69eRYlyKj65wYNQKKQXXnhB70x5R7sKd8ln+dS3b1+dMWqUhg0buuclK7bzOsXiJYv14YcfavpH0yv9PGjwYPXt21ejRp3h7L8UN+6StHPHTqcGgaT69evrpJNOViCj5h45jG1k+Sxt3bJNkydP1ocffuB02yincbwuXbvouOOO04gRI9S2bVtnH1ddtpGCwaCmT3fSnZGRoRGnj6gIvtSwfT75+BMVFhUpEPDruOOOc3o0qDHB0syZM93aRv3791fLVi1rniYuFrU1der7mjFjhhYtquh1oHGjxhowcIAGDRykE044ofo029IPixbpl59/liypU6dO6tGzR+0LNk5XlcuWLVPAH1Dbtm3Vt1/fGse3bVtff/21XnvtNS1csFDRWNTJa049VRdecKGaNm1a567UV/y0Qj8t/0mynC45j+l3TPoTp0qmLa1evUrvvfeepk+frsKkHi569+6tgQMGaMTpI9S0aVP5/KkznGB5SB9/PMN9EB8+fLiysnfvkrZioU4Dh7M+nRU/rzN1yrBhysiqpWaRkT7//HPt2rVLxjY6rv9xOqhN9T30JKaRJW3ZtEVvvPGGpkyZ4gTPLalt27YaftpwnXf+eU6DlMn7IZGn1JTHxvOrb7/91g2iBgIBjRo9SsaOBzjqykiLFzl5yIyPZ7gNcGdkZuioo47ScccepzNGneHUqEhTNBLVhx98qFdfe02//PKLJKOmTZvqvPPO028v/K0CGQE3T5j16SwVFRepWbNmGjx48B7liyZm9OVXX6qgoECSdNyxx6l10vW16nrLkr779jtt3LhRktSzR0916tLJe1AhPt30j2botdde08qVKxSLxpRdL1tDBg/RGaPOUL9+/Sq66a7y+mjVZX40bbpCIafgZcCAAbXnWUb67rv52rBhvXw+n7p3P1xdu3WpNb3Lli7TihVO8K9jx47Vdu2dtqTtN+/reXrllVe0YP4CSc5D/mmnnaYx546ptG/yN+Zr3jfzZFmWmjRu4uSpaRzPm/I3ad68eTLGqHnz5hpy/JBa05W4fq34aaXeeutNfTbrMxUXF0tygha9j+6tPn36avjw09S8RXNn0rqeX8kFULa0Zs0aTZ8xQ/Pnf6eVK1a691oNGjbQoIGDNHTYMA3o379O91grlq/Qy6+8rC8+/0KRSESWz9KoM0Zp9Jmj1a17t93GL9pVpEmTJmnqB1NVXOSs7yHtD9HZZ5+tkSNHKicnx91vixct1tq1a9WqVSv1H1DNfWiVQjYTM3rv/ff0wdQPtDheS8mypC5dumjk6SN1zjnnyBfwudMa4wTFli1dFi8EkHoc0UNdqjtmkwKQ06ZNi9fCddp1GnH6iPQ3HLCPEVQB9pFKF+P4haTai3M6N9aVZp70b6vKd+neFFapcp4opTTGKVms+iC8R8GAuk5fpVHEvV7Fs+r8k7+r5gHZ/a2WHi6MMZWDCcnLsrXnLVml2vfJvyUt0+k+0jglo9XNy0tJXHXLT4xi17ANUqU18bm2B8u6HBOp9nEizemud3Xj1fVc83L813Q8prk8zw/ckpQoqEx0wbkXzkH3uPA0sSofL163fV3XJZ1zNp4m99yvYZyU50Gq76uOk8h7fCm+r6t0tqWXvKrq+V7Ttq8pb6irmvKXdKap6zGVanbJx3Y80Onz+6q/VicvM/k6bFepnFLXfKou23NPz41U80tWpQJKynugKgGPOi3La9pN/FyVtXsem7xf9ta9R9L5m1wzr07nV/yYSeTJdsyWz+er+zUxIZGfWEmfk+eT7vlTU76Wbn6d6ripbnnJ4+/t+0JgDxFUAQAAAAAA8IDefwAAAAAAADwgqAIAAAAAAOABQRUAAAAAAAAPCKoAAAAAAAB4QFAFAAAAAADAA4IqAAAAAAAAHhBUAQAAAAAA8ICgCgAAAAAAgAcEVQAAAAAAADwgqAIAAAAAAOABQRUAAAAAAAAPCKoAAAAAAAB4QFAFAAAAAADAA4IqAAAAAAAAHhBUAQAAAAAA8ICgCgAAAAAAgAcEVQAAAAAAADwgqAIAAAAAAOABQRUAAAAAAAAPCKoAAAAAAAB4QFAFAAAAAADAA4IqAAAAAAAAHhBUAQAAAAAA8ICgCgAAAAAAgAcEVQAAAAAAADwgqAIAAAAAAOABQRUAAAAAAAAPCKoAAAAAAAB4QFAFAAAAAADAA4IqAAAAAAAAHhBUAQAAAAAA8ICgCgAAAAAAgAcEVQAAAAAAADwgqAIAAAAAAOABQRUAAAAAAAAPCKoAAAAAAAB4QFAFAAAAAADAA4IqAAAAAAAAHhBUAQAAAAAA8ICgCgAAAAAAgAcEVQAAAAAAADwgqAIAAAAAAOABQRUAAAAAAAAPCKoAAAAAAAB4QFAFAAAAAADAA4IqAAAAAAAAHhBUAQAAAAAA8ICgCgAAAAAAgAcEVQAAAAAAADwgqAIAAAAAAOABQRUAAAAAAAAPCKoAAAAAAAB4QFAFAAAAAADAA4IqAAAAAAAAHhBUAQAAAAAA8ICgCgAAAAAAgAcEVQAAAAAAADwgqAIAAAAAAOABQRUAAAAAAAAPCKoAAAAAAAB4QFAFAAAAAADAA4IqAAAAAAAAHhBUAQAAAAAA8ICgCgAAAAAAgAcEVQAAAAAAADwgqAIAAAAAAOABQRUAAAAAAAAPCKoAAAAAAAB4QFAFAAAAAADA5TrnbwAAA9pJREFUA4IqAAAAAAAAHhBUAQAAAAAA8ICgCgAAAAAAgAcEVQAAAAAAADwgqAIAAAAAAOABQRUAAAAAAAAPCKoAAAAAAAB4QFAFAAAAAADAA4IqAAAAAAAAHhBUAQAAAAAA8ICgCgAAAAAAgAcEVQAAAAAAADwgqAIAAAAAAOABQRUAAAAAAAAPCKoAAAAAAAB4QFAFAAAAAADAA4IqAAAAAAAAHhBUAQAAAAAA8ICgCgAAAAAAgAcEVQAAAAAAADwgqAIAAAAAAOABQRUAAAAAAAAPCKoAAAAAAAB4QFAFAAAAAADAA4IqAAAAAAAAHhBUAQAAAAAA8ICgCgAAAAAAgAcEVQAAAAAAADwgqAIAAAAAAOABQRUAAAAAAAAPCKoAAAAAAAB4QFAFAAAAAADAA4IqAAAAAAAAHhBUAQAAAAAA8ICgCgAAAAAAgAcEVQAAAAAAADwgqAIAAAAAAOABQRUAAAAAAAAPCKoAAAAAAAB4QFAFAAAAAADAA4IqAAAAAAAAHhBUAQAAAAAA8ICgCgAAAAAAgAcEVQAAAAAAADwgqAIAAAAAAOABQRUAAAAAAAAPCKoAAAAAAAB4QFAFAAAAAADAA4IqAAAAAAAAHhBUAQAAAAAA8ICgCgAAAAAAgAcEVQAAAAAAADwgqAIAAAAAAOABQRUAAAAAAAAPCKoAAAAAAAB4QFAFAAAAAADAA4IqAAAAAAAAHhBUAQAAAAAA8ICgCgAAAAAAgAcEVQAAAAAAADwgqAIAAAAAAOABQRUAAAAAAAAPCKoAAAAAAAB4QFAFAAAAAADAA4IqAAAAAAAAHhBUAQAAAAAA8ICgCgAAAAAAgAcEVQAAAAAAADwgqAIAAAAAAOABQRUAAAAAAAAPCKoAAAAAAAB4QFAFAAAAAADAA4IqAAAAAAAAHhBUAQAAAAAA8ICgCgAAAAAAgAcEVQAAAAAAADwgqAIAAAAAAOABQRUAAAAAAAAPCKoAAAAAAAB4QFAFAAAAAADAA4IqAAAAAAAAHhBUAQAAAAAA8ICgCgAAAAAAgAcEVQAAAAAAADwgqAIAAAAAAOBBwBizv9MAAAAAAADwX4egCgAAAAAAgAc+y7IkSQwZMmTIkCFDhgwZMmTIkCFDhgzTHwZisZgAAAAAAABQNz5JSrwClHgTiM985jOf+cxnPvOZz3zmM5/5zGc+85nPNX+2QqGwkYwkSwwZ7q/hsN8MVyozp390QKSP4YE55LhhyJAhQ4YMGTL87x5yP8fwv30YMMaWwzBkuB+HqXF8Mqx5mBrHDUOGDBkyZMiQ4X/LMDXu5xj+twz/P/g5rma3fg49AAAAAElFTkSuQmCC;" vertex="1" parent="1">
          <mxGeometry x="120" y="60" width="1109" height="596" as="geometry" />
        </mxCell>
      </root>
    </mxGraphModel>
  </diagram>
</mxfile>
